<?xml version="1.0" encoding="utf-8"?>
<!-- Generator: Adobe Illustrator 24.1.0, SVG Export Plug-In . SVG Version: 6.00 Build 0)  -->
<svg version="1.1" id="Layer_1" xmlns="http://www.w3.org/2000/svg" xmlns:xlink="http://www.w3.org/1999/xlink" x="0px" y="0px"
	 viewBox="0 0 24 24" style="enable-background:new 0 0 24 24;" xml:space="preserve">
<style type="text/css">
	.st0{fill:#333333;}
</style>
<path class="st0" d="M22.4,10.6l-2-2.1V5.6c0-1.1-0.9-2-2-2h-2.9l-2.1-2c-0.8-0.8-2-0.8-2.8,0l-2.1,2H5.6c-1.1,0-2,0.9-2,2l0,0v2.9
	l-2,2.1C1.2,11,1,11.5,1,12c0,0.5,0.2,1,0.6,1.4l2.1,2.1v2.9c0,1.1,0.9,2,2,2h2.9l2.1,2C11,22.8,11.5,23,12,23c0.5,0,1-0.2,1.4-0.6
	l2.1-2.1h2.9c1.1,0,2-0.9,2-2v-2.9l2-2.1C23.2,12.6,23.2,11.4,22.4,10.6L22.4,10.6z M18.4,14.6v3.7h-3.7L12,21l-2.6-2.6H5.6v-3.7
	L3,12l2.6-2.6V5.6h3.7L12,3l2.6,2.6h3.7v3.7L21,12L18.4,14.6z"/>
<polygon class="st0" points="11,12.7 8.7,10.4 7.3,11.9 11,15.6 16.7,9.9 15.3,8.4 "/>
</svg>
