<svg xmlns="http://www.w3.org/2000/svg" viewBox="0 0 387.89 370.34"><defs><style>.cls-1{fill:#f5f5f5;}.cls-13,.cls-2{fill:#407bff;}.cls-12,.cls-14,.cls-15,.cls-16,.cls-3,.cls-5,.cls-8{fill:#fff;}.cls-3{opacity:0.1;}.cls-11,.cls-12,.cls-13,.cls-14,.cls-16,.cls-3,.cls-4,.cls-5,.cls-8{isolation:isolate;}.cls-12,.cls-4{opacity:0.2;}.cls-5{opacity:0.7;}.cls-6{fill:#263238;}.cls-7{fill:#ebb376;}.cls-8{opacity:0.6;}.cls-9{fill:#d58745;}.cls-10{fill:none;stroke:#263238;stroke-linecap:round;stroke-linejoin:round;stroke-width:0.56px;}.cls-11{opacity:0.4;}.cls-14{opacity:0.3;}.cls-16{opacity:0.5;}.cls-17{fill:#e0e0e0;}</style></defs><g id="Capa_2" data-name="Capa 2"><g id="Shadow"><ellipse id="_Path_" data-name="&lt;Path&gt;" class="cls-1" cx="193.89" cy="354.1" rx="193.89" ry="11.32"/></g><g id="Window"><path class="cls-2" d="M387.89,30.48V231.73a9.36,9.36,0,0,1-9,9.14H89.28c-4.81,0-8.39-4.32-8.39-9.14V30.48a8.36,8.36,0,0,1,8.39-8.61H378.86A8.91,8.91,0,0,1,387.89,30.48Z"/><path class="cls-3" d="M387.89,55.56V231.73a9.36,9.36,0,0,1-9,9.14H89.28c-4.81,0-8.39-4.32-8.39-9.14V163.16c25.48-49,86.22-56.94,157.33-28.29C338.89,175.42,381.82,120.37,387.89,55.56Z"/></g><g id="Bar"><path class="cls-4" d="M308.81,217.9H161.92a5,5,0,0,1-5-5h0a5,5,0,0,1,5-5H308.81a5,5,0,0,1,5,5h0A5,5,0,0,1,308.81,217.9Z"/><path class="cls-2" d="M161.92,216.87a4,4,0,1,1,0-8h86.85a4,4,0,1,1,0,8Z"/><path class="cls-5" d="M161.92,216.87a4,4,0,1,1,0-8h86.85a4,4,0,1,1,0,8Z"/></g><g id="Character"><g id="_Group_" data-name="&lt;Group&gt;"><path class="cls-6" d="M103.82,225.13c9.32,7.49,6.07,43.24,7.82,48.74s9.25,10,9.25,10l-10.47,12.25s-8.74-1.51-15.39-15.76S103.82,225.13,103.82,225.13Z"/><path class="cls-4" d="M103.82,225.13c9.32,7.49,6.07,43.24,7.82,48.74s9.25,10,9.25,10l-10.47,12.25s-8.74-1.51-15.39-15.76S103.82,225.13,103.82,225.13Z"/><path class="cls-2" d="M93.92,303.62s67-18.69,75.38,4.81-52.39,42.25-86,43.39S35.88,329.37,45.81,307Z"/><path class="cls-4" d="M93.92,303.62s67-18.69,75.38,4.81-52.39,42.25-86,43.39S35.88,329.37,45.81,307Z"/><path class="cls-2" d="M159.56,341.66a.23.23,0,0,1-.25,0,.18.18,0,0,1-.06-.21c.11-.37,1.23-3.61,2.35-3.95a.69.69,0,0,1,.67.2,1.12,1.12,0,0,1,.4,1.08,3,3,0,0,1-1,1.52A11.71,11.71,0,0,1,159.56,341.66Zm.29-.62a4.84,4.84,0,0,0,2.39-2.31A.73.73,0,0,0,162,338a.25.25,0,0,0-.27-.08,1,1,0,0,0-.26.15A9.39,9.39,0,0,0,159.85,341Z"/><path class="cls-2" d="M159.5,341.7a.17.17,0,0,1-.21-.06c-.11-.09-1.66-2.05-1.41-3.37a1.25,1.25,0,0,1,.54-.81.73.73,0,0,1,.9-.09c.81.57.71,3.2.31,4.19l0,.1A.13.13,0,0,1,159.5,341.7Zm-.89-3.84a.86.86,0,0,0-.27.47c-.16.84.62,2.09,1,2.69.26-1.12.18-3-.3-3.29-.05,0-.15-.1-.39.07l-.08.06Z"/><path class="cls-2" d="M91.29,353.56a.21.21,0,0,1,.18-.17.18.18,0,0,1,.19.1c.19.34,1.73,3.4,1.18,4.45a.72.72,0,0,1-.61.34,1.19,1.19,0,0,1-1.06-.47,3,3,0,0,1-.34-1.82A11.84,11.84,0,0,1,91.29,353.56Zm.24.64a4.83,4.83,0,0,0,0,3.33.71.71,0,0,0,.72.31.23.23,0,0,0,.24-.13.74.74,0,0,0,.08-.29A9.33,9.33,0,0,0,91.53,354.2Z"/><polygon class="cls-7" points="107.52 330.94 95.67 339.62 89.97 343.8 93.69 350.28 99.47 347.12 113.58 339.41 107.52 330.94"/><path class="cls-6" d="M95.53,350.09,92,342.2a.86.86,0,0,0-1.16-.42l-3.85,1.89s-5.37,2.17-6,3.92c-2,5.09,5.49,22.75,7.82,22.75.85,0,1.36-1.32,1.48-2.16.37-2.67.44-9.4.78-11.62.4-2.61,3-4.61,4.25-5.41A.85.85,0,0,0,95.53,350.09Z"/><path class="cls-2" d="M91.3,353.49a.18.18,0,0,1,.19-.11c.14,0,2.63.25,3.4,1.36a1.27,1.27,0,0,1,.2.95.72.72,0,0,1-.57.7c-1,.18-2.78-1.73-3.21-2.71l0-.09A.18.18,0,0,1,91.3,353.49Zm3.37,2.05a.83.83,0,0,0-.15-.52c-.49-.7-1.93-1-2.65-1.14.62,1,2,2.2,2.56,2.09.06,0,.18,0,.23-.33v-.1Z"/><polygon class="cls-4" points="107.52 330.94 95.67 339.62 99.47 347.12 113.58 339.41 107.52 330.94"/><polygon class="cls-2" points="102.17 347.61 106.07 346.75 99.59 334.38 95.98 338.07 102.17 347.61"/><polygon class="cls-8" points="102.17 347.61 106.07 346.75 99.59 334.38 95.98 338.07 102.17 347.61"/><polygon class="cls-7" points="132.04 345.9 146.54 348.29 153.5 349.43 155.54 342.24 149.24 340.32 133.85 335.64 132.04 345.9"/><path class="cls-6" d="M154.12,341.06,151,349.14a.85.85,0,0,0,.51,1.11l4,1.44s5.3,2.31,7,1.57c5-2.15,12.42-19.84,10.79-21.51-.6-.61-1.89,0-2.58.46-2.17,1.6-7,6.26-8.85,7.58-2.14,1.53-5.41,1-6.83.74A.85.85,0,0,0,154.12,341.06Z"/><polygon class="cls-4" points="132.04 345.9 146.54 348.29 149.24 340.32 133.85 335.64 132.04 345.9"/><path class="cls-2" d="M146.74,338.82s-60.28-35.55-80.68-34.61S43.88,325.46,52.3,336.72s24,14,24,14-10.58-15-9-19.16,7.36,9.94,7.36,9.94,37.35,4.89,69.89,7.65Z"/><polygon class="cls-2" points="147.69 337.91 144.35 335.66 140.05 348.87 145.21 348.87 147.69 337.91"/><polygon class="cls-8" points="147.69 337.91 144.35 335.66 140.05 348.87 145.21 348.87 147.69 337.91"/><path class="cls-6" d="M101.77,309.87c-10.9-21-7.43-52.95,2-84.74-6.6-5.52-32.93-9.24-53-3.39,0,0-12.74,47.21-11.24,98.77Z"/><path class="cls-7" d="M78.62,230.29c-8.77,0-14.48-9.2-14.48-9.2,11.5-4,11.54-16.17,11.54-16.17l4.43,4.33,6.31,6.18c-5.25,3.72-2.77,6.94-1.1,8.37a7.68,7.68,0,0,0,1.1.82S87.39,230.29,78.62,230.29Z"/><path class="cls-4" d="M85.32,223.8c-10.76,1.21-10-14.9-10-14.9a27.39,27.39,0,0,1,4.82.35l6.31,6.18C81.17,219.15,83.65,222.37,85.32,223.8Z"/><path class="cls-6" d="M93.72,192.83c-4.07,1.69-3.29,6.14,3.47,14.24,4.16-3.58,6.41-11.74,4.23-14.36S97.27,191.37,93.72,192.83Z"/><path class="cls-7" d="M99.74,210.87v0a28.43,28.43,0,0,1-1.3,3.18c-4,8.19-15.58,9.78-20.7,1.68l-.06-.08c-3.38-5.45-2.11-10.54-.7-19.36a12.2,12.2,0,0,1,19-8.18C102.72,192.8,102.32,203.34,99.74,210.87Z"/><path class="cls-6" d="M89.43,201.62c-.16.7.09,1.36.55,1.46s1-.38,1.12-1.09-.09-1.36-.54-1.47S89.63,200.93,89.43,201.62Z"/><path class="cls-6" d="M97.47,203.43c-.16.71.09,1.37.55,1.47s1-.38,1.13-1.1-.09-1.36-.55-1.46S97.63,202.72,97.47,203.43Z"/><path class="cls-9" d="M94.77,203.18a25.81,25.81,0,0,0,2,6.81c-1.54.88-3.53-.13-3.53-.13Z"/><path class="cls-6" d="M87.8,198.59a.42.42,0,0,1-.26-.12.43.43,0,0,1,0-.6,4.18,4.18,0,0,1,3.77-1,.4.4,0,0,1,.29.5v0a.44.44,0,0,1-.53.28h0a3.38,3.38,0,0,0-3,.79A.48.48,0,0,1,87.8,198.59Z"/><path class="cls-6" d="M101.74,201.54a.43.43,0,0,1-.32-.32,3.41,3.41,0,0,0-1.92-2.41.42.42,0,1,1,.28-.8,4.22,4.22,0,0,1,2.46,3,.41.41,0,0,1-.31.51h0A.61.61,0,0,1,101.74,201.54Z"/><path class="cls-6" d="M82.17,189.39c3.75,2.3,2.27,6.57-5.69,13.49-3.55-4.2-4.48-12.62-1.9-14.84S78.88,187.38,82.17,189.39Z"/><path class="cls-7" d="M71.27,202.35a8.5,8.5,0,0,0,2.83,5.84c2.24,1.95,4.63.25,5.08-2.53.41-2.5-.28-6.54-3-7.43S71.12,199.59,71.27,202.35Z"/><path class="cls-10" d="M86.42,210s.92,3.17,5.18,3.91"/><path class="cls-10" d="M94.08,203.24a3,3,0,1,1-3-3A3,3,0,0,1,94.08,203.24Z"/><path class="cls-10" d="M102.25,204.91a3,3,0,1,1-3-3A3,3,0,0,1,102.25,204.91Z"/><path class="cls-10" d="M94.08,204.05a1.61,1.61,0,0,1,2.11.57"/><path class="cls-10" d="M88.08,202.62s-8.69-3.66-10.32-4"/><path class="cls-6" d="M74.5,188.15s-.9-7.06,6.31-8.23,16.64.64,19.56-.61a4.6,4.6,0,0,1-2.07,3.07s5.5,2,9.83.28c0,0-1.88,5.21-4.31,7.21h2.07s-4.1,3.91-9.09,4-9.69-6.8-14.63-4.48S74.5,188.15,74.5,188.15Z"/><path class="cls-11" d="M99.74,210.87v0a28.43,28.43,0,0,1-1.3,3.18c-4,8.19-15.58,9.78-20.7,1.68l-.06-.08c-2.64-4.69-.53-9.81-.53-9.81l1.54-5,1.12-1.11s.26,5.07,1,6.5,5.29,1.85,6.21,2.1,3.1,2.85,4.18,3.55,5,.12,5.51.7S99.74,210.87,99.74,210.87Z"/><path class="cls-4" d="M54.78,291.37l20.73,23s22.93-.51,50.77,13.09c0,0,29.87-12.33,32.61-22.58s-62.7-3-62.7-3Z"/><path class="cls-7" d="M60.64,284.62l33.25,10.87s11.87-2.62,14-2.62,10.33,6.67,5.69,9-17.32,2.62-18.69,1.87-38.25-9.38-38.25-9.38Z"/><path class="cls-6" d="M50.78,221.74c7.52-1.46-5.53,44.38-2.34,51.13s15.7,11,15.7,11l-5.75,12.69s-17-3.2-26.25-14.95S38.5,224.12,50.78,221.74Z"/><path class="cls-4" d="M50.78,221.74c7.52-1.46-5.53,44.38-2.34,51.13s15.7,11,15.7,11l-5.75,12.69s-17-3.2-26.25-14.95S38.5,224.12,50.78,221.74Z"/><polygon class="cls-6" points="64.14 282.87 57.14 296.57 63.14 297.87 68.64 285.24 64.14 282.87"/><polygon class="cls-12" points="64.14 282.87 57.14 296.57 63.14 297.87 68.64 285.24 64.14 282.87"/><path class="cls-6" d="M77.89,301.87v2.18a2.83,2.83,0,0,0,2.7,2.82H161a3,3,0,0,0,2.91-2.82v-2.18Z"/><path class="cls-12" d="M77.89,301.87v2.18a2.83,2.83,0,0,0,2.7,2.82H161a3,3,0,0,0,2.91-2.82v-2.18Z"/><path class="cls-12" d="M107.89,301.87v2.18a2.84,2.84,0,0,0,2.71,2.82H161a3,3,0,0,0,2.91-2.82v-2.18Z"/><path class="cls-6" d="M110.6,304.87h53.11a4.33,4.33,0,0,0,3.86-2.85l12.18-38.21a2.11,2.11,0,0,0-2-2.94H124.6a4.42,4.42,0,0,0-3.86,2.94L108.56,302A2.08,2.08,0,0,0,110.6,304.87Z"/><path class="cls-12" d="M110.6,304.87h53.11a4.33,4.33,0,0,0,3.86-2.85l12.18-38.21a2.11,2.11,0,0,0-2-2.94H124.6a4.42,4.42,0,0,0-3.86,2.94L108.56,302A2.08,2.08,0,0,0,110.6,304.87Z"/><path class="cls-12" d="M112.6,304.87h51.11a4.33,4.33,0,0,0,3.86-2.85l12.18-38.21a2.11,2.11,0,0,0-2-2.94H126.6a4.42,4.42,0,0,0-3.86,2.94L110.56,302A2.08,2.08,0,0,0,112.6,304.87Z"/><polygon class="cls-12" points="149.21 278.68 141.86 283.88 145.04 289.09 152.39 283.88 149.21 278.68"/></g></g><g id="Tab5"><rect class="cls-4" x="99.01" y="31.56" width="84.73" height="84.73" rx="8.74"/><rect class="cls-13" x="122.77" y="22.26" width="71" height="71" rx="7.33"/><rect class="cls-14" x="122.77" y="22.26" width="71" height="71" rx="7.33"/><path class="cls-15" d="M163.74,49.57V45.28l-2.21-.21a11.53,11.53,0,0,0-1.65-4l1.42-1.71-3-3-1.71,1.42a11.53,11.53,0,0,0-4-1.65l-.21-2.21h-4.29l-.21,2.21a11.53,11.53,0,0,0-4,1.65l-1.71-1.42-3,3,1.42,1.71a11.53,11.53,0,0,0-1.65,4l-2.21.21v4.29l2.21.21a11.4,11.4,0,0,0,1.65,4l-1.42,1.72,3,3,1.71-1.42a11.53,11.53,0,0,0,4,1.65l.21,2.21h4.29l.21-2.21a11.53,11.53,0,0,0,4-1.65l1.71,1.42,3-3-1.42-1.72a11.4,11.4,0,0,0,1.65-4Zm-13.52,3.67A5.82,5.82,0,1,1,156,47.42,5.82,5.82,0,0,1,150.22,53.24Z"/><path class="cls-15" d="M181.14,61.69V58.33l-1.73-.17a9,9,0,0,0-1.29-3.11l1.11-1.34-2.38-2.38-1.34,1.11a9.11,9.11,0,0,0-3.11-1.29l-.16-1.73h-3.37l-.16,1.73a9.11,9.11,0,0,0-3.11,1.29l-1.34-1.11-2.38,2.38L163,55.05a9,9,0,0,0-1.29,3.11l-1.74.17v3.36l1.74.16A8.92,8.92,0,0,0,163,65l-1.11,1.35,2.38,2.38,1.34-1.12a9.13,9.13,0,0,0,3.11,1.3l.16,1.73h3.37l.16-1.73a9.13,9.13,0,0,0,3.11-1.3l1.34,1.12,2.38-2.38L178.12,65a8.92,8.92,0,0,0,1.29-3.11Zm-10.59,2.87A4.56,4.56,0,1,1,175.11,60,4.55,4.55,0,0,1,170.55,64.56Z"/><path class="cls-15" d="M163.74,71.24V68.42l-1.46-.14a7.44,7.44,0,0,0-1.08-2.61l.93-1.13-2-2-1.12.94a7.59,7.59,0,0,0-2.62-1.09l-.13-1.45h-2.83l-.14,1.45a7.62,7.62,0,0,0-2.61,1.09l-1.13-.94-2,2,.93,1.13a7.65,7.65,0,0,0-1.09,2.61l-1.45.14v2.82l1.45.14A7.65,7.65,0,0,0,148.49,74l-.93,1.13,2,2,1.13-.93a7.8,7.8,0,0,0,2.61,1.08l.14,1.46h2.83l.13-1.46A7.77,7.77,0,0,0,159,76.19l1.12.93,2-2L161.2,74a7.44,7.44,0,0,0,1.08-2.61Zm-8.9,2.42a3.83,3.83,0,1,1,3.83-3.83A3.83,3.83,0,0,1,154.84,73.66Z"/><rect class="cls-12" x="125.77" y="22.26" width="71" height="71" rx="7.33"/></g><g id="Tab4"><rect class="cls-4" x="237.89" y="113.81" width="78.33" height="78.33" rx="8.08"/><rect class="cls-13" x="257.56" y="109.62" width="65.63" height="65.63" rx="6.77"/><rect class="cls-12" x="257.56" y="109.62" width="65.63" height="65.63" rx="6.77"/><path class="cls-15" d="M292.88,153a2.37,2.37,0,1,1-2.37-2.36A2.37,2.37,0,0,1,292.88,153Z"/><path class="cls-15" d="M290.32,129.33a23.54,23.54,0,0,0-23.54,23.54h18.8a4.44,4.44,0,0,1,4.74-4.65,4.77,4.77,0,0,1,1.41.28l8.81-10.23-6.22,12.1a4.46,4.46,0,0,1,.73,2.5h18.8A23.54,23.54,0,0,0,290.32,129.33Z"/><rect class="cls-12" x="260.34" y="109.62" width="65.63" height="65.63" rx="6.77"/></g><g id="Tab3"><rect class="cls-4" x="295.59" y="51.2" width="68.73" height="68.73" rx="7.09"/><rect class="cls-13" x="314.02" y="45.14" width="57.59" height="57.59" rx="5.94"/><rect class="cls-3" x="314.02" y="45.14" width="57.59" height="57.59" rx="5.94"/><path class="cls-15" d="M358.89,59.76A1.89,1.89,0,0,0,357,57.87H328.78a1.89,1.89,0,0,0-1.89,1.89V66a1.9,1.9,0,0,0,1.89,1.9H357a1.9,1.9,0,0,0,1.89-1.9Zm-9.32,3.36H348V61.5h1.62Zm4.33.81a1.62,1.62,0,1,1,1.62-1.62A1.61,1.61,0,0,1,353.9,63.93Z"/><path class="cls-15" d="M358.89,70.76A1.89,1.89,0,0,0,357,68.87H328.78a1.89,1.89,0,0,0-1.89,1.89V77a1.9,1.9,0,0,0,1.89,1.9H357a1.9,1.9,0,0,0,1.89-1.9Zm-9.32,4H348V73.13h1.62Zm4.33.81a1.62,1.62,0,1,1,1.62-1.62A1.62,1.62,0,0,1,353.9,75.56Z"/><path class="cls-15" d="M358.89,81.76A1.89,1.89,0,0,0,357,79.87H328.78a1.89,1.89,0,0,0-1.89,1.89V88a1.9,1.9,0,0,0,1.89,1.9H357a1.9,1.9,0,0,0,1.89-1.9Zm-9.32,4.61H348V84.75h1.62Zm4.33.82a1.63,1.63,0,1,1,1.62-1.63A1.62,1.62,0,0,1,353.9,87.19Z"/><rect class="cls-12" x="316.46" y="45.14" width="57.59" height="57.59" rx="5.94"/></g><g id="Tab2"><rect class="cls-4" x="143.5" y="114.43" width="84.73" height="84.73" rx="8.74"/><rect class="cls-13" x="163.38" y="108.43" width="71" height="71" rx="7.33"/><rect class="cls-16" x="163.38" y="108.43" width="71" height="71" rx="7.33"/><path class="cls-15" d="M179.24,163.43h0a5.55,5.55,0,0,1,0-7.85l12.95-13a3.13,3.13,0,0,1,4.42,0l3.42,3.42a3.12,3.12,0,0,1,0,4.43l-12.95,13A5.55,5.55,0,0,1,179.24,163.43Z"/><polygon class="cls-15" points="203.09 142.11 200.55 139.57 215.18 124.94 218.36 124.3 217.73 127.48 203.09 142.11"/><path class="cls-15" d="M201.66,145.51l-4.5-4.51a1,1,0,0,1,0-1.46h0a1,1,0,0,1,1.45,0l4.51,4.51a1,1,0,0,1,0,1.46h0A1,1,0,0,1,201.66,145.51Z"/><path class="cls-15" d="M195.6,136.88l-6.18-6.19c1.16-3.09-1.17-6.89-3.7-7.9l-.05,4.77a2,2,0,0,1-2,2,2,2,0,0,1-2-2v-4.72a6.55,6.55,0,0,0-4.1,5.75,6.12,6.12,0,0,0,5.33,6,5.38,5.38,0,0,0,3-.42l6.22,6.23Z"/><path class="cls-15" d="M216.14,160.35v4.72a6.57,6.57,0,0,0,4.1-5.75,6.14,6.14,0,0,0-5.2-6.1,4.81,4.81,0,0,0-2.85.29L205.72,147l-3.54,3.53L208.6,157c-1.86,3.79,1,7,3.57,8l0-4.69a2,2,0,1,1,4,0Z"/><rect class="cls-12" x="166.38" y="108.43" width="71" height="71" rx="7.33"/></g><g id="Tab1"><rect class="cls-13" x="213.3" width="85.58" height="85.58" rx="8.83" transform="translate(512.18 85.58) rotate(180)"/><rect class="cls-4" x="193.55" y="13.6" width="102.14" height="102.14" rx="10.54"/><rect class="cls-16" x="213.3" width="85.58" height="85.58" rx="8.83" transform="translate(512.18 85.58) rotate(180)"/><path class="cls-15" d="M256.07,16.27,229.86,26.56s3.31,36,26.21,42.75c22.9-6.75,26.22-42.75,26.22-42.75Zm-.67,34.86a1.82,1.82,0,0,1-1.44.74h0a1.8,1.8,0,0,1-1.44-.77l-9.19-12.66a1.81,1.81,0,0,1,2.93-2.13L254,47l12.7-16.74a1.8,1.8,0,0,1,2.53-.35,2,2,0,0,1,.35,2.64Z"/><rect class="cls-12" x="216.92" width="85.58" height="85.58" rx="8.83" transform="translate(519.42 85.58) rotate(180)"/></g><g id="Promt2"><rect class="cls-2" x="291.69" y="222.79" width="85.25" height="57.53"/><rect class="cls-5" x="291.69" y="222.79" width="85.25" height="57.53"/><rect class="cls-6" x="293.28" y="227.23" width="81.87" height="51.18"/><rect class="cls-17" x="297.03" y="235.16" width="67.31" height="1.5"/><rect class="cls-17" x="297.03" y="239.41" width="57.3" height="1.5"/><rect class="cls-17" x="297.03" y="243.66" width="67.31" height="1.5"/><rect class="cls-17" x="297.03" y="247.91" width="57.3" height="1.5"/><rect class="cls-17" x="297.03" y="252.16" width="7.27" height="1.5"/><rect class="cls-17" x="297.03" y="256.41" width="37.29" height="1.5"/><rect class="cls-17" x="297.03" y="260.66" width="57.3" height="1.5"/><rect class="cls-17" x="297.03" y="264.91" width="7.27" height="1.5"/><rect class="cls-17" x="297.03" y="269.16" width="7.27" height="1.5"/></g><g id="Promt1"><rect class="cls-2" x="45.87" y="103.1" width="85.25" height="57.53"/><rect class="cls-5" x="45.87" y="103.1" width="85.25" height="57.53"/><rect class="cls-6" x="47.45" y="107.54" width="81.87" height="51.18"/><rect class="cls-17" x="51.2" y="115.46" width="67.31" height="1.5"/><rect class="cls-17" x="51.2" y="119.71" width="57.3" height="1.5"/><rect class="cls-17" x="51.2" y="123.96" width="67.31" height="1.5"/><rect class="cls-17" x="51.2" y="128.21" width="57.3" height="1.5"/><rect class="cls-17" x="51.2" y="132.46" width="7.27" height="1.5"/><rect class="cls-17" x="51.2" y="136.71" width="37.29" height="1.5"/><rect class="cls-17" x="51.2" y="140.96" width="57.3" height="1.5"/><rect class="cls-17" x="51.2" y="145.21" width="7.27" height="1.5"/><rect class="cls-17" x="51.2" y="149.46" width="7.27" height="1.5"/></g></g></svg>