<?xml version="1.0" encoding="utf-8"?>
<!-- Generator: Adobe Illustrator 24.1.0, SVG Export Plug-In . SVG Version: 6.00 Build 0)  -->
<svg version="1.1" id="Capa_1" xmlns="http://www.w3.org/2000/svg" xmlns:xlink="http://www.w3.org/1999/xlink" x="0px" y="0px"
	 viewBox="0 0 131 125" style="enable-background:new 0 0 131 125;" xml:space="preserve">
<style type="text/css">
	.st0{fill:#333333;}
</style>
<path class="st0" d="M75.6,125c-4.3-3.6-8.7-7.3-13.3-11.2c1.7-1.8,3-3.2,4.3-4.7c6.3-7.6,2.9-18.8-6.6-21.2
	c-2.7-0.7-3.8-1.6-4.4-4.3c-1.4-5.8-4.5-8.1-12.7-10.4c-2.6-10.1-6.1-12.8-16.5-13C20.8,49.4,17,47.7,4.5,51
	C-1.5,23.4,21.2-2.2,50.5,1.6c-1.1,0.6-2.3,1.1-3.2,1.9c-4.7,3.5-9.5,6.9-14,10.7c-7,6-7.9,15.8-2.5,23.1c5.2,6.9,15,8.8,22.6,4.3
	c0.6-0.3,1.2-0.6,1.7-1.1c10.8-12.5,25.5-8.1,39-8.6c1.1,0,2.4,1,3.3,1.9c10.2,10,20.3,20,30.4,30.1c1.4,1.4,2.2,3.3,3.3,4.9
	c0,1.7,0,3.4,0,5c-6.2,9.1-11.7,9.5-19.8,1.5c-1.5-1.5-2.9-3.5-4.7-4.5c-1.6-0.8-3.7-0.4-5.6-0.6c0.2,1.8-0.1,4,0.8,5.2
	c2.4,3,5.4,5.5,8,8.3c3,3.1,3.3,6.7,0.5,9.9c-2.9,3.2-6.3,2.9-9.9,0.5c-1.6-1-4.7-2-5.9-1.2c-2.7,2-0.8,4.2,0.9,6.3
	c3.7,4.4,2.1,10.3-3,10.7c-2.2,0.2-4.4-1.6-6.7-2.2c-1.8-0.5-3.8-0.4-5.7-0.6c0.2,1.8-0.3,4,0.6,5.3c4.3,6.2,3.7,8.8-3,12.6
	C76.9,125,76.2,125,75.6,125z"/>
<path class="st0" d="M123.2,45.9c-7.2-7.7-13.5-14.7-20.2-21.2c-1.9-1.9-5.2-3.1-7.9-3.2C86.1,21,77,21,68,21.4
	c-3.1,0.1-6.4,1.5-9.1,3.1c-3.6,2.1-6.7,5-10.1,7.4c-3.4,2.4-6.8,2.3-9.4-1c-2.5-3.3-2-6.8,1.3-9.3C49.6,14.7,58.6,8,67.5,1.2
	c0.5-0.4,1.2-0.9,1.7-0.9c12.6,0.4,25.5-2.5,37.4,4.3C120.6,12.7,128.4,30,123.2,45.9z"/>
<path class="st0" d="M30,94.8c0.2-5.1,8.9-14.2,12.5-13.8c2,0.2,4.7,1.7,5.5,3.4c0.8,1.7,0.4,4.8-0.7,6.4c-1.9,2.9-4.6,5.5-7.4,7.4
	c-1.6,1.1-4.6,1.4-6.4,0.7C31.7,98.1,30.7,95.7,30,94.8z"/>
<path class="st0" d="M35.2,72.3c-0.2,5-8.9,13.9-12.7,13.5c-1.9-0.2-4.5-1.3-5.3-2.8c-0.9-1.7-0.9-4.9,0.2-6.4
	c2.2-3.1,5-5.9,8.1-8.1c1.6-1.1,4.6-1,6.5-0.2C33.7,69,34.6,71.4,35.2,72.3z"/>
<path class="st0" d="M4.7,75.2c-0.9-0.7-3.3-1.5-4.1-3.1c-0.8-1.7-0.9-4.7,0.1-6.1c2.3-3.2,5.2-6.2,8.5-8.4c1.5-1.1,4.7-1,6.4-0.1
	c1.5,0.8,2.7,3.4,2.8,5.3C18.7,66.4,9.5,75.1,4.7,75.2z"/>
<path class="st0" d="M48.8,113.3c-0.9-0.6-3.4-1.4-4.1-3c-0.8-1.8-0.8-4.9,0.2-6.4c2.2-3.1,5-5.9,8.2-8c1.6-1.1,4.7-1.1,6.4-0.2
	c1.5,0.7,2.7,3.4,2.9,5.2C62.7,104.5,53.8,113.1,48.8,113.3z"/>
</svg>
