<?xml version="1.0" encoding="utf-8"?>
<!-- Generator: Adobe Illustrator 24.1.0, SVG Export Plug-In . SVG Version: 6.00 Build 0)  -->
<svg version="1.1" id="Layer_1" xmlns="http://www.w3.org/2000/svg" xmlns:xlink="http://www.w3.org/1999/xlink" x="0px" y="0px"
	 viewBox="0 0 128 128" style="enable-background:new 0 0 128 128;" xml:space="preserve">
<style type="text/css">
	.st0{fill:#333333;}
</style>
<g>
	<path class="st0" d="M59.3,2.7c8.1,0,14.6,6.5,14.6,14.6s-6.5,14.6-14.6,14.6s-14.6-6.5-14.6-14.6l0,0C44.6,9.2,51.2,2.7,59.3,2.7
		C59.2,2.7,59.2,2.7,59.3,2.7z"/>
	<path class="st0" d="M49.7,45c-4.2,0.7-7.2,4.3-7.2,8.6l0,0c0,4.8,3.9,8.7,8.7,8.7c0,0,0,0,0,0h0.9v48.2h-4.7
		c-4.1,0-7.4,3.3-7.4,7.4l0,0c0,4.1,3.3,7.4,7.4,7.4h33.2c4.1,0,7.4-3.3,7.4-7.4l0,0c0-4.1-3.3-7.4-7.4-7.4H76V49
		c0-4.1-3.4-7.5-7.5-7.5c-0.5,0-1,0-1.5,0.1C59.5,43.1,50,45,49.7,45z"/>
</g>
</svg>
