<?xml version="1.0" encoding="utf-8"?>
<!-- Generator: Adobe Illustrator 24.1.0, SVG Export Plug-In . SVG Version: 6.00 Build 0)  -->
<svg version="1.1" id="Layer_1" xmlns="http://www.w3.org/2000/svg" xmlns:xlink="http://www.w3.org/1999/xlink" x="0px" y="0px"
	 viewBox="0 0 128 128" style="enable-background:new 0 0 128 128;" xml:space="preserve">
<style type="text/css">
	.st0{fill:#333333;}
</style>
<path class="st0" d="M70.6,4.2C43.9,4.3,21.2,23.6,17,49.9c-0.4,2.8-13.8,73.9-13.8,73.9L43,105.1c25.8,15.2,59,6.7,74.3-19.1
	c15.2-25.8,6.7-59-19.1-74.3C89.8,6.8,80.3,4.2,70.6,4.2z M68,28c4,0,7.3,3.3,7.3,7.3c0,4-3.3,7.3-7.3,7.3c-4,0-7.3-3.3-7.3-7.3
	C60.7,31.3,63.9,28,68,28C68,28,68,28,68,28z M78.6,89H62.1c-2,0-3.7-1.7-3.7-3.7c0-2,1.7-3.7,3.7-3.7h2.3V57.6H64
	c-2.4,0-4.3-1.9-4.3-4.3c0-2.1,1.5-3.9,3.6-4.3c0.2,0,4.9-1,8.6-1.7c2-0.4,4,0.9,4.4,2.9c0,0.2,0.1,0.5,0.1,0.7v30.5h2.3
	c2,0,3.7,1.7,3.7,3.7C82.3,87.3,80.6,89,78.6,89L78.6,89z"/>
</svg>
