<?xml version="1.0" encoding="utf-8"?>
<!-- Generator: Adobe Illustrator 24.1.0, SVG Export Plug-In . SVG Version: 6.00 Build 0)  -->
<svg version="1.1" id="Capa_1" xmlns="http://www.w3.org/2000/svg" xmlns:xlink="http://www.w3.org/1999/xlink" x="0px" y="0px"
	 viewBox="0 0 21 20" style="enable-background:new 0 0 21 20;" xml:space="preserve">
<style type="text/css">
	.st0{fill-rule:evenodd;clip-rule:evenodd;fill:#333333;}
</style>
<desc>Created with Sketch.</desc>
<g id="Page-1">
	<g id="Dribbble-Light-Preview" transform="translate(-219.000000, -760.000000)">
		<g id="icons" transform="translate(56.000000, 160.000000)">
			<path id="like-_x5B__x23_1386_x5D_" class="st0" d="M163,610v8c0,1.1,0.9,2,2.1,2h2.1v-12h-2.1C163.9,608,163,608.9,163,610
				 M183.9,611.4l-1.8,6.5c-0.3,1.2-1.5,2.1-2.8,2.1h-10v-12l1.8-6.2c0.2-1.3,1.6-2.2,3.1-1.7c0.9,0.3,1.4,1.2,1.4,2.1v4.8
				c0,0.6,0.5,1,1.1,1h4.5C183,608,184.3,609.6,183.9,611.4"/>
		</g>
	</g>
</g>
</svg>
