<svg xmlns="http://www.w3.org/2000/svg" viewBox="0 0 251.92 11.89"><defs><style>.cls-1{fill:#fc3;}</style></defs><g id="Capa_2" data-name="Capa 2"><g id="OBJECTS"><path class="cls-1" d="M228.32.48c.15.11.41,0,.57-.2l0,0c.22.27.4-.11.48,0,.28.24.47.22.78,0,.08-.05.46.25.73.3l.2,0a2,2,0,0,1,.82-.1c.2,0,1,.18,1.39.26l.28-.24a.31.31,0,0,1,.19,0,3.68,3.68,0,0,0,1,.33h.27c.27-.18.45,0,.42.3L236,.73l.44-.34a2.37,2.37,0,0,0,1.31.12c.29-.09,1.16.35,1.47.33a12.8,12.8,0,0,1,1.67.36l0-.38s.19-.09.22-.07l.4.27a1.94,1.94,0,0,1,1.22.11c.18.14.81-.16,1-.09a1.85,1.85,0,0,0,1,.07,10,10,0,0,1,2-.05l.57.24c.18.07.54-.16.82-.19l.21,0a1,1,0,0,0,.63,0h0l.52.41c.62-.22,1.2-.17,1.29.1s.59.93.71.91.46,0,.49.07a.66.66,0,0,1-.33.47c-.21.11-.23,1-.56,1.44l.11.57,0,.13c0,.21-.09.32-.17.26a.3.3,0,0,0-.39.08h0c.57.23-.1.61.17.87a.14.14,0,0,1,0,.15l-.43.38c0,.29-.48.61-1,.71l-.49-.37-.08-.06a3.9,3.9,0,0,1-1.13.25c-.31,0-1.35-.07-1.64,0h-.52c-.28-.05-.61-.09-.73-.1a3.62,3.62,0,0,0-.73,0,17.46,17.46,0,0,1-1.85.07c-.72,0-3,0-3.37-.07a9,9,0,0,0-1.61.3h-.09l-.55,0a4.64,4.64,0,0,0-1.55,0c-.27.07-1.15-.15-1.38-.12a6.1,6.1,0,0,1-1.29,0c-.27-.06-1.59.08-2.23.1h-2.34c-.36,0-.93.11-1,0-.27-.32-.62.13-.82-.15,0-.06-.25-.06-.37,0-.28,0-.68.22-.79.14l-.39-.29a1.12,1.12,0,0,1-.89.23c-.19-.07-.63-.12-.86-.19s-1,.2-1.15.1-.92.25-1.14.3a13.64,13.64,0,0,1-1.49-.38l-.44.27-.32.19a9,9,0,0,1-1.37-.27c-.13-.06-.73-.13-1-.19a9.12,9.12,0,0,0-2.11.64l-.39-.54a.5.5,0,0,0-.38,0c-.43.34-.93-.23-1.37.09a1.08,1.08,0,0,1-.6.12c-.38,0-.74-.19-1.11-.2h-.32a3.12,3.12,0,0,1-1,.13,6.39,6.39,0,0,1-1.09-.11c-.17-.08-.84.22-1.06.3s-.81-.26-1-.18a5.49,5.49,0,0,1-1.55,0h-.35c-.34,0-.69.1-1,.1h-.63a23.21,23.21,0,0,0-2.49-.13l-.57.16-.5.14a10.58,10.58,0,0,0-2-.15h-5.41c-.54,0-1.08,0-1.62,0h-.34l-.79.17a8,8,0,0,1-1-.12c-.41-.07-2.7.1-2.87.05a5.12,5.12,0,0,0-.78-.06c-.17,0-1,.15-1.44.17h-7c-.44,0-1.76,0-2.94.07a46.79,46.79,0,0,0-5.06.44l-.13-.1-.34-.25a1.14,1.14,0,0,1-1,0l-.41.26c-.23.14-.7,0-1.06,0h-.59a8.8,8.8,0,0,0-1.66.1A3.78,3.78,0,0,1,160,8.12l-.21.26-.3.38a1.45,1.45,0,0,0-1-.3,16.41,16.41,0,0,1-1.66.09,16.76,16.76,0,0,1-1.72.07l-.43,0-.45,0a8.64,8.64,0,0,0-1.38.15,11.58,11.58,0,0,0-1.43.27L151,8.83a5,5,0,0,0-1.34,0h-.46a4.35,4.35,0,0,0-1.36.2h-.47a10.91,10.91,0,0,0-2.41-.14,19.5,19.5,0,0,0-4.22.55l-.32-.32c-.07-.08-.51.11-.78.14l-.27,0a2.37,2.37,0,0,1-1-.3c-.26-.16-1.19.27-1.49.27h-1.62a12.83,12.83,0,0,0-1.7.14h-.31c-.29,0-.59-.14-.87-.12l-.56,0c-.61,0-1.55,0-2.08,0s-2.12.23-2.45.17l-.3,0-.44,0a4.64,4.64,0,0,1-1.3,0,9.91,9.91,0,0,0-1.38.32c-.32,0-1.5,0-1.88,0s-2,0-2.75.06-3.46.13-4.26.14-3,0-3.18.12a4.13,4.13,0,0,1-1.11-.16c-.22,0-1,.27-1.38.29s-1.9,0-2.52,0-2.74,0-3.34.06-3.15.12-4.35.12H96.84c-1.24,0-2.52,0-2.85,0l-.24.2c-.23.19-.43-.42-.76,0l-.06.08a2.18,2.18,0,0,0-.93.06c-.23.08-1.07-.21-1.57-.1h-4c-3.86,0-7.43-.07-7.93-.17l-.37.34-.06,0-.81-.11a4.12,4.12,0,0,0-1.2,0c-.1.08-.53-.09-.65-.05a3.48,3.48,0,0,1-1,.06l-.25,0L73,10.77H72.7a1,1,0,0,1-.64-.16c-.06-.09-.61.09-.87.1l-.24,0c-.12,0-.27-.14-.34-.11l-.92.41c-1.07-.12-2.84-.21-3.93-.2H62.29a13.46,13.46,0,0,1-1.72-.06,8.37,8.37,0,0,0-1.88.56l-.32-.46a.46.46,0,0,0-.37,0l-.45.25A6.8,6.8,0,0,0,55.69,11l-.47,0c-.54,0-1.08,0-1.62,0H46.88a14.87,14.87,0,0,1-1.74-.1c-.41-.06-1.58.25-1.73.2A15,15,0,0,0,41.7,11c-.63,0-2.48.24-2.71.23a4.14,4.14,0,0,1-1.09-.12c-.16-.1-.9.15-1.12.18a10.22,10.22,0,0,0-1.18-.12c-.28.07-1.23.12-1.48.15s-1.11-.19-1.3-.15a13.3,13.3,0,0,1-1.62.08c-.5,0-2.52,0-3.39-.13l-.74.36-.14.06a9.53,9.53,0,0,0-1.18,0l-.28-.14L25,11.09a2.15,2.15,0,0,1-1.15.24l-.33.09-.36.11a5.56,5.56,0,0,0-1.21,0c-.2,0-1.65-.29-2.88-.36l-1,.49-.36.17a8.2,8.2,0,0,0-1.25-.14c-.27,0-1.21,0-1.47,0s-.9-.1-1-.07a7.43,7.43,0,0,1-1.08,0c-.35,0-1.5,0-1.78-.06a12.52,12.52,0,0,1-1.38,0c-.25-.07-.8.24-.87.18s-.4-.21-.49-.13a2.65,2.65,0,0,1-.94.24h-2c-.13-.18-.27-.32-.32-.32a.27.27,0,0,0-.21.17c0,.1-.71.1-1.19,0H2.91c-.39,0-.65,0-.58-.06s.22-.2.1-.33a1.24,1.24,0,0,1-.12-.78c0-.16.09-.65-.08-.65s-.52.05-.49.12.05.23,0,.26a.94.94,0,0,1-.48-.22c-.14-.11-.85-.35-1-.48S-.15,9,.12,8.9s.6.64.78.78h.23c.08,0,.19-.12.23-.2l0,0a.2.2,0,0,0-.22-.1c-.07,0-.3,0-.3-.08a.8.8,0,0,1,.51-.5c.28-.06,1.07-.36,1.07-.5s.1-.54.22-.4.6.4.79.21l.06-.17c.09-.22.15-.17.33-.07L4,7.91l1.19,0a3.6,3.6,0,0,0,1.44-.4c-.1,0,.24-.29,1-.47l.79.29a1.89,1.89,0,0,0,.48.13H9c.2,0,.26-.21.15-.34s-.32-.51-.18-.55h.12c.13,0,.31.16.38.13l.45-.22A2.16,2.16,0,0,0,10.6,7c.11,0,.55,0,.44-.1s0-.33.23-.5a3,3,0,0,1,1.2-.19c.15,0,.78,0,1,0a10.9,10.9,0,0,1,1.22.06c.31.09.94-.48,1.11-.46s.48.34.51.38.16.09.21,0V5.57A8.87,8.87,0,0,1,18.09,6l.42-.2.39-.18a7.14,7.14,0,0,0,1.35-.26c.21-.08.74.28.84.24l0,0,.06-.1a1.68,1.68,0,0,1,.7.06h.62l1-.2c.16,0,.86-.06,1.16-.09a10.29,10.29,0,0,1,1.67,0A13.59,13.59,0,0,0,28,4.85a11,11,0,0,0,1.37,0c.14-.09.72.09.86,0s.63.09.72,0,.41-.2.52-.12a1.27,1.27,0,0,0,.69.19,5.38,5.38,0,0,1,1.18-.07c.28,0,1.13-.07,1.34-.05a4.3,4.3,0,0,0,1-.12c.15-.06.79-.14,1.08-.19a4.38,4.38,0,0,1,1.34.39c.19.06.41-.41.51-.45l0,0,.42.19L40,4.4h0c.23.06.5.23.69.19l.23,0a1,1,0,0,0,.58-.06,2.05,2.05,0,0,1,1,.08l.24,0,.16,0a7.88,7.88,0,0,1,.83-.1,4.24,4.24,0,0,1,1.54.17l.4-.29c.23-.17.7.11,1-.17,0,0,.24.11.38.14l.6.14a5.17,5.17,0,0,0,1.47-.32c.15-.1.7.08.82,0s.6.18.67.21.44.05.71.1A12.61,12.61,0,0,0,53,4.26l.36.29,0,0a.62.62,0,0,0,.49-.17,1.48,1.48,0,0,1,.65-.23,9.56,9.56,0,0,1,1.73.14L56.73,4c.11-.09.47,0,.65,0l.42-.16a4.6,4.6,0,0,0,.93.34,6.29,6.29,0,0,1,.89,0l.18.09c.24.1.35-.42.64-.08,0,0,.34-.13.52-.14h.25l.67.17c.1,0,.69,0,1,0s1.3-.33,1.4-.29a6.17,6.17,0,0,1,.84.45l.25-.34.38-.52a12,12,0,0,0,1.58.51A5.67,5.67,0,0,0,69,3.65a11.31,11.31,0,0,1,1.15-.15l.16.09.17.1a.46.46,0,0,0,.63,0l.16-.12,0,0a.54.54,0,0,1,.39.09c.12.08.55.23.67.14a4.32,4.32,0,0,1,1.35,0c.21,0,.68,0,.88.06a6.87,6.87,0,0,0,.8,0,3.16,3.16,0,0,0,1-.16,6.43,6.43,0,0,1,1.51.26l.27-.32s.17,0,.26,0l.55.07a3.67,3.67,0,0,0,1.6-.11c.28-.13,1.33.23,1.69.22l.28-.06.27-.06a7.63,7.63,0,0,0,1.07-.13A3.86,3.86,0,0,1,85,3.76l.07,0,.79-.29c.92,0,1.86.07,2.09.06a4,4,0,0,1,1.45.28l.31-.46.14-.2a2.43,2.43,0,0,1,.89.39c.11.11.69-.18.85-.22a4.52,4.52,0,0,1,.8.22l.08,0,.37-.28A5.31,5.31,0,0,0,94,3.56a3.58,3.58,0,0,0,1.17-.21c.18-.08.81.08.9.06a2,2,0,0,0,.54-.28c.1-.09.5.06.6,0l.3.12.34.14c.5-.08,1.17-.2,1.49-.27s1.17.12,1.31.09a3.86,3.86,0,0,1,1,.11l.24,0H102c.14-.14.28-.14.32,0s.29.45.49.35l1-.46a7.35,7.35,0,0,1,1.49,0,7.41,7.41,0,0,0,1.09-.26,6.27,6.27,0,0,1,1.31.09,15.62,15.62,0,0,0,1.86,0l.35-.18.31-.16.53.37a4.55,4.55,0,0,0,1.37-.18,8,8,0,0,1,1.94,0,4.06,4.06,0,0,0,1.11,0,10.7,10.7,0,0,1,1.39-.08,4.28,4.28,0,0,0,1.11-.22c.14-.06.54.17.59.18h0a2.93,2.93,0,0,1,.7-.2c.21,0,.45.13.65.1l.31,0c.34,0,.81-.09,1-.13s.74.18.79.08l.07-.07,0,0a2.91,2.91,0,0,1,.79.07c.35.06,1.87-.11,2.12-.06l.21.09.26.1a1.24,1.24,0,0,1,.83-.07l.17,0,.31-.09a1.33,1.33,0,0,1,.87-.22,2.93,2.93,0,0,0,1.06,0,6.73,6.73,0,0,1,.85-.08,3,3,0,0,1,.85.1c.16,0,.63,0,.7,0a1,1,0,0,0,.73.12c.28-.08,1.92,0,2.48-.06a11.7,11.7,0,0,0,1.83-.35l.28.06.54.12,1.61,0,.25-.09.31-.11a5.72,5.72,0,0,1,1.12.07c.2,0,.91-.05,1.08,0l.17,0,.15,0a6.76,6.76,0,0,0,1.24-.06l.46-.07.4-.05.87-.1.54.1c.24,0,1,.08,1.22.14s.7.25.77.15a1.09,1.09,0,0,1,.56-.23c.15,0,.68-.24,1-.26l2-.05a19.63,19.63,0,0,1,2.14.14c.22,0,.86-.21,1-.17s.42,0,.51.07a8.13,8.13,0,0,0,1.37-.22l.53.05.39,0a1.92,1.92,0,0,1,1.13-.08l.29,0,.28,0a1.32,1.32,0,0,1,1,.08c.21.13,1.12-.35,1.61-.44l.4.26a.34.34,0,0,0,.23-.08l.07-.07a.61.61,0,0,1,.37-.28,3.19,3.19,0,0,1,.93.22c.21.05,1,0,1.19.07a2.92,2.92,0,0,0,.8-.05,7.48,7.48,0,0,1,1.13.11c.29.05,1.29-.16,1.61-.1l.13-.09c.41-.3.55.21.8.13l.26-.09a2.81,2.81,0,0,1,.86-.39,6.83,6.83,0,0,1,1.28.09,4.73,4.73,0,0,0,1.19,0,3.26,3.26,0,0,1,1.16.13,4.46,4.46,0,0,0,1.37-.07l.42.14a.83.83,0,0,0,.95-.23l.86-.12a5.19,5.19,0,0,0,2.71,0c.34-.07.65.4,1-.05.1-.14.67-.07,1,0h.2a1,1,0,0,0,.55.1,3.8,3.8,0,0,0,.56-.25c.19-.12.74.28.93.26a7.41,7.41,0,0,0,.73-.22,2.16,2.16,0,0,1,.7.29h.19c.19,0,.37-.14.57-.19l.32-.09.8.24a1,1,0,0,0,.47-.12c.12-.06.55.09.66.06l.08,0c.1-.07.2-.23.29-.22a5.8,5.8,0,0,0,.67.15c.29,0,.55-.17.84-.2l.25,0a1.86,1.86,0,0,0,.89-.06l.23.16.14.1,1.07.08c.35,0,1.4-.17,1.63-.08s1.5,0,2.31.12l.75-.29a1.29,1.29,0,0,1,.8,0l.37.15a6,6,0,0,0,1-.37h.19a1.41,1.41,0,0,1,.55.22l.11,0a5,5,0,0,0,1.36.21A13.58,13.58,0,0,0,204,.07a1.77,1.77,0,0,1,.17.14,3.67,3.67,0,0,0,.87,0A12.25,12.25,0,0,1,206.6.07,10,10,0,0,1,208,.46c.22.09,1-.14,1.12,0s1-.29,1.35-.44l.41.32.18.15A10.76,10.76,0,0,1,213,.2l.45,0,.46,0a2.55,2.55,0,0,0,1.51-.16l.43.3c.34.24.73-.43,1.18-.11a.73.73,0,0,0,1-.06.33.33,0,0,1,.14,0l.3.11a7.27,7.27,0,0,1,.86.14,7.16,7.16,0,0,0,1-.24h.25l.51,0,2.1-.05.54,0h.34l1,.2a2.77,2.77,0,0,0,.79-.14c.15,0,.62.15.75.17l0,0,.27-.42C227.24.25,228.18.36,228.32.48Z"/></g></g></svg>