<svg id="LOGO_POSITIVO" data-name="LOGO POSITIVO" xmlns="http://www.w3.org/2000/svg" viewBox="0 0 100 100"><defs><style>.cls-1{fill:#fff;}.cls-2{font-size:13.01px;font-family:BloggerSans-Bold, Blogger Sans;font-weight:700;}.cls-2,.cls-6{fill:#fc6;}.cls-3{letter-spacing:0.02em;}.cls-4{letter-spacing:0.01em;}.cls-5{letter-spacing:0.01em;}</style></defs><circle class="cls-1" cx="50" cy="50" r="50"/><text class="cls-2" transform="translate(20.02 81.18) scale(1.24 1)">al<tspan class="cls-3" x="10.28" y="0">e</tspan><tspan x="16.82" y="0">xd</tspan><tspan class="cls-4" x="29.95" y="0">e</tspan><tspan class="cls-5" x="36.43" y="0">v</tspan><tspan x="42.65" y="0">s</tspan></text><path class="cls-6" d="M21.35,45.2,40.2,65.93a3,3,0,0,0,4.31.13,3.26,3.26,0,0,0,.13-4.49L27.78,43,44.64,24.46A3.25,3.25,0,0,0,44.51,20a3,3,0,0,0-4.31.13L21.35,40.84A3.27,3.27,0,0,0,21.35,45.2Z"/><path class="cls-6" d="M78.67,40.84,59.82,20.11A3,3,0,0,0,55.5,20a3.26,3.26,0,0,0-.12,4.48L72.24,43,55.38,61.57a3.27,3.27,0,0,0,.12,4.49,3,3,0,0,0,4.32-.13L78.67,45.2A3.27,3.27,0,0,0,78.67,40.84Z"/></svg>