<?xml version="1.0" encoding="utf-8"?>
<!-- Generator: Adobe Illustrator 24.1.0, SVG Export Plug-In . SVG Version: 6.00 Build 0)  -->
<svg version="1.1" id="Layer_1" xmlns="http://www.w3.org/2000/svg" xmlns:xlink="http://www.w3.org/1999/xlink" x="0px" y="0px"
	 viewBox="0 0 128 128" style="enable-background:new 0 0 128 128;" xml:space="preserve">
<style type="text/css">
	.st0{fill:#333333;}
	.st1{fill:#999999;}
</style>
<path class="st0" d="M52.7,95.4c-5.6,1-11.2-1.4-14.4-6.1l-1-1.5L24,115.6l12.8-0.5l7.6,10.3l14.9-31l-0.2-0.1L52.7,95.4z"/>
<path class="st0" d="M85.4,89.7l-4.8,4.4c-2.7,2.4-6.2,3.8-9.8,3.8c-0.1,0-0.3,0-0.4,0l13.1,27.4l7.6-10.3l12.8,0.5L91.2,88.8
	L85.4,89.7z"/>
<path class="st1" d="M107.9,54.1l-2.6-8l2.1-8.1c0.8-3.1-0.3-6.4-2.7-8.4l-6.5-5.3l-2.6-8c-1-3-3.6-5.2-6.8-5.6l-8.3-1L74,4.5
	c-2.5-2-5.9-2.4-8.8-1l-7.5,3.7l-8.3-0.9c-3.2-0.4-6.3,1.1-7.9,3.9l-4.3,7.2l-7.5,3.7c-2.9,1.4-4.7,4.4-4.6,7.6l0.2,8.4l-4.3,7.2
	c-1.7,2.7-1.6,6.2,0.2,8.8l4.7,6.9l0.2,8.4c0.1,3.2,2,6,5,7.3l7.7,3.3l4.7,6.9c1.8,2.6,5,4,8.1,3.4l8.3-1.4l7.7,3.3
	c2.9,1.2,6.3,0.7,8.7-1.5l6.2-5.6l8.3-1.4c3.2-0.5,5.7-2.9,6.5-6l2.1-8.1l6.2-5.7C108,60.5,108.9,57.2,107.9,54.1z M68.2,65.4
	c0,2.3-1.9,4.2-4.2,4.2c-2.3,0-4.2-1.9-4.2-4.2V35.6l-6.3,3c-1.7,0.8-3.8,0.1-4.6-1.7c-0.8-1.6-0.2-3.6,1.4-4.5
	c3-1.8,10.4-6.4,12.1-7.8h4.5c0.8,0,1.4,0.6,1.4,1.4L68.2,65.4z"/>
</svg>
