<svg xmlns="http://www.w3.org/2000/svg" viewBox="0 0 261.34 53.48"><defs><style>.cls-1{fill:#fc3;}</style></defs><g id="Capa_2" data-name="Capa 2"><g id="OBJECTS"><path class="cls-1" d="M6.35,19.33c.07-.06.32.1.55.34l.25.18.16.13c.14-.19.33-.42.42-.52h.09l.35,0c.39.08.62.17.5.19s-.5.25-.5.47.09.86.2.67.47-.53.55-.36l.11.11a1,1,0,0,0,1.2-.06l0-.05A1.47,1.47,0,0,0,10.1,20c-.09-.18-.25-.72-.13-.81s.54-.34.5-.19,0,.47.26.41.88-.38.87-.58l0-.21a.3.3,0,0,1,.21-.21h.09l1.29.69.52-.1.26-.06c.17.12.11.26-.14.31s.06.54.52.39l.14-.23.16-.25c-.12-.43,0-.7.17-.61s1,.45,1.25.56l.13,0a1.57,1.57,0,0,0,.23-.09l0,0s.26.09.52.26-.25,1.26-.23,1.31h0l.21,0a1,1,0,0,0,.79-.39v-.45a1.75,1.75,0,0,1,.44-.59c.14-.11-.58-.51-.68-.51s-.38-.13-.18-.3a4.21,4.21,0,0,0,.71-.73v-.07s0-.09,0-.11a1.33,1.33,0,0,1,.51-.32c.25,0,.53,0,.69-.23s.34-.14.6,0l.2.09c.33,0,.29-.32-.09-.63L20,15.81l0-.29c-.26.14-.51.1-.56-.09l-.05-.16h0c-.07,0-.21-.16-.31-.37l-.1-.19c0-.07.14-.32.25-.4l.16-.11c.19-.17.37-.19.39-.06a.45.45,0,0,0,.64.2c.3-.19,1-1,1.21-1.11l0,.17c.09.36.18.43.59.23a3.6,3.6,0,0,1,1-.32c.22,0,.51-.12.6.24,0,.17.42.29.67.39.08,0,.32,0,.34-.08.19-.48.76-.56,1.2-.79l.41-.21c-.05-.39-.18-.6-.28-.47s-.47.13-.59-.28l-.17-.35a.87.87,0,0,0-.5-.42l-.15,0c-.25.19-.37.37-.27.4s.33.17.23.21-.29.21-.06.24l.11.07.08,0c0,.13-.06.23-.16.22l-.09,0-.36.09a2.56,2.56,0,0,0-1,.51L23,13a1,1,0,0,0-.45-.09l-.59,0a1.62,1.62,0,0,1,.22-.63v0A.42.42,0,0,0,22,12a.28.28,0,0,0-.25,0l-.18.11c-.2.17-.62-.13-.94-.66l-.61.13-.49.11a1.38,1.38,0,0,1-1.46.08l-.28-.12-.29-.12c-.45,0-.5-.34-.11-.69l.65.23.19.07a4.53,4.53,0,0,0,.78-.59c.07-.1.79.22,1.18.45l.6-.44.1-.07c.15-.12.1-.23-.11-.24s-.87-.12-.73-.17.43-.31.34-.48-.2-.69.06-.6l.16.08.26.13a1.36,1.36,0,0,1,.37.5v.05l0,.08c0,.08.12.12.29.08l.09-.09c.07-.06,0-.21,0-.32l.06-.27c.26,0,.41.24.33.41s-.31.63-.31.66.14.08.33.08.57-.11.49-.25V10l0-.16a1.15,1.15,0,0,0,1-.56l-.55-.19a.4.4,0,0,0-.32.11c0,.1.07.3.12.31h.26a1.72,1.72,0,0,0,.36.47,4,4,0,0,0-.59-.38,4.43,4.43,0,0,1-.79-.41c0-.07.09-.29.38-.4a9.52,9.52,0,0,0,1.06-.43,1.12,1.12,0,0,0-.5-.1l-.21-.07a2.59,2.59,0,0,1-.64-.33l0,0a.25.25,0,0,1,.23-.19h.09l.31.06a2.39,2.39,0,0,0,1.29-.46l.53.15.43.13c.53-.07.84,0,.68.1s-.26.43.11.4.73-.76.77-.78a3,3,0,0,1,.72-.19l.29,0a8.59,8.59,0,0,1,.84.21h0c.1,0,.18.14.18.28s.16.63.35.53.67-.27.71-.21S30,8.2,30,8A5.56,5.56,0,0,0,30,7.11c0-.23.19-.65.32-.54s.7.21.9-.06l.17,0a13.87,13.87,0,0,0,1.89-.27c.49-.17.76-.18,1.1.14l.21.19c.18-.18.39-.4.47-.5h.09l.67-.11c.78-.1,1.44-.08,1.47,0a.79.79,0,0,0,.58.44c.26,0,.7-.62.92-.78L39,5.47c.27-.23.34.09.46.18.31.2.51.31.63-.13.06-.24.27-.18.5-.08s.71.45.87-.17c0-.07.46-.12.68-.09a2,2,0,0,0,1.19,0c.24-.08.43-.22.75,0,.14.08.53-.12.81-.19l.47-.12c.13.3.33.49.43.41s.47-.19.49,0,.14.4.2.16.55-.74.66-.61a.9.9,0,0,0,1,0l.26-.08a14.42,14.42,0,0,1,1.51-.23c.73-.1,1.5.19,2.2-.18,0,0,.18.06.17.08-.05.49.58.32.84.51s.61-.12.93-.19h0c.05,0,0,.16-.1.34s-.09.69.29.73a9.26,9.26,0,0,0,1.44-.18h.18a3.3,3.3,0,0,1,.9.49L57,5.69l.26-.31c-.4-.2-.76-.5-.78-.66s.26-.51.71-.29l.45-.38c.06,0,.37.1.57.16l.23.07A4.54,4.54,0,0,1,58.83,4a1,1,0,0,1,.54-.06,2.22,2.22,0,0,0,1-.3c.17-.13,1.1.13,1.6.05l.28-.18a.86.86,0,0,1,.34-.1l.34.44c.6,0,1.25,0,1.45,0l.15,0a6.54,6.54,0,0,1,3.07-.41l.5.11a2.81,2.81,0,0,1,1.32-.14l.29,0,.27,0a2.55,2.55,0,0,1,1.16-.41l.38.19a1.6,1.6,0,0,0,1.14,0,1.72,1.72,0,0,1,1.32,0c.33.1.8-.16,1.21-.14L76,3c.5-.11,1-.21,1.15-.22s.55,0,.47.08a.22.22,0,0,0,0,.34l.06,0L77.94,3c.21-.16.43-.25.47-.2l0,0c.18.2-.47.32-.09.48l.24.11A3.16,3.16,0,0,1,78.79,3h.27a1.1,1.1,0,0,0,.71-.14c.12-.1.45,0,.49.36l.63-.36a1,1,0,0,1,.71-.08c.23.14.34.14.49,0s.31-.18.6,0l.36.18c0-.3.33-.43.64-.28a3.53,3.53,0,0,0,2.06.09l.6,0c.35,0,.7-.09,1.05-.09s.68.1,1,.09l.33,0a9.84,9.84,0,0,1,1.38-.24l.24.08.35.12a1.84,1.84,0,0,1,.93,0c.22.07,1-.06,1.32,0l.27-.09c.17,0,.45.14.69.19,0,0,.15-.13.23-.2l.06-.06a1.39,1.39,0,0,1,.7-.18c.33,0,1.16.49,1.39.56a3,3,0,0,0,1.13,0c.1-.08.45-.26.47-.19s.13.26.22.28l0,0a1.48,1.48,0,0,1,1-.4h.44a3.77,3.77,0,0,1,1-.32v0c0,.37.18.47.56.22l0,0a7.05,7.05,0,0,1,.85,0,15.57,15.57,0,0,1,1.77-.12c.2.11.81.36.88.29s.46-.2.56-.09a1.93,1.93,0,0,0,1.47,0,12.52,12.52,0,0,1,2.58-.08c.08-.06.36-.23.43-.21l.06,0c.21.09.24.41.7.16.27-.15.89.09,1.34.18.11,0,.22.19.28.18.32-.08.38-.63,1-.3l.24.13c.38,0,1.3-.11,2.06-.21l.68,0a5.16,5.16,0,0,1,1.69.12l.37.11c.6-.27.94-.34.76-.15s.48.45.41.56v.22c.09.13.22.2.3.16A1.6,1.6,0,0,0,120,2.6l.18-.22c.17-.2.37-.51.85-.2.16.11.6-.08.91-.12l.29,0c.33,0,.75,0,.93,0A5.64,5.64,0,0,0,124.4,2l.39.23.49.29c.23-.35.51-.46.64-.24H126l.63,0a3.62,3.62,0,0,1-.09-.57,1.1,1.1,0,0,0,.82.25l.3.1.36.12a3.71,3.71,0,0,1,.69-.21l0,0,.08-.09a1.65,1.65,0,0,1,.73-.41l.16.38,0,.07.79.1c.25,0,.86.22.9.14s.35-.07.61.23l.46-.17c.23-.09.43-.23.66-.3l.13,0a1.92,1.92,0,0,0,.63,0,1.7,1.7,0,0,1,.79.37.73.73,0,0,0,.9-.07l.5,0c.12,0,.25-.34.41-.36s.47.13.72.15l.62.06c.6-.29,1.16-.37,1.24-.17s.54.69.84.65.94-.51,1-.5l.06,0,.38-.19a2.26,2.26,0,0,0,1.23.25l.34,0a2.35,2.35,0,0,1,.53,0l.61.11c.27-.21.53-.25.56-.1l0,.12,0,.1c0,.14.46.08.92-.13l.38-.22c.1-.05-.51-.2,0-.32.3-.08.29.29.34.3.39.08.72.63,1.23.14.06,0,.45.21.68.19l.77,0c.86-.07,1.85-.14,2.19-.15l.24.12c.43.21.54.1.59-.24v0a6.94,6.94,0,0,1,1.2.13h.37a6,6,0,0,1,1.36.1l.15,0c.17,0,.25,0,.19-.15l0-.1s.15-.11.2-.1a1.49,1.49,0,0,1,.44.21c.24.19.43.38.76.08.09-.08.34,0,.5-.08s.47-.25.71.05l.14.17a.81.81,0,0,0,.7.15l.09-.07A1.85,1.85,0,0,1,160.54,2c.4.1.8.36,1.28,0a1.24,1.24,0,0,1,.91,0c.24.09.44.26.71.19l.28-.07c.24-.12.41-.3.38-.41s.05-.39.26-.39l.11.08.2.17a1.38,1.38,0,0,0,.76.48,4.83,4.83,0,0,0,1.35-.27c.24-.08.95.3,1.07.42s.69-.07.86,0L169,2.1l.18-.15a2.89,2.89,0,0,0,1,.28c.19,0,.55-.27.68-.11s.82.07,1.1,0a14.56,14.56,0,0,1,1.53.28,3,3,0,0,0,1.07-.35h0c.3.29.6,0,.87,0l.31,0c.32.19.59.1.6-.21l.51.14c.31.08.64.07.93.13.63.11,1.2.23,1.67-.27l.07-.06,1.16-.09.44.27.35.21c.13-.36.31-.58.38-.49a4.82,4.82,0,0,0,.6.58l.21-.23.72-.24.88.41a.84.84,0,0,0,1.1-.08l.23-.22a8.18,8.18,0,0,1,1.13.17c.17.05.52-.32.64-.34l0,0,.09.12c.07.16.34.18.6,0l.26,0c.2,0,.45.13.63.08s.45-.39.77-.06c.16.16.39-.3.59,0a.84.84,0,0,0,.42-.05c.1-.55.33-.28.69-.16l.41.15a4.53,4.53,0,0,1,1.63.15l.34-.25s.19.07.19.11a.38.38,0,0,1-.09.29l-.08.06c-.17,0-.25.1-.18.19a1.44,1.44,0,0,0,1.21-.2c.48-.32,1.52-1.32,1.55-1.18a1.28,1.28,0,0,0,1,.42h.45c.47,0,.93-.27,1.39.08l.05,0c.12,0,.81-.09,1.53-.15l.65-.11a6.8,6.8,0,0,1,.84-.2c.23,0,.47.21.69.19l.28,0a3.09,3.09,0,0,1,1.2-.28c.33,0,1.21.32,1.49,0l.49.06.29,0c.32-.11.76-.24,1-.3l.09.07c.46.33,1,.1,1.51.23l.46.11a4.52,4.52,0,0,1,1.6,0h.42c.19,0,.38.13.56,0l1.4-.26.19,0s.78-.09.8-.09l.24,0a2.87,2.87,0,0,1,.85,0,2.88,2.88,0,0,0,1-.25,3.92,3.92,0,0,1,1.18.22l.29-.17c.19-.11.55-.06.71-.18l.14-.12c.08-.25.14-.32.14-.17l.06.12a.52.52,0,0,0,.31.25c.18,0,.34-.36.61,0l.08.08c.3,0,.57-.14.59-.27s.24-.23.44,0,.84.58,1,.47.53.33.62.53l.24-.09c.12,0,.12-.31.17-.47v0a5.11,5.11,0,0,1,1-.28L225,.52l.53-.08,1.62-.27c.32-.05,1.21.28,1.37.23l.15,0,.25,0c.35,0,.49,0,.31.2l0,.08,0,.09a.47.47,0,0,0,.43.21l.09-.07c.38-.3.37-.31.57,0,.08.14.27.37.21.43s-.24.27,0,.41l.28.16c.32.19.3.44,0,.55s-1.15,1-.94,1.66l1.08,0H231a1.56,1.56,0,0,1-.11.87,3.47,3.47,0,0,1-1.07.87.26.26,0,0,0-.15.3c.05.13-.18.57-.62.65l-.39-.17-.08,0a1.22,1.22,0,0,0-.47.46c0,.14.21.63.77.75l.21-.6a1.27,1.27,0,0,1,.34,0c.05.41.38.41.75.38l.5,0a2,2,0,0,1,.39.64l0,0c-.19.17-.39.38.05.46l.12,0c.2-.22.42-.33.47-.25l0,.07a2.12,2.12,0,0,1-.27.57l-.13.21a4.32,4.32,0,0,0,.75.65l-.57.07c-.3,0-.65.06-.61-.35v0c-.06,0-.18,0-.26.17a.82.82,0,0,0,.28.88l.51-.2c.32-.14,1-.39,1.29.17l0,.07c.38.07.59.18.46.23a5.75,5.75,0,0,0-.94.94l-1-.12-.11,0c-.14,0-.1.08.08.1s.25.44.33.43.36.12.36.29.15.67.34.72.73,0,.79-.23l.14-.19a.7.7,0,0,1,.53-.19l.51.32a7.2,7.2,0,0,1,1.09-.35,1.42,1.42,0,0,1,.62.95l-.4.43s.11.15.15.23.1.37-.24.36h-.47c-.19.3-.44.68-.54.85l.2.19c.07.06.11.4-.3.17a.92.92,0,0,0-.71,0c-.37.27-.52,0-.77-.11l-.15-.09c-.22,0-.42,0-.44.09s.4.45,1,.44l.53,0h.11c.11.13.13.28,0,.34a3.88,3.88,0,0,1-.89.11v.8c-.42-.1-.73-.26-.68-.36s-.07-.39-.44-.3l-.17.14a.56.56,0,0,0-.06.51l.09.28c.36,0,1,.07,1.43.12l-.2.31-.28.42a6.43,6.43,0,0,1,.57.68c0,.06.11,0,.09-.23a5.92,5.92,0,0,1,.61-1.43l.41.05c.08,0,.16.09.23.08a4.51,4.51,0,0,1,2,.21c.15.05.19.28.51.13l.57-.27c.15.43-.47.67-1.37.55h-.41a.83.83,0,0,1-.45-.09c-.41-.28-.58.05-.74.21s-.1.4.22.35l.75-.12c-.09.4.21.5.66.22l.45-.06.48-.06c.57.14,1,.43,1,.65a2.07,2.07,0,0,0,1.05,1.34l.72-.31a.55.55,0,0,1,.28,0l.43.07c.46.07,1.2.14,1.64.16l.39.07h.06a2,2,0,0,1,.73-.12l.16.18.2.21a2.21,2.21,0,0,1,.4.63,1.3,1.3,0,0,1-.11.48c0,.08.24.26.66.15a8.59,8.59,0,0,0,1.54-.38,1.94,1.94,0,0,0-.38-.45c-.11-.08-.38.26-.48.43l-.26,0-.21,0a.94.94,0,0,1-.63-.58l.18-.26a.71.71,0,0,1,.34-.23l.27-.09c.35-.08.66-.05.69.08s.32.44.53.35a3.54,3.54,0,0,1,1.12-.25c.2.05.76.16.67.46a3.31,3.31,0,0,1-.66,1.12c-.13,0-.49.22-.44.26A.23.23,0,0,1,247,23c-.15.08-.47.36-.37.44s.26.42.15.58-.73-.08-.8,0-.2.23,0,.31a1.84,1.84,0,0,0,.57.19l.22.14.28.17a2.06,2.06,0,0,0,1.19-.51l.28.22a1.05,1.05,0,0,0,.55.22h.17c.23-.15.38-.14.35,0a3.69,3.69,0,0,1-.33.86c-.12.17-.74-.05-.8-.13a.7.7,0,0,0-.64-.11l-.25.06c-.3.06-.76.18-.27.55,0,0-.11.23-.22.31s-.36.18-.52.29l-.29.2a5.49,5.49,0,0,0,.94,1c.29.23.13,1.45,0,1.88l-.12.4c-.07.24,0,.43.41.39h.12c.15.09.23.22.18.28a5.18,5.18,0,0,1-.92.36l-.33.13-.36.14a1.33,1.33,0,0,1-.11-.59l-.2-.14c-.47-.31-.72.08-.94.18l-.22.1-.33.87c-.06.13-.67.16-1.19.25l.08-.6h0c-.1,0-.38-.06-.61-.08a2.26,2.26,0,0,0-1,.18c-.09.12-.45.45-.53.34s-.44-.19-.75-.06a2.52,2.52,0,0,1-1.27,0c-.07-.08-.44-.23-.59,0l-.16.1-.1.06c-.2,0-.32-.17-.27-.31l0-.12,0-.05c0-.09-.16-.15-.41-.14l-.21,0h0s.05.08.06.21-.26.37-.61.33l-.34.07c-.28.06-.39-.21-.27-.53l0-.09c-.05-.17-.27-.18-.49,0l-.06.14-.15.39c.45.31.94.62,1.08.69a2,2,0,0,0,.93-.09c.18-.09,1,.09.94.23s-.17.43.06.28.84-.42.89-.3a3.6,3.6,0,0,0,.35.61c.07.09.17.4-.16.25h-.15c-.2,0-.49.23-.55.19-.48-.34-1.12-.08-1.61-.3,0,0-.08-.08-.1-.08a2.7,2.7,0,0,0-.91.24c-.47.33-.45-.16-.68-.22l-.31-.08c-.36-.14-.68-.15-.7,0a.38.38,0,0,1-.48.25l-.17,0-.51,0a6.66,6.66,0,0,0-1.58.09,3.15,3.15,0,0,1-1.59,0c-.21-.19-.88-.63-1-.49s-.49.67-.74.74-1.12-.06-1.25,0a1.27,1.27,0,0,1-1-.12l-.27-.18a.67.67,0,0,0-.35.2l0,.07c.11.15,0,.28-.15.28s-.82,0-.67-.1.34-.23,0-.25l-.21,0-.14,0c-.13-.09-.41-.26-.62-.38s-.93,0-.8.27-.12,1-.32,1-.73-.31-.81-.5.58.1.64.1a.18.18,0,0,0,.12-.28.61.61,0,0,0-.84,0l-.28.08-.17.05a1.49,1.49,0,0,0-1.48.22l-.77-.42-.37-.2a2.41,2.41,0,0,0-1.34.46.87.87,0,0,0,.08.67c.11.06.13.44-.32.63l-.27-.09-.33-.1c-.27-.37-.23-.65.09-.63s0-.76-.18-.8a2.52,2.52,0,0,0-.85.22,8.62,8.62,0,0,1-1,0,5,5,0,0,0-1.52.23c0,.1.1.39.22.43l.06,0,.3-.12c.35,0,.7-.06.78-.07a1.83,1.83,0,0,1,.52-.11c.14,0,.39.27.27.41a2.34,2.34,0,0,1-1.08.55h-.65a1,1,0,0,0-.52-.44l-.12,0a2.34,2.34,0,0,1-.75.17c-.09,0-.22,0-.26,0L212,35a.46.46,0,0,1,0-.35H212l.33,0c.19-.21,0-.6-.43-.86l-.3.12a.51.51,0,0,1-.66-.1h0c-.35-.31-.65-.41-.68-.24a1.09,1.09,0,0,1-.95.59l-.44,0h-.2c-.23,0-1.48.18-2.79.29l-1.19-.17-.25,0a3.43,3.43,0,0,1-1,.2l-.21,0a2.77,2.77,0,0,1-.71-.16.21.21,0,0,0-.17.08c0,.07,0,.19,0,.21l.31.18a1.42,1.42,0,0,0,1.19,0h.54c.17,0,.3,0,.3.08a2.68,2.68,0,0,1-.17.5l0,.13,0,.38c.32,0,.54,0,.47.05a.42.42,0,0,1-.55-.08c-.17-.21-1,.12-1.21.07s-.83-.07-.83.12-.12.6-.26.53v0c0-.26,0-.52-.31-.66l-.13,0a.39.39,0,0,0-.3.43l-.36,0a2.91,2.91,0,0,0-1.11.19c-.1,0-.35-.25-.5-.41l-.29-.32c-.14.18-.31.4-.38.47s-.31.24-.37.15-.26-.28-.34-.25a2.23,2.23,0,0,0-.43.28c-.11.08-.87.25-.76.13s.25-.34.08-.27a1.3,1.3,0,0,1-1.08-.32l-.47.34c-.08.06-.33,0-.5-.05-.43-.07-.42-.07-.46.29,0,.11-.1.3-.14.3l-.41,0a1.6,1.6,0,0,1-.72.32c-.08,0-.53-.22-.83-.36s-1.32-.18-1.57.24l-.68,0h-.46c-.53.2-1,.26-1,.13a1.06,1.06,0,0,0-.81-.58l-.16.4-.05.13c.3.13.32.26.05.3l-.16,0-.4.11a1.66,1.66,0,0,0-.91-.36c-.21,0-.86.2-.93.38s-.15.71,0,.73.6.17.57.28a.68.68,0,0,1-.56.36l-.23-.05-.54-.11c0-.41-.25-.57-.44-.36a2.56,2.56,0,0,1-1.31.69c-.35,0-.63-.69-.79-.54s-.72.29-.75.14,0-.59,0-.63l.1,0,.12,0c.11.1.33.05.49-.12s-.16-.66-.41-.56l-.21,0c-.47-.05-.25.33-.46.41s-.43.07-.44-.2v-.11c0-.14-.57,0-1.27.34l-.69.2-.5.15c-.51,0-.67,0-.35,0s.06-.71-.71-.74h-.9c.05.36-.17.56-.5.46l-.18.08c-.41.18-.38-.18-.58-.23s-.4-.14-.48-.09c-.36.24-.67,0-1,0h-.55c-.05.19-.21.32-.34.29s-.53.13-.52.38.69.66.64.8a2,2,0,0,1-.25.51.46.46,0,0,1-.16-.34l-.06-.15a.31.31,0,0,0-.25-.17h-.09a.88.88,0,0,0-.22.43c0,.15-.46.32-.53.21s-.16-.43-.06-.42.26-.22.35-.48a2.27,2.27,0,0,0,.07-1.07h-.1c-.29,0-.23.11-.08.24s0,.14-.09.19-.31.14-.32.23l0,.28a.78.78,0,0,1-.52.75l-.29,0a.37.37,0,0,1-.24-.17.28.28,0,0,1,.16-.25c.1,0,.29,0,.38,0l.12-.06c.07-.12-.07-.45-.32-.72s-1.64-.07-2.35.17l-.61-.08H167c.37-.19.51-.45.32-.56s-1.11-.68-1.26-.72l-.07,0-.08.05a1.83,1.83,0,0,0,.51.82l.53.1.64.13c0-.12-.45-.1-1.09.05a12.29,12.29,0,0,0-1.9.52c.05.05-.13.34-.56.5l-.09-.56a1,1,0,0,0-.29-.45L163.6,38c-.16,0-.3,0-.3.13v.08l.07.38c-.39.13-.7-.27-.69-.87l.61-.41.27-.19a1.19,1.19,0,0,0,.65.05c.08,0,0-.26-.44-.35l-.37-.07a1.41,1.41,0,0,0-.62-.07c-.12,0-.12.3-.17.47l-.07.27a.51.51,0,0,1-.4-.56c0-.26-.18-1,0-1.08s.9.17,1,.2l.12,0c.28,0,.41-.06.39-.3s.44-.2.09-.39l-.13-.07a4.62,4.62,0,0,0-1.38,0l-.54.07-.34,0a1.91,1.91,0,0,1-.42,1.19l0,.25c0,.1.05.24.13.27l.3.1a1.22,1.22,0,0,1,.79.45l0,.17,0,.12a2.59,2.59,0,0,1-.18.51.72.72,0,0,1-.82.09c-.2-.19-.73-.6-.69-.46s-.48.5-.74.42-.92-.42-1-.33a.92.92,0,0,1-.64.25l-.07,0-.23.11a.9.9,0,0,1-.55-.18.63.63,0,0,0-.6-.12c-.22.1-.83.34-1,.38s-.8-.33-1.12-.54l-.39.31,0,0a.91.91,0,0,0-.88.15c-.22.19-.4.88-.43.81a.42.42,0,0,0-.53-.06c-.22.15-.8.5-.82.44l-.06-.07-.2-.25c.14-.26.14-.41,0-.32s-.66-.36-1-.51-1.22-.33-1.19-.23,0,.4-.23.4l-.15.07c-.15.08-.18.31-.33.39s-.44.07-.44-.2v-.11c0-.14-.23-.17-.52-.07s-1.05-.18-1.07-.06-.22.38-.36.33-.43.29-.46.4a.45.45,0,0,1-.41.27c-.18,0-.75-.06-.67,0s.13.27,0,.34h-.09l-.53,0c-.28-.42-.52-.81-.54-.86a.18.18,0,0,0-.29,0,.84.84,0,0,0-.15.76c.13.21.21.77-.1.74s-1.14-.37-1.24-.67a2.55,2.55,0,0,0-.78-.89.76.76,0,0,1-.39.11h-.13l-.43,0c.15-.18.21-.38.14-.45s-.34-.18-.36,0-.22.39-.38.3-.58-.18-.63,0,.32.62.41.7-.22.3-.4.29l-.12-.06-1-.56c-.59.67-1.21,1.16-1.38,1.11s.09-.6.06-.71a.53.53,0,0,1,.43-.51c.3,0,.19-.6-.21-.43s-1.4-.27-1.52.07-.93,1.09-1,1.2l0,.1-.06.1c-.11.11-.23.15-.28.09a5,5,0,0,0-.59-.42l-.18-.14-.13-.11a.36.36,0,0,0-.55,0c-.18.17-.74.57-.85.48s-.23-.31-.09-.33l.09-.06.09,0c.07-.09,0-.26-.12-.37h-.54c-.35.42-.5.79-.34.82s.41.25.23.43.26.71.16.84a3.11,3.11,0,0,1-.66.55l-.09,0-.08,0a2.38,2.38,0,0,1,.06-.75l-.33-.07-.29-.06a.39.39,0,0,1,.29-.37l.16,0,.09,0c.14,0,0-.15-.28-.26v-.28c.17-.27,0-.54-.48-.62l-.22.12a.92.92,0,0,1-.83.14l-.23-.12a.87.87,0,0,0-.89-.3l.41.33.06.05a2.3,2.3,0,0,1-.84.62l-.24-.21a.82.82,0,0,0-1.09-.13,1.08,1.08,0,0,1-1-.18l-.25-.18c-.52-.08-1,.07-1.06.33s.52.68.33.69-.64-.17-.57-.42-.17-.91-.4-.75-.81.38-.86.23l-.11-.1c0-.05-.24,0-.35,0s-.1.16-.07.18l.25.23c.3.24.63.5.75.58s-.54.52-1.11.82l-.55.06a2.28,2.28,0,0,1-1.48-.44l-.41-.29a3.86,3.86,0,0,0-.88.74l-.12-.08-.2-.13a1,1,0,0,1-.6-.1l0,0c0-.09.09-.23.17-.24l1.89-.27h0c.08-.09,0-.27-.27-.41s-.94-.43-1-.29-.23.39-.36.25-.42-.55-.34-.58a.72.72,0,0,0,.26-.6l-.42-.1-.35-.09a1.41,1.41,0,0,0-.76.35l0,.07.14.24c.21.25.09.42-.26.37l-.3-.06a.64.64,0,0,1-.39-.17,3.72,3.72,0,0,1-.27-.57c0-.06-.13-.09-.2-.13h-.13l-.26.11c-.27.12-.43.39-.33.58a4.85,4.85,0,0,1,.06,1.17c0,.29,0,.86-.73.81l-.61-.18-.34-.09a1.59,1.59,0,0,1-.65.47l-.21,0c-.17,0-.27-.26-.5,0l0,0c-.22,0-.34-.24-.26-.41h.08c.31,0,.42-.19.29-.35l-.09-.11c-.34,0-.62.07-.63.21a1.92,1.92,0,0,1-.22.65h-.1l-.2,0a1.19,1.19,0,0,0,0-.46l-.07-.08c-.17-.21-.28,0-.37.06l-.26.25c-.44-.06-.56-.21-.26-.33l.21-.12a.29.29,0,0,0,.11-.28c0-.07-.18-.14-.29-.14a3,3,0,0,0-.49.09c-.24,0-.61.15-.71.07-.4-.34-.6-.1-.87.11a.78.78,0,0,1-.79-.23v0c.1-.07-.12-.23-.5-.36s-1.29.27-1,.32l.06.09.09.14c0,.19-.23.32-.47.29a3.85,3.85,0,0,0-1.78.31l-.6.05-.47,0c-.35-.64-.71-1-.8-.71s-.43.77-.51.58l-.13-.08c-.08-.05-.32,0-.45.12l-.21.13a.68.68,0,0,1-.7.17c-.18-.1-.59-.4-.52-.46s.39-.19.47-.1.43.27.5,0l0,0-.29-.21c-.35-.19-.7-.27-.77-.18s-.31.45-.39.57-.13.35-.2.44-.14.31-.37.19.07-.64.05-.71-.16-.2-.26-.17a2.23,2.23,0,0,0-.41.41l-.23-.06c-.11,0-.26-.15-.28-.14-.27.2-.46.45-.94.2l-.15-.08a11.13,11.13,0,0,1-1.43.33l-.36,0-.64,0c-.26-.37-.44-.41-.39-.1s-.25,1.11-.6,1.1-.93-.84-.94-1.12l-.42.14-.15,0c-.1.23-.26.32-.35.21s-.47-.37-.6-.29-.08.51,0,.56.09.38-.17.6L87.7,43l-.45-.09a5.61,5.61,0,0,1-.84-.4,1.55,1.55,0,0,1-.13-.45l-.1-.09c-.14-.11-.41-.26-.54-.22s-.18.28,0,.44.21.32-.07.41c-.08,0-.25-.11-.35-.2l-.16-.15a.54.54,0,0,0-.66-.15c-.2.11-.67.7-.76.71s-.5,0-.51-.11l0,0c0-.13.2-.3.14-.37s-.36-.14-.54,0-.45.31-.49.49c-.09.5-.32,0-.46.07l-.45.16c-.18.37-.39.58-.47.45s-.13-.62.1-.75l.21-.11c.07,0,.21-.07.21-.09s-.11-.25-.14-.38a1.58,1.58,0,0,1-.09-.52c0-.1.18-.25.13-.3L81.09,41c-.42.07-.73.19-.66.27a4.29,4.29,0,0,1,0,1.44l-.8.07-.75.07c-.69.4-1.35.58-1.46.39s-.57-.53-.74-.3l-.08.2c-.13.36.31.26.48.37a.91.91,0,0,1,.27.24c.05.08.06.23,0,.28s-.29.11-.35.06l-.3-.21a1.22,1.22,0,0,1-.62.3l-.12,0c-.18-.06-.49,0-.44-.27a.39.39,0,0,1,.24-.19l.16,0c.3,0,.28-.33,0-.75l-.27-.32s-.17,0-.25,0,0,.1,0,.15.09,0,.09.08v.12a.31.31,0,0,1-.29.27L75,43.16,74.78,43c-.28-.19-.54-.27-.58-.17a1.06,1.06,0,0,1-.94,0l-.42-.1c-.07,0-.22.13-.33.21l-.07.05a2.38,2.38,0,0,1-.73.19l-.24-.12c-.4-.18-.64.23-1,.11a1.93,1.93,0,0,0-1,0,.57.57,0,0,1-.51,0,1.22,1.22,0,0,0-.87,0c-.33.31-.41-.12-.64-.08s-.3.21-.2.39.35.19,0,.27a.44.44,0,0,1-.34-.21l-.15-.28c-.15-.43-.31-.64-.35-.47s-.23.49-.35.4a1.62,1.62,0,0,0-.9-.24,1.28,1.28,0,0,1-1.33-.28l1.12-.23.19,0c.25,0,.35-.16.22-.34s-.84-.14-.87-.25a.51.51,0,0,0-.67-.18c-.31.16-1.19.48-1.27.37s-.44-.41-.54-.32a2.42,2.42,0,0,0-.35.83l.45-.08.48-.08a.3.3,0,0,0,.51.21c.24-.15.9-.55.92-.55a2.54,2.54,0,0,1-.78.68l.06.57c0,.08-.32.21-.51.28l-.21.07a1,1,0,0,1-.64,0,1.28,1.28,0,0,0-.8-.08c-.27.09-1,.34-.93.42a.24.24,0,0,1-.18.29l-.06,0c-.22-.19-.38-.44-.62-.62l-.21-.17a.94.94,0,0,0-1,.25l-.5-.09-.49-.08c.05-.32.05-.44,0-.26s-.66.6-.79.73-.52.35-.4,0v-.35a1.86,1.86,0,0,0-.87-.34c-.33-.05-.8.59-.94.52H54c-.15,0-.28.15-.44.19l-.34.07c.07.21-.3.31-.82.23l-.44,0-.55,0c-.35-.25-.78-.32-.93-.17s-.5.34-.54,0l-.52.14c-.24.07-.68-.19-.7.29,0,0-.36.15-.54.14s-.46-.16-.7-.2l-.26,0c-.39,0-.57.12-.4.22s.4.28.08.14-1.13.26-1.26.19a1.31,1.31,0,0,1-.45-.52l-.25.11a1.55,1.55,0,0,1-1.36,0l-.06,0c-.07,0-.24.21-.37.47L42.74,45c-.23-.07-.39-.27-.62-.37a.65.65,0,0,0-.45.06c-.11.06-.12.29-.22.31l-.44.09a10.45,10.45,0,0,0-1.24.19A1.23,1.23,0,0,1,39,45c0-.09-.17-.43-.26-.37a2.14,2.14,0,0,0-.37.49c-.09.17-.7.47-.56.52l.08,0,.08,0c.1,0,0,.14-.25.24l-.17.13c-.11.09-.22.34-.19.35l.36.22a3,3,0,0,0,0,.8c0,.11-.07.4-.3.34s-.67-.29-.46-.38-.07-.6-.23-.6-.63.07-.53.17V47c0,.12.05.32,0,.36s-.41,0-.44.29-.26.24-.47.11c-.39-.22-.77-.45-1.13-.7l-.21-.14a.51.51,0,0,0-.27.5l.3,0h0c.15.15,0,.22-.34.16s-1.16-.31-1-.39.32-.38.12-.52l-.09-.12c-.09-.1-.18-.3-.13-.36a.34.34,0,0,1,.54,0l.34.41a2.94,2.94,0,0,0,1.44.11v-.06l-.08-.35a2,2,0,0,0-.38-.71c-.07,0-.15-.16,0-.17s.55.07.55.23.16.61.36.62l.09-.05c.22-.11.4-.27.62-.39l0,0c.11,0,.17.12.15.17l0,.06-.13.41c.44,0,.77-.2.73-.48l.09-.21.08-.19c.33-.25.28-.33-.12-.17l-.22,0-.26,0c-.28-.2-.53-.28-.56-.17a2.11,2.11,0,0,1-.12.41.19.19,0,0,1-.11-.15,1.34,1.34,0,0,0-.74-.53c-.33-.06-1.14.37-1.23.18L33.4,45c-.07,0-.32.06-.45.14l-.46.3c-.6.24-1.09.56-1.1.7s-.28.61-.58.63l-.17-.1c-.17-.11-.15-.31.18-.38l.12,0a2.87,2.87,0,0,0,.26-.61h.06c.36,0,.53-.16.29-.38a.89.89,0,0,0-.69,0l-.32.2c-.41,0-.57-.13-.36-.36l.09-.24,0-.09c-.23-.17-.47.11-.52.62l-.65.21-.14,0c-.09.2-.25.19-.35,0h-.1c-.4,0-.66-.41-1.1-.24-.12,0-.25.42-.4,0,0-.15-.21-.34-.14-.42s.34-.17.52-.26l.71.3c.19,0,.43.18.57.12l.21-.07a1.49,1.49,0,0,0,.29-.64c0-.15-.15-.5-.34-.24l-.14.15a.47.47,0,0,1-.27.08c-.25-.45-.62.18-1-.08s-.7.14-1.06.16l-.4,0c-.46,0-.56.32-.21.65l.47.16c.2.06.35.25.15.44s-.34.41-.64.23c-.48-.3-1.26,0-1.61-.61l0-.07c-.49,0-.74.12-.57.18s.44.25.38.31h-.06l-.44,0c-.47.09-1.38.28-2,.43l-.22-.69v0c-.21,0-.28,0-.16-.14l.13,0,.24-.1c.34-.11.44-.29.23-.4A6.46,6.46,0,0,0,20.1,45l-.36,0-.27,0a3.41,3.41,0,0,0-.63-.8c-.16-.11-.27-.48.07-.46s.65.75.75.83h.09a.33.33,0,0,0,.25-.17l.08-.28c.05-.35-.14-.63-.44-.61s-.93-.44-1-.32-.41.43-.51.32H18a.67.67,0,0,0-.37.16l.13.23a1,1,0,0,0,.07.73l.22-.07.1,0c.13-.1.23-.06.23.09s-.16.47-.37.35a1.72,1.72,0,0,0-1.16-.07c-.19.17.1.73,0,.74a.86.86,0,0,1-.4,0s-.18-.11-.25-.07a1.76,1.76,0,0,1-.68.1c-.25,0-.82.23-.68.3a.72.72,0,0,1-.1,1l-.68-.1c-.17,0-.39.1-.58.15-.49.13-.58.09-.75-.37,0,0,0-.1,0-.11-.44-.23-.11-.93-.66-1a3.27,3.27,0,0,0-1.29.55c-.24.12-.18.15.15.31a3.32,3.32,0,0,1,.76.56c.11.11.2.4.15.43l-.31.17a2.07,2.07,0,0,0-1-.66l-.44-.08c-.08,0-.23.13-.32.22l-.14.14c-.14.16-.32.22-.41.14v0c.45-.5.3-.91-.27-1.27-.12-.08-.17-.24-.28-.34s-.28-.22-.36-.19c-.26.09-.22.25-.06.42l0,0a.3.3,0,0,1-.24.2l-.06,0c-.15-.08-.33-.18-.38-.3l-.14-.36a1.31,1.31,0,0,0-.88-.93l-.38.18a1.52,1.52,0,0,1-.48.1H5.13a3.27,3.27,0,0,1-1,.4l-.09-.07c-.31-.22-.38.07-.48.15a.32.32,0,0,0,0,.36l.3.18c.36.16.5.32.29.36s-.32.52-.5.55l-.14,0c-.16,0-.32-.16-.46-.15-.55,0-.53-.38-.39-.48s-.1-.49.15-.66l.23-.16c.27-.16.23-.42-.08-.58l-.2-.12c-.11-.06-.19-.17-.31-.2-.33-.07-.67.5-1,0L1.29,44c-.42,0-.62-.21-.43-.49l.57.29.59.3c.63-.42,1.33-.64,1.56-.5l.13.13c.15.14.21.1.4,0a1.93,1.93,0,0,1,.72,0c.1,0,.24.06.28,0,.74-.69,1.38-.09,2,.12.12,0,.2.2.3.2h.21c.23-.05.39-.16.36-.24a.72.72,0,0,1,.16-.58c.16-.13.67-.43.76-.39a1.64,1.64,0,0,0,.4.12s-.12-.24-.37-.44-.91-.85-.73-.85.57.05.55.11a.22.22,0,0,0,.24.22l.15,0,.12,0a.29.29,0,0,1,.41.22v.16c0,.62.78.63,1.24.84.25.11.76.13.67-.38-.06-.27.19-.27.43-.26h.37a1.68,1.68,0,0,0-.16-.52,3.5,3.5,0,0,1-.16-.46c0-.11-.17-.31,0-.31a.88.88,0,0,1,.59.73l0,.38c0,.06.17.16.26.16s.24-.1.25-.17l0-.21a.52.52,0,0,1,.36-.51c.22,0,.91,0,1,.14s.72.66,1,.54,1.07-.26,1.16-.09l.15.08.19.1a1.1,1.1,0,0,0,.35.36h0a2.58,2.58,0,0,1,1.24-.25h.1c.1-.25.24-.3.29-.12l.1.1c.05.05.24,0,.35,0l1-.15c.24-.18.28-.35.09-.37s-.69-.26-.88-.19-.45-.4-.52-.37-.33-.11-.33-.2a1,1,0,0,1,.66-.5l.38.16.23.09a1.18,1.18,0,0,0,1-.06l.1.38c0,.18,0,.32.32.38l.27.06a.81.81,0,0,0,.83.19l.16-.11.11-.09c.07-.17,0-.28-.09-.25s-.32,0-.13-.16.37-.73.47-.71.33.33.46.6,1.45.25,1.33.16a3.23,3.23,0,0,0-.59-.36c-.11,0-.4-.16-.18-.19s.8-.16.82-.26a.36.36,0,0,1,.55-.13l0,0-.7.71c.71.35,1.37.53,1.47.39s.27-.49.21-.53l-.08,0L26.37,41c-.23,0-.36-.16-.3-.26a.39.39,0,0,1,.54,0c.17.18.89.23.77.09s-.22-.37,0-.13,1.06.34.84.34l-.19.05a.3.3,0,0,0-.2.21c0,.07.16.22.2.21l.31-.08c.32-.14.82-.35,1.12-.46s1.08,0,1.18-.11.27-.23,0-.4l0,0-.55.47c-.49-.37-.65-.75-.37-.85H30a2.92,2.92,0,0,1,.88.12l.32.08a1.29,1.29,0,0,0,1,0c.24-.14,1-.41,1-.24h0A3.11,3.11,0,0,1,34,40l.18,0c.21.14.39.14.41,0s.14-.53.22-.52l0,0a13.25,13.25,0,0,1,1.14.94,1,1,0,0,0,.94.28l.14,0a.26.26,0,0,0,0-.41H37l-.56.05c-.36-.36-.59-.76-.49-.89s.49-.5.52-.35a1.42,1.42,0,0,0,.84.64l.37.06a1.46,1.46,0,0,0,1.12-.39l.1-.07a2.25,2.25,0,0,0,.56-.28c.15-.12.17.42,0,.53l-.19,0-.12,0a.66.66,0,0,0-.27.4c0,.17.21.68.34.66a1.77,1.77,0,0,0,.75-.33c.14-.15.07-.75.1-.86l.06-.08s.17,0,.25,0,.15.09.14.12c-.07.2-.17.39-.23.58s.08.14.14.17l.26.09c.4.11.65.09.56-.06l-.06-.06c-.16-.18-.18-.34.12-.4.09,0,.27.13.32.23l.05.12c0,.15.3.13.72,0l.27-.2.1-.07c-.06-.24-.21-.42-.33-.41s-.53-.09-.53-.27.12-.65.27-.61l0,.08.28.48c.56,0,1-.12.9-.17l0-.06c-.15-.26.16-.21.24-.18l.44.14c.55.22.7.53.32.69l-.25.13c-.05,0-.05.14,0,.2s.13.15.16.14a3.09,3.09,0,0,0,.69-.22.62.62,0,0,0,.22-.32l.13-.24c.14-.3.4-.53.58-.52a4.31,4.31,0,0,1,.64.08.53.53,0,0,1-.27.11c-.15,0-.47.36-.29.66l.17.24.06.08a.38.38,0,0,0,.41,0l.1-.07.08-.07c.09-.06.27.07.4.29h.11a1.33,1.33,0,0,0,.68-.21l.13-.09a4.59,4.59,0,0,1,.12-.64,3.75,3.75,0,0,1,.86-.71c0,.05-.31.54-.27.73a1.39,1.39,0,0,0,1.2.59l.46.32.24.16a4.69,4.69,0,0,1,0-1.09l.52.09c.49.09-.12.24,0,.33a.5.5,0,0,0,.33.09l.13-.12a.4.4,0,0,1,.56-.15l.19,0,.59.17c.64-.15,1.86-.39,2.71-.53l.08.08.15.18a1.35,1.35,0,0,1,.65.12l0,0c.24-.2.62,0,.78-.13l.16-.15a2,2,0,0,1,.42-.74l.17-.05.11,0a4,4,0,0,1,.53.45c.12.12.6.46.67.55a1.45,1.45,0,0,0,1.17-.29l.68.37c.51.29.28-.59.81-.41a.8.8,0,0,0,.15-.26c0-.05-.1-.17-.13-.16l-.71.11c-.22-.44-.41-.83-.42-.86a.32.32,0,0,1,.25-.14l.12,0,.09,0c.22-.15.34-.15.27,0s0,.55.28.58,1.3-.11,1.77-.14,1.57,0,1.5.07a1.53,1.53,0,0,1-1,.26l-.17.12-.35.25c-.29-.15-.45-.07-.37.18l.18.16c.18.16.63.35.71.29.46-.31,1,0,1.42-.16.12,0,.2-.16.32-.24s.44-.21.51-.36l.1-.21c0-.28.34-.5.79-.5h.39c0,.12-.07.23-.27.23s-.68.09-.68.21a1.33,1.33,0,0,0,.92.65c.51.07,2.07,0,2.33.3l.21-.47c.11-.25-.21-.42-.54-.5a.86.86,0,0,1-.41-.25l-.08-.07c0-.12.11-.25.28-.29h.27a1.13,1.13,0,0,0,.46-.1c.14-.06.5,0,.39.08s-.3.6-.13.72l.15.08.17.1a.38.38,0,0,0,.51-.25l0-.19c0-.12-.23-.19,0-.32l.09,0c.12-.08.23,0,.25.09a.85.85,0,0,0,.81.36l.33-.06.21,0,.8-.09c.21,0,.75,0,.83.22s.5.71.63.68a1.42,1.42,0,0,0,.56-.32c.07-.11-.07-.55-.37-.71s0-.84.15-.73.6.38.64.31l0-.06,0-.07c0-.08.08,0,.08.09s0,.52,0,.58a.35.35,0,0,0,.28.25l.11,0a1.54,1.54,0,0,0,.29-.23c.31-.24.54-.27.59.16a.52.52,0,0,0,.25,0l.4,0c.24-.26.41-.35.38-.2s0,.59.16.49.62-.29.65-.22l0,0c.32.32.86.54,1,.39.33-.38-.24-.31-.38-.46L80,38.15a3.66,3.66,0,0,1,0-.88l.2-.15a.37.37,0,0,1,.34,0,.3.3,0,0,1,.11.28l-.05.16a.3.3,0,0,0,.19.43l.16.11c.23.15.36,0,.57,0l.2-.08a1.49,1.49,0,0,1,.82.41c.16.19,0,.82-.25.87L82,38.92c-.41-.43-.5-.42-1.12,0-.12.09-.32.09-.45.16l-.33.19c0,.3.46.43.92.3l.41-.13,1.2.39.15,0a6.19,6.19,0,0,0,1.28-.6l.62,0h.64c.23-.1.33-.26.23-.35l-.1-.06a.43.43,0,0,0-.25,0l-1,.13a7.47,7.47,0,0,0-.76-.72.28.28,0,0,1,.15-.47c.3-.13,1.11.4,1.28.45s.55-.34.81-.51l.22,0,.74.12c.59-.15,1-.44.86-.64s-.12-.71.27-.62l.26-.37.08-.12c.09-.14-.55,0-1.44.32l-.5-.89a.6.6,0,0,0-.34.07l-.18.17c-.19.23-.36.32-.38.19l0-.1-.16-.45c-.42-.18-.67-.2-.57-.06S83.72,36,83,36l-.66,0-.64,0a10.12,10.12,0,0,0-2.25,0l-.17.22c-.32.43-.78.4-1.21.57l-.47.18c-.1-.21.2-.45.66-.53l.37-.15L79,36c.37-.29.41-.54.1-.57l-.18.06-.51.15a12.39,12.39,0,0,1-1.47.46,10,10,0,0,1-1.69-.45v.41c0,.17-.25.25-.55.17s-.77.62-.79.86v.21c0,.17,0,.43-.29.37l-.52-.09c.29-.12.53-.37.53-.55s-.3-.6-.66-.42l-.08,0c-.5-.34-1.16,0-1.62-.29l-.38-.2a.72.72,0,0,1-.29.58l-.2-.27c-.07-.1,0-.32-.27-.13a.39.39,0,0,0-.16.3v.12c.12.15-.05.33-.38.39s-.88-.43-1-.52a.75.75,0,0,0-.86.17l-.82-.13c-.17,0-.36,0-.54,0s-.26-.09-.27-.15,0-.36-.36-.14a1.47,1.47,0,0,1-.77.07c-.19,0-.39-.21-.56-.19s-.22.37-.31.36l-.74-.06a1.7,1.7,0,0,1-1.88.24l-.86.1a1.34,1.34,0,0,1-1.34-.35,1.12,1.12,0,0,0-.35-.09l-1,.75c-.27.23-.49.58-.94.16a.61.61,0,0,0-.51,0l-.49.42c-.17-.34-.49-.52-.71-.41s-.64.2-.63,0-.61.13-.66.15a5.78,5.78,0,0,1-1-.12l0,.48,0,.35c-.27,0-.52.13-.55.23s-.22.35-.36.29a4.32,4.32,0,0,1-.55-.31.14.14,0,0,1,.09-.23c.15,0,.26-.22-.1-.38s-1.19.2-1,.39.68.65.48.78l-.14.09a2.59,2.59,0,0,1-1.51.21c-.06,0-.18-.16-.17-.23s.14-.16.24-.19a.26.26,0,0,1,.22.06l.41.37a.59.59,0,0,0,.06-.76c-.18-.16-1.23-.37-1.43-.68l0-.5v-.08c0-.09,0-.15-.12-.14s-.33.31-.45.57-.54.74-.66.42l-.51,0c-.5,0-1,.3-1.53,0L45.2,38l-1.32.39-.29-.28a.36.36,0,0,0-.28-.06l-.42.26a4.78,4.78,0,0,1-1.48.26l-.25,0c-.1,0-.22-.07-.29,0a3.38,3.38,0,0,1-1.58.28h-.07a.31.31,0,0,0-.45,0c-.13.14-.62.44-.62.15s-.38-.84-.83-.65l-.26.26-.27.28a4.17,4.17,0,0,0-.48-.43h-.09c-.09,0-.24.13-.23.19l.08.66c-.64,0-1.07-.15-1-.26s.31-.47.23-.6h-.05l-.78,0c-.15.5-.35.8-.46.67a1.29,1.29,0,0,0-.75-.38c-.2,0-.5.53-.66.58l0,0-.11-.09c-.05-.15-.18-.23-.28-.18l-.1,0a1.83,1.83,0,0,1-.52,0l-.46,0c-.57-.07-1.05,0-1.08.06s-.18.26-.25.06S29,38.92,29,39s-.18.43-.3.47l0,0L28,39a11.1,11.1,0,0,0-1.63.44l-.19-.12c-.29-.19-.48-.09-.48.22,0,.07,0,.17,0,.21a.6.6,0,0,1-.3.14h-.06a2.77,2.77,0,0,1-.44-.48,2,2,0,0,0-1.1-.52,4.36,4.36,0,0,1-.7.48c-.25.11-.53.67-.63.64v0c0-.22-.08-.39-.35-.3s-.13.29-.2.45l0,.06c-.05.07-.06-.07,0-.31S21.66,39,22,38.8l.27-.2.11-.09c.12-.15-.16-.27-.61-.25l-.2.14a.65.65,0,0,1-.9,0,.68.68,0,0,0-.58.1c-.1.1,0,.35,0,.49l.09.15a.29.29,0,0,1,.11.46,1.55,1.55,0,0,1-1.05.41l.38-.33.38-.32c-.41-.16-.76-.13-.79.06s-.1.55-.12.34-.72,0-.87-.12-.7-.44-.84-.3-.49.39-.41.18-.71-.07-.71.1a1,1,0,0,1-.92.72l-.43,0c-.28,0-.55.16-.83.2-.43.07-.19-.39-.43-.41l-.39,0c-.45.1-.7.2-.56.22A.49.49,0,0,1,13,41l-.35-.15c-.35-.16-.44.37-.78.08-.15-.12-.48-.09-.71-.17s-.5-.27-.77-.35l-.19,0c-.33,0-.5.2-.37.35s.38.53.31.59-.38.18-.47.08-.37-.31-.41-.21-.35.1-.62-.15H7.83c-.29.06-.71.18-.92.25l0,0c-.29-.31-.44,0-.59.1a.46.46,0,0,1-.67,0l-.08-.07c-.2,0-.34.13-.32.21a.79.79,0,0,1-.47.61l-.14-.4-.09-.28a7.64,7.64,0,0,1-1.07.07H3.11c-.28,0-.55-.37-.88,0l0,0c-.31-.13-.51-.28-.43-.33s.57-.29.9-.46l.23-.2c.11-.09-.32-.31.05-.45a4.29,4.29,0,0,1,.65-.31l.47-.11a1.85,1.85,0,0,1,.5-.7c.12,0,.46,0,.49-.21s-1.1-1.19-.94-1.15.67,0,.75-.23.54-.57.78-.22v.25l0,.19c-.33.23-.19.54.3.67l.24.23.23.23c.35.18.64.17.64,0s.19-.65.42-.55l0,0,.24-.19a1.45,1.45,0,0,1-.24.9l-.18.31-.4.65c.14.44.39.59.57.33a9,9,0,0,1,.86-1.45l.08-.37c0-.21.22-.05.25.11l0,.36a2.57,2.57,0,0,0,.83-.42c.15-.14,1.23,0,1.84-.18l.58.22c.14.05.47.1.48-.2s.45-.4,0-.59l-.1,0c-.19-.21-.18-.34,0-.29a3.36,3.36,0,0,0,.87.16c.25,0,.85.4,1.38.26l.51,0a.72.72,0,0,0,0-.29s-.14-.06-.22-.07h-.17c-.19,0-.34-.06-.31-.15h0l.3,0a.56.56,0,0,1,.66.46l.15.1.24.15a10.74,10.74,0,0,1,1.63-.47l-.55-.57s0-.12.09-.14a.38.38,0,0,1,.26,0l.74.44a3,3,0,0,1,.3-.75s.19,0,.2.23l.07,0,.59.14a4.26,4.26,0,0,0,.37.86.27.27,0,0,0,.29,0c.09-.07.38-.19.44-.12a.6.6,0,0,0,.64,0l.26-.07.83-.24c.16-.63.3-1.18.33-1.21a.66.66,0,0,1,.43,0c.18.08-.07.91.1,1a3,3,0,0,0,1.42-.29l.4-.24c.05,0,.05-.14,0-.21a.21.21,0,0,0-.16-.1h-.62c0-.26.24-.42.55-.36s1,.48.88.57.05.48.51.71a2.25,2.25,0,0,0,1.71-.43l-.06-.12-.09-.18a2.65,2.65,0,0,1,1.1-.62c.41-.12,1.57.08,1.66-.13s.42-.78.49-.67a.46.46,0,0,0,.67-.09l.19-.17c.07-.07.34-.08.34-.08.31.79,1.1.32,1.66.43a.63.63,0,0,0,.35-.09s0-.14,0-.21v0a3.87,3.87,0,0,0-.82-.1h-.33c-.24,0-.46-.18-.7-.19l-.34,0a5.79,5.79,0,0,0-.57-.64c-.17-.15-1,.15-1.12.17s-.51-.15-.43-.39.08-.9-.06-.92l0,0c-.25.21-.46.6-.73.62l-.49,0a8.88,8.88,0,0,1-.89.75l-.51-.43-.18-.16a2,2,0,0,0-.7-.35l-.14,0-.62.17-.46-.53s-.3.08-.47.33l-.24.14c-.23.12-.62,0-.82.24,0,0-.19,0-.26,0-.26-.11-.5-.25-.75-.37s-.34.25-.6,0l-.15-.16c-.36-.05-1.16-.19-1.79-.3l-.47-.38-.21-.18c-.49,0-.87.22-.84.4s-.48.72-1.16.72l-.6.08c-.5.06-.21-.43-.56-.46a4.93,4.93,0,0,1-.87-.13l0,0c0-.23-.21-.18-.39.11l-.16.19a.46.46,0,0,1-.35.06c-.08,0-.16-.23-.12-.27l.32-.3c-.07-.41-.22-.65-.33-.52s-.42.43-.46.41a.27.27,0,0,1,0-.28c.06-.13,0-.53-.32-.53s-1.05.13-1,.28-.51.66-.63.78-.46.35-.51.28-.29-.1-.46.13S9.15,33,9,32.92s-.49-.2-.53.11L8,32.87c-.33-.12-.41-.3-.2-.63s-.1-.14-.33-.1l-.35.07a.7.7,0,0,1,.58-.44l.08-.08.13-.14a.7.7,0,0,0-.13-.62l0,0-1,.46c-.37-.64-.7-1.17-.72-1.17a1.08,1.08,0,0,0-.44.43c-.13.24-.45.59-.42.25l-.54,0H4.46A.31.31,0,0,1,4,30.8c-.08-.16-.5-.28-.71.16l-.19.34s-.17,0-.24,0H2.81a1,1,0,0,1-.13-.4c0-.16,0-.64.37-.75s.07-1,.14-1.05.23-.39.19-.43h0l-.35,0a3.46,3.46,0,0,1-.86-.54L2,28.32l-.08.06c.07.26,0,.52-.12.58s-.56,0-.48-.26l0-.21a.93.93,0,0,0,0-.44,1,1,0,0,0-.28-.55l-.17-.13a1.2,1.2,0,0,1-.6-.15,9.24,9.24,0,0,1,.3-1.33l1-.05.4,0c.38-.21.52-.39.32-.41s-.55-.2-.22-.37l.23-.15.18-.12a2,2,0,0,1,.74.28l.18-.19s-.18-.21-.21-.33,0-.28.27-.14l.1,0c.35-.11.26-.33-.2-.49l-.32-.07-.11,0c-.15.07-.24.06-.21,0s0-.36-.11-.4-.48-.2-.44-.29a.3.3,0,0,0-.28-.34c-.24,0-.15.75-.26.81a1.56,1.56,0,0,1-.68.13c-.15,0-.45-.32-.42-.43l.06-.08a.3.3,0,0,1,.25,0l.11,0c.2.14.32,0,.28-.29s.37-1,.63-.83.69-.42.6-.45-.29-.16-.25-.24h0c.44,0,.6-.3.82-.49l.1-.1c-.07-.25-.06-.5,0-.54a1.17,1.17,0,0,1,.71,0c.18.1,0,.62.1.73a3.58,3.58,0,0,0,.6.4.2.2,0,0,0,0-.22,4.43,4.43,0,0,1-.17-.64,1.07,1.07,0,0,1,.5-1.1l.63.36L5.9,20A4.84,4.84,0,0,1,6.35,19.33Zm190.9,14.76a1.78,1.78,0,0,1-.85,0l-.28-.08a1.68,1.68,0,0,0-.67-.16c-.18,0,0,.46-.44.38h0a1.39,1.39,0,0,0,0,.41c0,.12-.67.06-.68-.08s-.2-.49-.39-.38l-.15,0-.16.05a2,2,0,0,0-.74.31c-.23.16-1,.09-1.08-.18l.25-.23.2-.18a.58.58,0,0,0-.75-.21c-.2.15-.63.66-.44.71s.06.46-.2.53l-.21.11c-.08,0-.11.18-.11.28s.1.12.17.13l.33.05a2.36,2.36,0,0,0,.88,0l.06-.07c.11-.14.15-.38.3-.43s.36.18.55.17h.33a1.55,1.55,0,0,1,1.09.2l.34-.28.37-.29c.24.29.49.44.55.35a.62.62,0,0,1,.46-.12.31.31,0,0,0,.27.06c.11,0,.44,0,.45,0a2.8,2.8,0,0,1,.45-.42,2.18,2.18,0,0,0,.64-1l-.1,0c-.23-.07-.4,0-.4.26Zm-95.37,2.06c.07.13-.25.14-.71,0l-.21.32-.15.22c-.12.3.38.43,1.1.29h.33c.16,0,.26-.12.21-.18s.13-.44.51-.71l-.65-.48-.1-.07c-.1-.09-.32-.31-.49-.5h-.55c-.26,0-.37.11-.24.25S101.81,36,101.88,36.15Zm50.81-.42c.25-.1.44-.07.41.07l.06,0,.44.26c.79-.27,1.35-.6,1.25-.74s-.83.09-1,.12a2.73,2.73,0,0,1-.85-.12c-.16-.07-.58-.13-.67,0s-.43.35-.54.26-.53-.21-.7-.1a3.66,3.66,0,0,0-.53.53s.12.11.3.07.61,0,.57.08a.39.39,0,0,0,.28.43H152A2.55,2.55,0,0,1,152.69,35.73Zm-43.32.35c0-.07.1-.12.29-.12a1.85,1.85,0,0,1,.72.13v0c.07.17-.17.47.27.49l.36,0a.75.75,0,0,1,.37-.69l.21,0,.24,0c.24,0,.22-.1,0-.2l-.14-.24c0-.07-.39-.06-.6,0l-.43,0c-.28-.16-.4-.39-.28-.51s.33-.45.25-.53-.43-.24-.57-.09,0,.95-.17,1.07-.6.37-.68.3-.36-.2-.46-.09h-.08a.65.65,0,0,0-.82.44l0,.1a7.18,7.18,0,0,0-2.26,0,3.62,3.62,0,0,0,1.09.42l.3-.24.17-.13a1.31,1.31,0,0,0,.41-.45c0-.09,0-.22-.25-.06a2.33,2.33,0,0,1-1.19.24c-.14-.06-.5-.48-.38-.76l0-.27v-.13a1.36,1.36,0,0,0-1-.09l-.37,0a.27.27,0,0,0-.12.27c0,.06.19.16.27.15l.15,0a.3.3,0,0,1,.41.08c.07.14,0,.47-.34.35l-.2.07-.48.16a4.67,4.67,0,0,0-.58-.62h-.18a2.14,2.14,0,0,0-.23.74l.34.24.28.2c.23.28.49.28.58,0l.51.12.36.09c1.28-.17,2.34-.15,2.34,0l.1.06c.17.1.39.1.45-.17a.41.41,0,0,1,.32-.21c.28,0,.55.12.84.16l.14,0a.24.24,0,0,0,.19-.33l-.06-.12ZM23,43.86a1.53,1.53,0,0,1,1.07.11l.43.12a.48.48,0,0,0,.35-.2c.07-.13,0-.15.28-.14l.63,0c.69,0,1.41.1,1.59.09l.16,0,.47-.14c.58-.19.86-.38.61-.41l-.09-.07-.16-.11c-.12-.11,0-.08.34.06s1.32.11,1.32-.06v-.14c0-.17-.05-.41.06-.51l.39-.34a1.07,1.07,0,0,0-1,.52l-.84-.23-.36-.1c0,.27-.23.49-.39.47A6.24,6.24,0,0,0,27,43a4.44,4.44,0,0,1-1.08-.32c-.29-.1-1.1.36-1.34.55l-.21.18c-.33.27-.3.28-.56,0a2.45,2.45,0,0,0-.53-.48l-.11-.07c-.19,0-.35,0-.37.11a.48.48,0,0,1-.41.24c-.19,0-.09.51,0,.64S22.89,44,23,43.86ZM99.8,35c.16.68,0,1.12-.37,1l-.27.06-.24,0a.36.36,0,0,1-.67,0l-.3.27a1.38,1.38,0,0,1-1.07.31.6.6,0,0,0-.59.31c0,.09-.16.15-.23.23l-.13.17a2.56,2.56,0,0,0-.25,1.18l.24.07.18.05a.9.9,0,0,0,.55-.45l-.34,0c-.34,0-.34-.24-.19-.37l.27-.22c.36-.18.79-.39,1-.46a1.24,1.24,0,0,1,.81.31c.11.13-.19.55-.3.55s-.46.17-.44.37a.49.49,0,0,0,.73.32c.39-.23.54-1.55.7-2l.28.17c.42.25.53,0,.69-.14l.12-.12c-.54-.81-.84-1.38-.66-1.27a5,5,0,0,1,.72.58.38.38,0,0,0,.53-.42l-.4-.29ZM94,37.31c.25-.7.12-1.4-.28-1.55h-.36a11,11,0,0,0-1.24.19,5.48,5.48,0,0,1-.89-.09h-.09l-.49,0c-.17,0-.48.34-.38.48s-.15.57-.16.58a3.7,3.7,0,0,1-.76,0L89,36.83c-.08,0-.2-.14-.2-.21a.3.3,0,0,1,.2-.21l.19,0c.25,0,.15-.27-.23-.58l-.37.26c-.22.15-.26.49-.34.75s.35.22.51.35.48.62.94.18h0a3.41,3.41,0,0,0,.53.21c.2.07.44-.29.44-.42s.21-.55.46-.38.88.34,1.07.16l.18,0c.21,0,.4.37.65.13s-.18-.4-.32-.59l0,0c-.06-.11.2-.06.59.11s1.46.78,1.54.44l.06-.27.42-1c-.1,0-.27-.15-.3-.13l-.19.12a.37.37,0,0,0,0,.55l-.14.21-.13.2c-.07.27-.27.46-.44.41L93.91,37c-.2-.15-.43-.2-.55,0s0,.32.33.34Zm90.17-2c.17,0,.22-.18.1-.36l-.15-.12c-.15-.13.34-.3,0-.47-.21-.1-.34-.23-.57-.06l-.07,0-2.4-.18-1.15.28-.46.12c-.39-.27-.86-.38-1-.24s-.63.44-.7.37-.48-.14-.6,0-.22.78.22.61l.27,0h.18a7.54,7.54,0,0,1,1,.15l.27.07.2,0a4.52,4.52,0,0,0,1.14-.49l.08,0,.74.14c0-.46.32-.49.73-.06l.39.35.42.38c.54.36,1.05.57,1.14.48S184,35.31,184.14,35.29ZM125,38.71c.31,0,.56,0,.53,0h0l-.35-.15a5.46,5.46,0,0,1-.91-.23l0-.05,0-.06a1.11,1.11,0,0,1,.55-.31c.27-.1.48-.73.65-.72h.24c.11,0,.18-.08.16-.2l-.06-.08s-.16,0-.24,0-.48.06-.47-.23,0-.33.34-.47l.42-.19c.43-.4.8-.62.83-.49s.22.42.37.32l.14,0a3,3,0,0,1,.61-.11l.08,0a1.2,1.2,0,0,1,.42.41l.36-.19.17-.09.81.13a2.17,2.17,0,0,0,.76-.33l.21.15.13.09c.28,0,.51-.17.51-.34s-.24-.65-.53-.66-1,.2-.95.26-.43.24-1.28.23l-.7,0a1.27,1.27,0,0,1-1.15-.41l-.22-.28a3.64,3.64,0,0,0-1,.71l-.35,0-.8-.1c-.58.4-1,.9-.88,1.1l.32-.21a2.29,2.29,0,0,1,.55-.24l.17-.06a1.48,1.48,0,0,1,.2,1l.13.32c0,.12-.15.43-.18.43-.73-.14-.5.42-.73.64l-.16.16A7.05,7.05,0,0,0,125,38.71Zm73.11-3.81c0,.1.39.22.86.26l.34-.11c.42-.13.72.41,1.15,0l.16-.13a4.65,4.65,0,0,1,.94.25c.14.08.37,0,.18-.31s-.81-1.15-.64-1.3-.43-.56-.92-.3l.07.53v0c-.38.09-.62.1-.52,0s.21-.28.14-.34-.24,0-.17.27-.18.93-.39.85-.6-.9-.73-.89-.51.08-.45.12.28.26.42.41S198.08,34.81,198.08,34.9Zm-9.38-.16c.22,0,.08-.39-.31-.92l-.75.58s-.33,0-.44-.14l-.34-.29-1.26.26-.13-.08c-.21-.13-.31-.16-.5,0l-.13.13c-.29.13-.32.25-.07.28a2.16,2.16,0,0,1,.94.54,4.18,4.18,0,0,0,1.71.86l.44,0c.07,0,.19-.15.18-.22s-.12-.19-.21-.2l-.27-.05c-.37,0-.53-.11-.38-.22A6.49,6.49,0,0,1,188.7,34.74ZM16,45c0,.11,0,0-.09-.21s.64-.65.82-.62.49-.26.35-.38l-.13-.1-.1-.08c-.13-.11-.27,0-.31.16l-.07,0a.92.92,0,0,1-.49.07l-.26,0c-.34-.12-.53-.08-.43.08s-.59.44-.71.2-1,.06-1,.33.2,1,.45,1a3.57,3.57,0,0,0,1.05-.59C15.22,44.65,16,44.87,16,45Zm61-4.22a.7.7,0,0,0,.75.71l.35,0h.06a.27.27,0,0,0-.21-.36L77.81,41l-.08-.09a.27.27,0,0,1,.28-.29l.14,0a.41.41,0,0,1,.27.22l.06.23c.22.05.43,0,.47-.08a1.53,1.53,0,0,0-.09-.66l-.14-.12a.7.7,0,0,0-.44-.07l-.52.07a2.65,2.65,0,0,0,.11-.52.45.45,0,0,0-.35-.23l-.11.07c-.34.2-.55.23-.59-.19a.83.83,0,0,0-.43-.08h0C76.33,39.46,77,40.39,76.92,40.77Zm52.15-3c0,.2.22.35.49.35h.32c.17,0,.08-.15-.2-.45l-.25-.27,0,0a.2.2,0,0,1,.27-.1c.11,0,.43,0,.48-.11a1.82,1.82,0,0,0,.12-.84l-.19-.12-.09,0a2,2,0,0,0-.78.44l-.31,0-.41,0a1.88,1.88,0,0,0-.57.78c0,.21.51.39.49.19S129.07,37.61,129.07,37.8Zm41.11-1.89c0,.27.22.31.5.1a10.58,10.58,0,0,0,1.18-1.13l-.34-.16a.78.78,0,0,0-.84.05l-.15.1h-.73l0,0c-.08-.11-.1-.27-.21-.36a.4.4,0,0,0-.34,0l-.08,0a1.45,1.45,0,0,0,.07.49c0,.15-.22.54-.24.57s.05,0,.19-.24S170.18,35.65,170.18,35.91ZM232.93,32c.2-.06.31.1.25.36s-.08.93.12.81.85-.08,1.13-.32-.19-1.17-.46-1.19-.93-.18-1.13-.05a4,4,0,0,0-.63.5A3.29,3.29,0,0,0,232.93,32ZM20.84,18.6a.72.72,0,0,0-.65.57l-.51.28a.33.33,0,0,0-.11.18c.39.23-.27.33-.1.51s.36.27.54.41l.25.2a.61.61,0,0,0,.91-.13l.18-.31,0,0a.42.42,0,0,0-.43-.09c-.16.05-.61-.39-.51-1.11l.81-.28.19-.06a1.06,1.06,0,0,0,.41-.06A8.16,8.16,0,0,0,20.84,18.6ZM63,35a.27.27,0,0,1-.35-.1.6.6,0,0,0-.79,0l.21.39c.11.2-.24.32.06.57l.34.3c-.5.15-.72.27-.47.28s.74.13.74-.14a6.92,6.92,0,0,1,.06-1,.31.31,0,0,1,.16.21c0,.12.25.43.4.41l.11,0,.16,0c.23-.09,0-.3-.41-.48l.11-.23c0-.06.18-.11.17-.15s-.06-.32-.14-.34c-.28-.07-.4.07-.37.3Zm52.34,2.9a.55.55,0,0,0,.76.2l.25-.14c.23-.13.34-.57.14-.6-.39-.07-.71-.48-1.18-.23-.13.07-.19.2-.39,0l-.38-.3a.71.71,0,0,0,.11.92l.31,0ZM44.43,34.1c.19.46.49.76.67.66s-.27-.84-.52-1.16l0-.38a.5.5,0,0,0-.31-.11.34.34,0,0,0-.21.21c0,.1,0,.22,0,.32v0a.19.19,0,0,1-.24-.16.62.62,0,0,0-.55-.39l-.21,0h0c0,.05.09.18.25.29s-.15.64-.13.75h.14Zm105,2c.18.26.42.38.53.25s-.38-.53-.49-.58-.67,0-.91,0h-.22c-.21,0-.46.14-.63.08l-.63-.2c-.15.42.42.84,1.27.94l.53-.22Zm90.19-8.51c.35.16.52.39.37.51l0,0,.32.43c.53-.22,1-.65.95-.94l-.37,0c-.48-.05-.61-.39-.93-.56l-.1-.06a.59.59,0,0,0-.5.11c-.13.11-.37.6-.23.83l.38-.26Zm-56.72,9.61c-.3.18-.45.48-.32.67s.64.64.79.4.61-.79.73-.77l.09.06c.18.14.4.24.54,0s-.09-.34-.23-.43a.78.78,0,0,0-.59-.11c-.25.15-.49,0-.7.06Zm-15.36-1.75c0-.18-.25-.37-.66-.41s-1.55.16-1.71.1,0,.45,0,.57a.42.42,0,0,0,.63.07l.24-.15.22-.14c.28-.09.58,0,.67.1S167.53,35.64,167.58,35.47ZM118,35.84a.68.68,0,0,0,.62-.06c.11-.1.34-.44.22-.48a1.29,1.29,0,0,0-.93.23l-.5-.21a2.87,2.87,0,0,0-1.06,0h-.07a.39.39,0,0,0-.16.36A13.19,13.19,0,0,0,118,35.84ZM30,12c-.26-.05-.29-.32-.07-.6l.11-.25c0-.09-.13-.24-.21-.36s-.25,0-.39,0l-.34,0a.6.6,0,0,0,0,.62c.11.12-.19.55,0,.81l.19.2a.54.54,0,0,0,.44.11c.19-.12.51-.25.38-.51ZM233.28,19.8c-.11-.09-.29.27-.42.79l.79-.05c.19,0,.38-.19.56-.19h.2c.27.14.48.1.46-.07a3.44,3.44,0,0,0-.23-.89c-.09-.18-.8,0-.83.15S233.38,19.88,233.28,19.8Zm12.28,7.72c.18-.26.05-.46-.29-.43s-1.15-.2-1.14,0,.27.7.38.69.47.09.71.11l.13-.13ZM48.65,42.41a.4.4,0,0,0,.43,0l.52-.07a.25.25,0,0,0,.17-.1c0-.06,0-.18,0-.2l-.34-.16c-.4-.16-.56-.48-.36-.72L48.73,41l-.13-.08c-.18,0-.35,0-.38.09a3.45,3.45,0,0,0,.23.87L47.9,42l-.16,0c-.13.32-.13.48,0,.36A1.36,1.36,0,0,1,48.65,42.41Zm58.55-4.75c-.08-.11-.41.07-.73.4l-.49-.12c-.2-.06-.37-.15-.57-.2s-.34,0-.34,0a.56.56,0,0,0,0,.36.43.43,0,0,0,.28.23l.44,0a4.49,4.49,0,0,0,.93.49c.16,0,.31-.37.22-.52h-.27c0-.09.05-.18.19-.2S107.28,37.77,107.2,37.66Zm124.31-5.39a.66.66,0,0,0-.78-.26l-.07-.06-.41-.32c-.13.29-.08.54.11.57s.68.17.57.26-.3.37-.17.41a2.47,2.47,0,0,0,1.05.09l.34.13.06,0c.12-.09,0-.26-.2-.38l-.24-.08a.32.32,0,0,1-.14-.16ZM25.59,10c.35.14.66,0,.71-.26l-.1-.12a1.34,1.34,0,0,0-.65-.53c-.47-.11-.61.35-.92.52,0,0,0,.15,0,.21l-.11.17c0,.19.16.36.41.36v-.29a.8.8,0,0,1,.46-.1ZM173.44,34.57a1.7,1.7,0,0,0-.55-.2l-.07.06c-.1.07-.19.27-.14.33l.08.09c.2,0,.2.13,0,.2l-.07.1a.35.35,0,0,0,.08.36l.14.11c.21.05.6.14.88.19l.24-.07c.07,0,.2-.07.2-.11s0-.23-.07-.28l-.12-.09c-.18,0-.29-.13-.24-.21S173.56,34.66,173.44,34.57ZM97.82,36c.52-.08.92-.24.91-.34s-.11-.25-.17-.12l-.09.07-.08.07a5.55,5.55,0,0,1-.84,0c-.32,0-1.16,0-1.18.17s-.53-.06-.6,0a.25.25,0,0,0-.09.33l.12,0,.16,0,1.09-.1.35,0ZM27.87,9.63c-.19.12-.3,0-.24-.16l0-.1,0-.08c0-.08-.06-.17-.24-.19l0,0c-.13.2-.18.44-.56.47,0,0-.08.32-.06.48s.31.09.43.05l.14,0h.78C28.45,10.11,28.06,9.52,27.87,9.63Zm88.3,25.21c.29.06.46,0,.36-.06a4.3,4.3,0,0,0-.67-.62l-.16.06c-.24.1-.36.21-.61,0l0,0c-.34.19-.5.43-.36.53A13.86,13.86,0,0,0,116.17,34.84ZM38.55,30.58c-.5-.31-.93-.24-1,.17l.38.08.18,0a.66.66,0,0,1,.89-.09c.19.22.84-.12.7-.29a2.6,2.6,0,0,0-1-.64v0ZM32,42.46c-.34,0-.55,0-.47.17l.09.12.12.16c.15.18.37.14.49-.08l.14,0,.55-.13c.63-.09,1-.26.74-.39S32.36,42.5,32,42.46Zm83.51-6.81c0-.18-.52-.16-1.14.05l-.48.23c-.15.08.16.26,1.23.46l.11,0a.45.45,0,0,0,.28-.44v-.32ZM36.47,44c.11-.08.23-.12.28-.09v0c0,.23.09.42.46.35a1.39,1.39,0,0,0,.34-.08V44a1.46,1.46,0,0,0-.37-.6.71.71,0,0,0-.9.13C36.06,43.89,36.37,44.11,36.47,44Zm-29.19-20c.11-.11.14-.22.08-.24h0a2.31,2.31,0,0,1-.73.41c-.24,0-.53-.13-.81-.18a.61.61,0,0,0-.35.07v.12c0,.14.33.25.62.24s1,.22,1.28,0l0-.32ZM39.38,34a.33.33,0,0,0-.3.47l.42.39a.78.78,0,0,0,.33.21l.19,0a.44.44,0,0,0,.13-.51v-.27C40.25,34.14,39.62,34,39.38,34ZM157.8,35.56c-.23,0-.13.35.22.77l.37.21a1.16,1.16,0,0,0,.94,0c.27-.37-.34-.27-.51-.42L158.7,36c-.22-.06-.36-.14-.32-.19S158,35.56,157.8,35.56ZM18.28,31.41c-.09.17-.14.31-.12.33a.54.54,0,0,0,.31-.15,3,3,0,0,0,.56-.78A3.13,3.13,0,0,0,19,29.7l-.13-.07-.19-.11a3.71,3.71,0,0,0-.43.57l0,.12.07.22A2.87,2.87,0,0,1,18.28,31.41Zm163.47,1.3a.31.31,0,0,0,.09-.5l.36-.21.24-.14a.92.92,0,0,0-.65-.32l-.23,0a.47.47,0,0,0-.46.59l0,.12c0,.11,0,.26,0,.32s.12.23.29.22l.14-.05ZM71.14,40.39c.08-.16.22-.17.32,0s.66.25.41.06l-.13-.16c-.07-.09.51-.31-.1-.36-.23,0-.49-.2-.67-.14l-.3.09a1.76,1.76,0,0,1-.27.76l0,.13c0,.07.06.23.14.26l.09,0A2.09,2.09,0,0,0,71.14,40.39Zm100.73-3.66c-.3,0-.21.07.21.11a8.15,8.15,0,0,0,1.61,0c0-.07.14-.31.08-.38a.47.47,0,0,0-.44-.16A10.45,10.45,0,0,1,171.87,36.73Zm-161.13,8c.22,0,.23-.15,0-.29s-1,.32-1.31.37l-.24-.06a.48.48,0,0,0-.29.15s0,.18,0,.19a8.13,8.13,0,0,0,1.18.29c.09,0,.36-.31.33-.34-.19-.18-.26-.28.12-.3ZM46,34.45c0-.11-.08-.21-.12-.22a.43.43,0,0,0-.27.15,2.69,2.69,0,0,0-.19.72,9.22,9.22,0,0,1-.28.88c0,.11,0,.23.18,0l.14,0c.81-.32.46-.89.52-1.37Zm-9.25,2c-.3.11-.32.19,0,.17s.86.43,1,.4a1.11,1.11,0,0,0,.45-.48,2,2,0,0,0,.18-.77h-.05c-.12,0-.28,0-.34.08l-.07.07a1.57,1.57,0,0,1-.25.66l-.62-.1Zm43.11,2.76c0-.21-.42-.31-.89-.23l-.35.08c-.21.05-.22.41,0,.42.4,0,.37.18.42.41l0,.17c.17.18.39.19.48,0L79.46,40c-.14-.13-.2-.2,0-.32a.92.92,0,0,0,.35-.32ZM28.35,11.8c0-.1-.55-.28-1.23-.41l-.58-.08c-.09,0-.27.07-.29.14a.27.27,0,0,0,.11.27,4.48,4.48,0,0,0,1,.23l.36,0C28.05,12.09,28.35,11.89,28.35,11.8ZM5.19,24.06c-.48-.62-.87-1-.86-.88a5.21,5.21,0,0,0,.2,1.09l.07.34c0,.05.21.12.31.11a.35.35,0,0,0,.21-.2Zm235.22,2.19c-.33,0-.39.11-.13.33s1,.68,1.11.58.05-.58,0-.51S240.73,26.28,240.41,26.25Zm-120.3,9.86a1,1,0,0,0,.86,0c.25-.13.17-.84-.3-.86l-.38.05-.33,0C119.59,35.5,119.9,36,120.11,36.11Zm35.19.83c-.07,0-.14,0-.17.18s-.9.3-1.35.46l-.42-.3a.37.37,0,0,0-.2.11.26.26,0,0,0,0,.21,9.89,9.89,0,0,0,1.36.22l.35-.21C155.27,37.37,155.36,37,155.3,36.94ZM40.87,44.19a.29.29,0,0,0,.45.28l.06-.1a1.85,1.85,0,0,1,.81-.82l.09,0c0-.17-.14-.21-.38-.09l-.22,0h-.25C41.12,43.36,40.87,43.91,40.87,44.19ZM28.41,13.05c.57,0,.36-.3-.47-.68l-.76.05h-.05c-.05.15,0,.29.08.32h.18c.1,0,.27.13.36.32h.31Zm.79,22.78c-.17.45,0,.74.47.65l.31-.09a3.14,3.14,0,0,1,.56-.2c.36,0,.3-.22.29-.39s-.06-.25-.14-.27c-.25-.06-.4,0-.42.27,0,.06-.28.17-.4.15Zm181.63-3c.65.31,1.21.37,1.25.14l-.37-.13c-.24-.09-.55-.24-.62-.42s-.43-.17-.65-.19c-.05,0-.19.3-.16.32ZM47.74,34.63c.28-.05.31-.16,0-.25l-.15-.05-.42-.14c-.18.27-.45.71-.6,1l-.07.26,0,.09c.14.12.31.18.38.14S47.46,34.68,47.74,34.63ZM20.39,44.3c.16.14.35.18.44.08h.06c.59,0,.5-.6.92-.78l.06,0a.37.37,0,0,0-.4-.29l-.13.07c-.31.16-.3.69-.92.53,0,0-.16.2-.13.26Zm99.08-7c-.18-.1-.23.12-.12.49l-.67,0h0a.38.38,0,0,0,.16.45l.1,0,.42-.13A.42.42,0,0,0,119.47,37.27ZM51.25,41.7c-.35,0-.4.06-.11,0s1,.33,1,.28-.09-.35-.28-.61l-.19-.22c-.07-.07-.25-.17-.27-.15s-.28.2-.25.28ZM2.65,27.27c.16.27.42.33.58.15s.34-.66,0-.65l-.17-.08-.18-.08a1.41,1.41,0,0,0-.59.31l.19.2Zm139.43,10c.14,0,0-.29-.4-.65l-.4-.15c-.18-.07-.56.2-.84.34h0c0,.11.24.14.48.09l.22,0,.21,0c.26,0,.43.08.38.15S141.94,37.23,142.08,37.23Zm-29.22-1.66c-.19,0-.28.25-.2.56l.19.14.17.12c.32,0,.58-.14.58-.3S113.06,35.57,112.86,35.57Zm32.26-.08c-.21-.13-.34-.3-.29-.36s.1-.23,0-.28h-.06c-.54.14-.56.3-.15.67l.1.09a2.94,2.94,0,0,0,.44.69l.28-.17c.33-.18.05-.36-.14-.51ZM24.18,12.11c-.2-.44-.52-.69-.7-.57s-.69.44-.83.52.35.38.54.17l.21,0Zm207,5c-.07-.21-.35-.29-.63-.16l-.1.13c-.07.07.1.3,0,.36a3.25,3.25,0,0,1-.53.24l-.07,0c0,.08.09.18.3.21S231.22,17.3,231.15,17.08ZM33.67,30.63c.13.22.36.25.49.07s.28-.67,0-.66L34,30,33.76,30C33.38,29.8,33.53,30.41,33.67,30.63ZM179,33.52c.29-.15.38-.39.22-.54l-.11,0c-.51-.21-.84.15-1.26.26,0,0-.05.16,0,.2.26.27.64.13.95.13Zm-118.78.59a.54.54,0,0,0-.66-.2c-.21.12-.51.48,0,.46l.33.06.26.06c.24.18.39.15.32-.07l-.11-.14ZM34.76,44.25c.48-.11.79-.44.69-.74l-.11-.24,0,0c-.18,0-.34.08-.36.16h0c.22.13.14.25,0,.31s-.48.1-.71.18a.28.28,0,0,0-.14.26c0,.07.18.17.25.16ZM149.1,37.38c-.45.13-.82.34-.82.46s.07.45.13.47.25,0,.28-.07v-.07c0-.08,0-.22,0-.22.32-.09.65-.14,1-.24l.11,0a.27.27,0,0,0-.16-.38l-.13,0Zm-124.91.31c-.17-.34-.38-.34-.46,0h0c-.54,0-.4.41-.63.58s0,.51.08.54c.41.13.35-.16.4-.37a1.14,1.14,0,0,1,.34-.43Zm8-29.87c0,.19.24.24.53.1s.35-.75.15-.75A1.07,1.07,0,0,0,32.22,7.82Zm183.5.81c.2-.08.13-.27-.16-.42s-.72.06-.66.19A1.06,1.06,0,0,0,215.72,8.63ZM45.77,6.15c-.59.2-.69.49-.22.65l.51-.28c.1-.06.27,0,.35-.09a.27.27,0,0,0,.1-.28A.37.37,0,0,0,46.2,6ZM42.61,43.71c-.11,0,0,.25.19.51l.34-.28a.62.62,0,0,1,.71-.17l.09,0c.26-.14.29-.32.05-.4A4.93,4.93,0,0,0,42.61,43.71Zm2.9-12.5c.18.14.48,0,.65-.4l0-.28v-.07C45.84,30.35,45.32,31.07,45.51,31.21Zm-1.59-1.12c.23.26.28.5.11.54l-.1.08a.29.29,0,0,0-.09.29c0,.06.28.14.32.1l.27-.18a1.63,1.63,0,0,0,.5-.74l-.09-.08a.74.74,0,0,0-.48-.08Zm-2.36.39c-.06.3,0,.26.14-.11l.44.08.33.05a1.68,1.68,0,0,0-.12-.58C42.29,29.82,41.61,30.18,41.56,30.48Zm202.93-1.33a1,1,0,0,0,.79,0L245,28.9l-.19-.18a1.84,1.84,0,0,0-.37-.43.63.63,0,0,0-.4.12C244,28.5,244.3,29.05,244.49,29.15ZM36,34.72c-.31.13-.36.26-.13.27s-.11.47-.08.53a.37.37,0,0,0,.4.08l.06-.1c.08-.14-.12-.4.23-.42s.39-.17.27-.34a.59.59,0,0,0-.47-.09ZM218.29,7.55c-.09,0-.12-.12-.07-.23s-.07-.14-.39.24l-.5.09s-.07.15,0,.19a.44.44,0,0,0,.27.15c.33-.06.64-.15,1-.24h0C218.57,7.67,218.37,7.56,218.29,7.55Zm-99,31.2c-.28.13-.37.31-.19.39a2.7,2.7,0,0,0,.54.24c-.06,0-.06-.21.11-.26S119.59,38.63,119.3,38.75ZM33.12,43.89a.33.33,0,0,0-.51-.16,1.3,1.3,0,0,0-.24,1.07C32.49,45,33.19,44.11,33.12,43.89ZM174.74,35.2c.08.21.39.2.69,0l.27.28s.16,0,.17-.07,0-.18,0-.2l-.42-.26C174.88,34.62,174.66,35,174.74,35.2Zm-62.41-1.54c-.21,0-.33.07-.27.27h0c.4,0,.49.19.46.48l0,.14c.06.2.24.15.39-.11S112.53,33.7,112.33,33.66ZM183,32.71c-.06.09.08.18.31.19l.12,0a5.19,5.19,0,0,0,.7-.22.23.23,0,0,0,0-.43l-.46-.25C183.41,32.22,183.06,32.62,183,32.71Zm15.06-1.38c-.23.07-.28.25-.12.39s.63.36.71.15S198.27,31.26,198.05,31.33ZM19.49,31.2c0,.19.21.28.46.2l.19-.07.14,0A.21.21,0,0,0,20.4,31l-.11-.07-.24-.15C19.74,30.59,19.49,31,19.49,31.2Z"/><path class="cls-1" d="M45.43,47.84c-.14,0-.34-.25-.43-.57l-.37.26-.31.22c-.36-.07-.76-.13-.89-.14v0l-.15.4a6.13,6.13,0,0,1-.85-.36c-.12-.08-.65-.13-.8.12l-.21.12-.22.14c-.31.05-.53.17-.49.25a1.85,1.85,0,0,1-.32,1l-.07.41,0,.14c0,.16-.19.33-.46.38l.07-.19c0-.06.15-.15.14-.17l-.44-.51c.31-.62.16-1.05-.33-.94s-1.69.5-1.57.63.3.53.11.56l-.07,0-.16-.11a3.74,3.74,0,0,0-.46-.5c-.13-.12-.5-.35-.57-.2s-.34.53-.46.55l-.06,0-.34-.12a7.48,7.48,0,0,1-1-.43c-.19-.1-.13-.54.08-.49s.33.42.5.42.69-.08.72-.18a1,1,0,0,1,.93-.35l.34.17c.36.18.6.37.68-.16a.88.88,0,0,1,.44,0l.24,0c.25.09.5,0,.56-.17s-.35-.51-.47-.5a1.38,1.38,0,0,1-.8-.57l.74,0c.32,0,.44-.16.32-.34s-.37-.14-.54,0l0,0s0-.11,0-.33a2,2,0,0,1,1.19-.79c.37,0,1.48-.09,1.5,0a.43.43,0,0,0,.52.26l.21,0c.44,0,.33-.25.46-.4a.32.32,0,0,1,.24,0l.44.1c.47.12.77.29.65.37l0,.1a.25.25,0,0,0,.11.27.47.47,0,0,0,.34,0l.06-.57a7.37,7.37,0,0,0,1.22-.21,3.13,3.13,0,0,1,.91.23l.09-.06.63-.47c.49.37.9.53.91.37l0-.16.07-.2c.22.06.56.18.76.26s.71.3,1,.07,1.38-.13,1.32,0-.14.53,0,.51l0,0c.11-.11.2-.23.3-.34l.06-.06a1.44,1.44,0,0,1,.6-.21c.27-.05,1.12,0,1.26.24s.65.63.56.36-.79-.93-.75-1,.29-.31.44-.18.63.65,1,.64l.37,0h.07a3.73,3.73,0,0,0,.46.51l.11.18c.07.09,0,.33,0,.35l-.55.16a3.44,3.44,0,0,1-.76,1c-.18.12-.69.35-.75.28s-.29-.21-.38-.14a.53.53,0,0,1-.61-.09c-.13-.2-.85.09-.92,0s-.45-.38-.48-.18-.27.49-.45.21-.7-.65-.85-.34l-.52.12-.2,0c-.12.48-.06,1,.14,1.13s.69.7.62.91l.34.05.2,0c.39,0,.35.1-.1.16a11,11,0,0,1-2-.16l-.13,0-.46-.1c-.22.29-.54.1-.72-.42l.49-.47.17-.17a4.43,4.43,0,0,0-.76-.79l-.27,0c-.21,0-.45,0-.47-.24s-.27-.26-.45-.14,0,.24,0,.36l0,.06C45.94,47.77,45.57,47.84,45.43,47.84Z"/><path class="cls-1" d="M118.59,46.76c.24-.07.22-.11,0-.08s-.45-.54-.36-.59.29-.23.24-.28a2.13,2.13,0,0,0-.64-.3c-.23-.08-.64.61-.66.64a.18.18,0,0,1-.21.06l0-.05a.6.6,0,0,0-.68-.51.13.13,0,0,0-.09.07c-.18.34.24.42.4.61l0,0c.16.13.14.2-.06.15a2.07,2.07,0,0,1-.81-.59l-.18-.2a.92.92,0,0,0-.79-.31,1.38,1.38,0,0,1-.88-.13l-.18-.1c-.49.14-.79.16-.67,0s.43-.51.24-.45a1.53,1.53,0,0,1-.71.06c-.08-.07-.45-.24-.52-.14a.57.57,0,0,1-.5.19c-.16-.06-.5-.37-.34-.52a1.37,1.37,0,0,1,1.29.09l.51-.13.15,0a2.32,2.32,0,0,0,.6-.48L114,44l.12.11a.41.41,0,0,0,.54.09c.17-.11.8-.31,1-.19l.14.12c.17.14.38.27.54.06l.07-.09c-.12-.24,0-.39.26-.35a4.75,4.75,0,0,0,1.4.1c.25-.08.91,0,.67.3s-.25,1.17,0,1.09.5-.77.6-.91.46-.44.56-.4a1.51,1.51,0,0,0,.77,0,3,3,0,0,0,.83-.79l.35.22.28.18a2.27,2.27,0,0,1,.5-.52h.14a.67.67,0,0,1,.39.18s-.08.23-.15.24l-.79.09a1.36,1.36,0,0,1-1,1.07l-.39-.22-.19-.11a1.24,1.24,0,0,0-.78,1.36l-.94.06h0a1.18,1.18,0,0,0,.15.67c.11.21.15.67-.07.56s-.58.42-.49.45.23.2.07.27-.7.12-.72-.06l-.1,0-.35-.21A9.26,9.26,0,0,1,118.59,46.76Z"/><path class="cls-1" d="M54.69,47.94a2.87,2.87,0,0,1,.39-1.3l.55-.16s.07-.26,0-.35L55.52,46c-.18-.17-.23-.31-.11-.31s.47-.12.43-.27,0-.39.16-.07l.47-.08c.3-.06.47-.22.32-.33l-.42-.32c.36-.19.77.06.9.56l-.41.39-.06,0c.1.16.24.27.32.24s.44-.29.7-.47l.15.28.16.27c.12.47.24.65.26.4s.26-.82.48-.86.88,0,.88.19l0,.2,0,.1.41.26c.08.06-.25.4-.3.45s0,.26.07.32h.11l.22,0c.27,0,.49-.17.49-.35s-.07-.71-.16-.74a.6.6,0,0,1-.13-.66l.39.33c.07.06.31,0,.45,0,.84-.2,1-.13,1.12.53,0,.2,0,.2.55.56l.36.26a2.58,2.58,0,0,1-.59.49c-.1,0-.49-.32-.68-.51l-.18.28-.14.21a.35.35,0,0,1-.55.16c-.18-.14-.86.1-.93.1s-.65-.09-1.27-.19l-.56,0c-.38,0-.74.32-1.14,0-.07-.06-.34,0-.49,0-.31.11-.68.41-.88.34a1.36,1.36,0,0,0-.87,0Z"/><path class="cls-1" d="M66.24,47.89c-.21.21-.44.25-.51.09s-.14-.7,0-.79.31-.34,0-.34-.95.58-.79.69a3,3,0,0,1,.56.43A.82.82,0,0,1,65,48l-.13-.09-.48-.36c-.58-.49-.94-.93-.8-1s.49-.07.58,0,.61-.28.51-.4-.25-.53,0-.53a4.15,4.15,0,0,1,1.2.18.62.62,0,0,0,.82-.33l.64.11a.45.45,0,0,1,.24.19s0,.18-.06.18c-.76-.11-.2.66-.79.76-.31.06-.47.53-.52.9Z"/><path class="cls-1" d="M60.36,49.31c0,.21-.28,0-.59-.38l-.51-.09c-.16,0-.42-.11-.45-.07l-.31.4c-.23-.24-.48-.34-.53-.22s.1.44.23.56.43.55.29.67l-.16,0-.19.05a.45.45,0,0,1-.45-.51l-.09-.18-.07-.15c-.24-.11-.44-.28-.45-.38a.46.46,0,0,0-.59-.18c-.31.13-.49,1-.49,1.13l-.32.05-.22,0c-.25.21-.5.12-.57-.2l-.11-.28,0-.08c-.18,0-.22-.12-.08-.16h.11c.35,0,.47-.17.65-.32a2.74,2.74,0,0,1,1.74-.58l.86,0a9.92,9.92,0,0,1,2-.05A1.66,1.66,0,0,1,60.36,49.31Z"/><path class="cls-1" d="M5.59,45.67c-.3,0-.14.12.36.3l.45-.14.51-.16c0-.37.22-.2.49.37l-.1.59c0,.12.14.25.17.38l0,.12c0,.14-.15.16-.29.06l0,0-.42.22c-.52.3-1.07.22-1.22-.17L5.39,47l-.13-.25a9.63,9.63,0,0,1-.69-1.13l.52-.15a4.15,4.15,0,0,1,.61-.14h.07a.3.3,0,0,1,.09.34H5.79Zm1.12.71c0-.12-.26-.19-.57-.13l-.27.06-.22,0c.09.34.29.61.46.6S6.71,46.51,6.71,46.38Z"/><path class="cls-1" d="M18.42,36a.56.56,0,0,1-.12.28,1,1,0,0,1-.67-.14c-.27-.15-1.16-.23-1-.35s.28-.45.11-.56-.69.26-.76.2v-.06l0-.21c0-.27.12-.48.24-.46s.55,0,.83,0a7,7,0,0,1,1.85.44l.4-.08.62-.13c.36.32.43.62.17.65s-.83,0-1,0S18.43,35.85,18.42,36Z"/><path class="cls-1" d="M194.22,43.34c-.07.17-.13.22-.15.1l-.06-.08-.4-.49c-.37.27-.67.57-.66.67l0,0a.7.7,0,0,1-.35.09c-.05,0-.15-.09-.15-.14l0-.22c0-.25.41-.72.89-1l.56.47a1,1,0,0,0,.36-.2l.17-.2c.21-.34.4-.44.43-.22s.35.61.66.49l-.07-.35,0-.07a2.41,2.41,0,0,0-.17-.64l.38-.06c.45-.07.3.25.35.44s.15.16.18.15l.13-.05a.84.84,0,0,1,.36.33c.09.16.43.44.12.73l-.43-.1-.19,0a.64.64,0,0,0-.61.25l-.11.18-.05.09c-.06.25-.13.32-.17.14S194.29,43.16,194.22,43.34Z"/><path class="cls-1" d="M66.54,47.22a1.3,1.3,0,0,1,.42,0c.22,0,.73.29.54.63s.21,1.32.51,1.21l.27,0,.2,0c.32.09.47,0,.34-.17l0-.15-.06-.16c0-.34.08-.49.23-.33a1.72,1.72,0,0,0,1.13.43c.34-.07.94.6.79.74s-.91-.22-1.22-.28l-.29.14-.28.13c-.37.11-.62.28-.57.38l0,.1,0,.07c0,.09-.12.16-.28.16l0-.05-.17-.19c-.14-.25-.34-.38-.45-.29a.53.53,0,0,1-.64,0c-.15-.19.18-.93.26-1.14s0-.84-.16-.88A2.64,2.64,0,0,1,66.54,47.22Z"/><path class="cls-1" d="M73.44,47.06c-.09.14-.08.27,0,.3s.15.22-.07.38-1,.2-.77.14.63-.29.43-.36-.52-.3-.45-.37.48-.32.72-.53l-.1-.3c0-.07-.06-.17,0-.23l.14-.21L73,45.4c-.07-.09,0-.36.08-.26a.59.59,0,0,0,.58.16c.19-.09.75-.17.85,0s.71,0,.77,0,.16.24.09.35h-.08l-.44,0c-.58,0-1,.18-.85.4l.11,0,.62.09a2.06,2.06,0,0,1-.28,1C74.32,47.24,73.52,46.93,73.44,47.06Z"/><path class="cls-1" d="M124.25,44.62c-.18-.16-.13-.22.11-.12s1-.36,1.28-.37l.18.1.61.37c.08-.42.15-.63.17-.47s.2.53.36.48a3.05,3.05,0,0,1,.58-.07c.13,0,.09-.2-.35-.32l.45-.43s-.31-.36-.46-.56c0,0,0-.17.08-.18l.11,0a.9.9,0,0,1,.49.38,3.14,3.14,0,0,1,.1,1.7l-.69.1c-.17,0-.37,0-.53,0l-.14,0c-.21.15-.43,0-.5-.22S124.44,44.79,124.25,44.62Z"/><path class="cls-1" d="M78.45,46.34c.28.18.32.42.08.54s.18.73-.13.66-1-.27-.94-.33h0l.23-.1c.24-.1.25-.23,0-.3l-.22-.06-.28-.07a5.72,5.72,0,0,1-1.42,0l-.2.14c-.59.45-.36-.15-.49-.23-.39-.26.1-.34.22-.44l.17-.14c.29-.08.58-.18.65-.21s.29,0,.33,0,0,.37,0,.57l.14.1a.54.54,0,0,0,.43-.07c.48-.36.69-.41,1.11-.19Z"/><path class="cls-1" d="M81.46,46.35c.14.18.15.34,0,.36a4,4,0,0,0-.52.11,6.5,6.5,0,0,0-.27.63l-.21.15c-.29.2-1-.28-.84-.56l.54-.72c-.65-.08-1.08-.17-.93-.2l.11,0c.28-.1.28-.27.08-.41s-.49-.25-.73-.39l-.09-.05c-.09-.1.11-.1.43,0a2.15,2.15,0,0,1,.81.77l.06,0a1.1,1.1,0,0,0,.53.24h.11C80.66,46.06,81.31,46.17,81.46,46.35Z"/><path class="cls-1" d="M238.63,14c.25.09.36.3.23.46s-.72-.09-.87-.09l-.07.06a.27.27,0,0,0,0,.28c0,.1.19.16.21.26a.26.26,0,0,1-.14.25l-.1,0-.55-.23-.19,0-.34-.07a3.06,3.06,0,0,1-.67-1c-.08-.26.5-1,.59-1.16l.13-.13a.43.43,0,0,1,.35,0c.08,0,.15.23.11.27l-.27.28c-.39.34-.47.76-.19.94S238.37,14,238.63,14Z"/><path class="cls-1" d="M97.63,45.16c.17,0,.27.12.21.22s.34.77.26.9a3.85,3.85,0,0,1-.62.67c-.17.11-.83-.22-1-.31s-.44,0-.28.26-.42,1.06-.48.85-.24-.8-.25-.88l0-.06-.39-.63a8.81,8.81,0,0,0,1.19-.24c.24-.07.83.34.94.34s.18-.32-.14-.71l.49-.36Z"/><path class="cls-1" d="M259.73,41.3c.32,0,.32.11,0,.16l-.23.13c-.32.19-.59-.12-.64-.09l-.5.24c-.45.28-.94.44-1.07.35s-.45-.48-.32-.61.53-.43.59-.39a.27.27,0,0,0,.32-.07v-.09l0-.11c-.08-.11-.06-.22,0-.24s.32.29.38.37.37.23.47.1S259.4,41.27,259.73,41.3Z"/><path class="cls-1" d="M61.16,49c-.08-.38,0-.68.2-.66a4.26,4.26,0,0,1,.93.32c.15.08.61.16.67,0s.15-.68.54-.64l.06.28.08.34a.8.8,0,0,1-.94.58l-.4,0h-.11a2.56,2.56,0,0,1-.91,0c-.38,0-.47.61-.84.27l.56-.36Z"/><path class="cls-1" d="M137,44.51a1.59,1.59,0,0,1-.95-.16c-.06-.11-.14-.41-.05-.44l.11,0,.49-.1a1.14,1.14,0,0,0,1.13.31l-.05-.35c0-.23.36-.39,0-.71s0-.33.57-.33h.39c.38.14.6.26.49.26a2.68,2.68,0,0,0-.75.26c-.22.12-.09.7,0,.86a.52.52,0,0,1-.63.5l-.35,0Z"/><path class="cls-1" d="M25.5,35.29a.48.48,0,0,1,.39-.61,3.71,3.71,0,0,1,1.48-.22c.27.13.81.73.6,1l-.48-.35L27.27,35c-.4-.09-.71,0-.67.28S25.59,35.55,25.5,35.29Z"/><path class="cls-1" d="M207.61,34.64c.56.18.76.47.44.65l-.22.1-.11.06-1.32.32-.58,0c-.16,0-.19.31-.5.09s-.26-.36-.19-.52a.9.9,0,0,1,.48-.44c.26-.08.66.07.6-.36h0a1.86,1.86,0,0,1,.71.17l.35,0Z"/><path class="cls-1" d="M149.3,43.13a.4.4,0,0,1-.49.16c-.15-.09-.67-.22-.74-.06s.08.6-.08.67-.7.18-.68.06v-.07l.05-.2a2.24,2.24,0,0,1,.48-.81c.2-.22,1.26-.22,1.4-.34s.61-.33.66-.16v.12l0,.38c.32-.06.57,0,.57.2s-.1.51-.22.42l0-.1c-.12-.39-.35-.52-.72-.35Z"/><path class="cls-1" d="M227.83,37.72c-.07.48-.41.79-.75.69l-.34,0-.21,0a7,7,0,0,0-1.12.13l-.25-.11-.25-.11c-.44-.15-.35-.43.2-.6l.55.13.46.1a4.3,4.3,0,0,1,1-.37l.08,0Z"/><path class="cls-1" d="M68.9,47.31c-.11.09-.11,0,0-.24s-.15-1.14.24-.91l.44-.42a2.32,2.32,0,0,1,1-.31l.25,0a4.44,4.44,0,0,1,.44.58c.08.13.13.48-.12.44a2.46,2.46,0,0,1-.88-.61L70,46l-.38.27A5.17,5.17,0,0,1,68.9,47.31Z"/><path class="cls-1" d="M24,34.3c.07.05-.05.09-.27.09s-.64-.21-.44-.47l.21-.15c.1-.08.35,0,.48-.08a4.49,4.49,0,0,0,.49-.37.36.36,0,0,1,.25,0c.21.27.54.18.82.24l.15,0c.14.15-.05.48-.42.74l.12.42a.55.55,0,0,1-.26.1h-.07a2.5,2.5,0,0,1-.5-.56l-.23-.2a.72.72,0,0,0-.21-.12l-.13,0C24,34.06,24,34.26,24,34.3Z"/><path class="cls-1" d="M142.14,46a.5.5,0,0,1-.63-.5v-.29c0-.33,0-.66-.38-.87-.25-.12,0-.2,0-.31l0-.17c-.08-.25.45-.42,1.2-.38l.47.51.41.33c-.32.31-.39.3-.94-.09l0,0c-.05,0-.35.39-.67,1l.21.36Z"/><path class="cls-1" d="M167.58,43.67a.9.9,0,0,1-.94.12,2.6,2.6,0,0,1-.73-.78.29.29,0,0,1,.26-.17c.12,0,.29.18.36.32s.63.22.65.1.15-.43.24-.47h.07c.48,0,1.06.15,1.25-.44,0,0,.21,0,.24,0s.17.22.12.27l-.11.14C168.8,42.89,167.83,43.46,167.58,43.67Z"/><path class="cls-1" d="M106.55,44.81c-.57-.09-.41-.41.34-.71l.77.43.06,0c.25-.12.49.1.56.5l.44.22s0,.22,0,.28l-.07.06C108.49,45.63,107.12,44.9,106.55,44.81Z"/><path class="cls-1" d="M124.24,45.55c-.18,0-.22-.09-.08-.09s.52.15.5.34l.09.13a1.61,1.61,0,0,0,.58.37c.14.06.47-.52.53.11l0,.16a1.49,1.49,0,0,0,.21.67l-.06.08-.21.22a2.65,2.65,0,0,1-.74,0s-.18-.26-.32-.43l-.28.14-.07,0a.23.23,0,0,1-.19-.26l.07,0,.2-.11c.28-.1.39-.29.24-.42S124.41,45.6,124.24,45.55Z"/><path class="cls-1" d="M179.11,41.84c0,.31-.2.45-.36.3s-.07-.41.49-.29l.46-.29a.33.33,0,0,1,.27,0c.22.18.39.37.7.08a1.22,1.22,0,0,1,.43.17l.34.21c.39.26.64.55.57.63s-.43.21-.56,0-.63-.56-.74-.43-.44.39-.49.3v-.08c0-.39-.21-.57-.68-.64Z"/><path class="cls-1" d="M254,41.5c-.06.2-.22.17-.37-.06s.45-.74.53-.59l0,.13c.23.54.72,0,1.06.15l.08,0a3,3,0,0,0,.56-.63s.08-.16.24-.17l.06.05c.16.12,0,.47.47.39h0a.4.4,0,0,1-.05.41h-.1l-.23,0-.41.31a3.59,3.59,0,0,1-.54.2C255.14,41.83,254,41.3,254,41.5Z"/><path class="cls-1" d="M54.9,49c0,.12-.06.18-.19.13a2.05,2.05,0,0,0-1.2.49l.59.44s0,.14-.05.19l-.08.09c-.17.12-.35.14-.39,0a.53.53,0,0,0-.59-.23c-.24.1-.1.51-.22.54s-.36-.14-.24-.49,1-.72.95-1.26l.61-.23.21-.08A.69.69,0,0,1,54.9,49Z"/><path class="cls-1" d="M182.88,43.37c-.27-.14-.4-.37-.28-.51s.48-.52.52-.43a.5.5,0,0,0,.48.21l.14-.08a.68.68,0,0,0,.26-.3l.14-.33a1.81,1.81,0,0,1,.68.51l0,.13a1.39,1.39,0,0,1-.29.55.49.49,0,0,1-.35.1l-1-.14a6.64,6.64,0,0,1,.18.89.43.43,0,0,1-.33.09l-.05-.07c-.06-.08,0-.21,0-.32Z"/><path class="cls-1" d="M55.94,5.11c0,.26,0,.47,0,.47s-.13-.22-.06-.48l-.43.05-.31,0c-.33.1-.56,0-.52-.13s-.54-.56-.6-.81l.45,0h.49a1.73,1.73,0,0,1,1.31.49l-.09.11Z"/><path class="cls-1" d="M104.59,48.09a.68.68,0,0,1,.41-.62c.25-.1,1-.64.93-.88s-.28-.91-.16-.91.44.16.4.35.37.69.33.84a3.93,3.93,0,0,0,.07.66.39.39,0,0,1-.43.19l-.17-.07-.11,0c-.1-.1-.37-.08-.59,0s-.36.73-.44.76-.25,0-.23-.06v-.25Z"/><path class="cls-1" d="M83.59,46.27c-.12,0,0-.11.36-.19s1.26-.12,1.27,0,.14.31.28.24h.19a.77.77,0,0,1-.12.51c-.11.15-.59.36-.75,0l-.16-.24,0-.07a1.26,1.26,0,0,0-.52.08C84,46.7,83.71,46.3,83.59,46.27Z"/><path class="cls-1" d="M134.53,44.18c-.18.38-.47.57-.64.42s-.45-.6-.28-.69.53-.4.43-.49-.24-.37-.07-.44S134.72,43.8,134.53,44.18Z"/><path class="cls-1" d="M164,1.28c.07.18-.18.08-.55-.22l-.24-.21,0,0c0-.1.37-.27.8-.38l.39-.08c.08,0,.2.07.28.14l.18.15,1.13-.27,0,.52V1.1c.17.28,0,.62-.39.76l-.19-.52-.2-.55C164.36.71,163.91,1.11,164,1.28Z"/><path class="cls-1" d="M44.88,48c.16-.08.25,0,.18.28l.46,0H46c.54.09.94.41.87.7l-.11.2-.13.22a8.19,8.19,0,0,0-.68.5c-.11.09-.64,0-.85-.45l.78-.18.19,0c.13-.42,0-.76-.35-.76S44.72,48.09,44.88,48Z"/><path class="cls-1" d="M65,49.89c-.44.2-.77.2-.73,0s-.19-.56.06-.5,1,.15,1.13,0l.09-.12.08-.13c.14-.13.35-.07.48.14s.1.67-.34.55l-.38,0Z"/><path class="cls-1" d="M229.59,38.32c-.15-.25-.4-.26-.54,0l-.13.13-.1.08c-.15.06-.33,0-.38,0s.05-.33.16-.47.56-.42.74-.34.78-.43,1.14-.25l-.4.41-.35.35C230.16,38.2,229.75,38.56,229.59,38.32Z"/><path class="cls-1" d="M231.61,1.39c-.4,0-.56-.22-.36-.56l-.42-.24s.14-.27.22-.28.56-.14.58.23V.6a.16.16,0,0,0,.27,0c.08-.11.36-.32.46-.23a.64.64,0,0,1-.15.78l-.33.14Z"/><path class="cls-1" d="M115.06,46.75c.07-.19.51-.23,1-.09s.9,1,.5.75l-.46,0-.8-.07c-.24.34-.5.5-.58.37S115,46.94,115.06,46.75Z"/><path class="cls-1" d="M241.07,42.74a.61.61,0,0,1-.54-.31c-.07-.17-.12-.68,0-.77s.55-.3.5-.2,0,.38.13.41S241.3,42.74,241.07,42.74Z"/><path class="cls-1" d="M79.28,48.33c0-.15.18-.2.46-.11l.18.07.38.15c-.19.15-.11.29.17.31l.3,0,.56-.07c0,.29,0,.56,0,.6a1.91,1.91,0,0,1-.52.19,2.92,2.92,0,0,1-.88-.36A2.33,2.33,0,0,1,79.28,48.33Z"/><path class="cls-1" d="M22.26,34.25c.07-.15.13-.12.15.07s.63.61.87.71.71-.12.61.14l-.1.24a.17.17,0,0,1-.13.1l-.5.11C22.63,35.15,22.2,34.41,22.26,34.25Z"/><path class="cls-1" d="M16,45.82a.26.26,0,0,1,.07-.25c.06,0,.26-.11.29-.07a1.24,1.24,0,0,1,.19.4c0,.14.84.27,1,.66l-.79,0a.29.29,0,0,0-.13,0c-.25.08-.13.66-.54.4a.64.64,0,0,1-.16-1.07Z"/><path class="cls-1" d="M44,48.37c.42.09.64.24.49.35s-.62.33-.68.26-.41-.23-.43.07l-.06.15a.33.33,0,0,1-.24.17c-.09,0-.27-.08-.28-.14l0-.28C42.73,48.64,43.53,48.29,44,48.37Z"/><path class="cls-1" d="M20.71,46.48a.5.5,0,0,1-.71,0c-.15-.18-.43-.85-.27-1.08h.14a2.37,2.37,0,0,1,.94.31c.27.14.47.34.1.59Z"/><path class="cls-1" d="M7.12,19.08c-.35.06-.61,0-.59-.08s1-.45,1-.68l.14-.16.4-.49c-.4.09-.51.11-.25,0l.28.26.22.2c.3.18.4.32.21.32s-.45.43-.79.45L7.44,19Z"/><path class="cls-1" d="M17.41,17.38a2,2,0,0,1,.71.16.71.71,0,0,1-.5.15c-.27,0-1.05.34-1.07.75l-.51.11-.18,0c-.34-.2-.47-.38-.29-.41s.64-.21.61-.35S17,17.34,17.41,17.38Z"/><path class="cls-1" d="M95.14,44.55c.48,0,.83.17.79.3s-.26.78-.74.91l-.44.09-.09,0a.31.31,0,0,1-.09-.41l.1,0,.25,0c.31,0,.56-.06.56-.17a.42.42,0,0,0-.43-.32C94.82,44.93,94.67,44.51,95.14,44.55Z"/><path class="cls-1" d="M70.16,47.26c-.37.22-.63.21-.57,0h0l.76-.07c-.35-.36-.48-.65-.29-.65a11.64,11.64,0,0,1,1.22.29c.42.1.68.91.35.72l-.28-.1a2.38,2.38,0,0,0-.94-.18Z"/><path class="cls-1" d="M174.93,41.2c-.1-.18.23-.28.72-.24s1,.95.59.93l0-.09c-.12-.29-.19-.5-.59-.23l-.26.17c.1.24.18.48.2.53s-.1.15-.3.07l-.14-.08-.35-.19A1.22,1.22,0,0,0,174.93,41.2Z"/><path class="cls-1" d="M93.86,42.46a.78.78,0,0,1,.65-.19c.14.06.44.35.3.48a1.39,1.39,0,0,1-1,.24l-.07.06c-.48.39-.68.05-.92-.2,0,0,0-.14,0-.2s.16,0,.18,0a.42.42,0,0,0,.66,0Z"/><path class="cls-1" d="M170.73,43.79a.29.29,0,0,1-.27,0,1.75,1.75,0,0,1-.15-1l.53-.18a2.2,2.2,0,0,1,.64-.18.88.88,0,0,1,.54.23l.07,0a2.47,2.47,0,0,1-1,.71l-.32.34Z"/><path class="cls-1" d="M109.55,46.12c-.13-.09-.11-.24,0-.32a2.2,2.2,0,0,1,1,0c0,.08.22.45.32.73l-.33.12-.28.11C110.06,46.6,109.68,46.21,109.55,46.12Z"/><path class="cls-1" d="M245,32.74c-.21-.23-.2-.41,0-.39s.69-.45.91-.39l.2,0,.48,0a.51.51,0,0,0-.07.67l-.31.07a2.26,2.26,0,0,1-1,0Z"/><path class="cls-1" d="M129.94,44.14c.17.45,0,.82-.28.82H129c.22,0-.24-.68-.34-.89s-.19-.84,0-.81l.05.08a3.93,3.93,0,0,1,.3.66,1,1,0,0,0,.2.32Z"/><path class="cls-1" d="M109.62,43.81c-.05.42,0,.71.14.66l.11,0,.11,0a.35.35,0,0,1,.42.18c.09.15.2.4.08.25s-.86.07-1,0a2.57,2.57,0,0,1-.7-.26l0-.06c.07-.22-.24-.58.2-.64Z"/><path class="cls-1" d="M159.51,39.17c-.13-.12.14-.22.61-.22l.34,0c.2,0,.41-.08.61-.09s.16.14.19.22a.21.21,0,0,1-.09.18c-.52,0-.81.13-.75.6a1.54,1.54,0,0,1-.47.08h-.41A.66.66,0,0,0,159.51,39.17Z"/><path class="cls-1" d="M110.09,47.66c.15.18.08.3-.15.26s-.47.45-.6.43-.43-.24-.17-.4-.09-.82-.06-.94l.08,0,.09,0A5.18,5.18,0,0,1,110.09,47.66Z"/><path class="cls-1" d="M36.68,51.46c-.61-.05-1-.1-.93-.13a1.93,1.93,0,0,1,.92.26l.32-.46c.17-.25.59-.37.9-.55l0,0C38,50.54,37.29,51.51,36.68,51.46Z"/><path class="cls-1" d="M188.32,43.38a.38.38,0,0,1,0-.54c.14-.14.75,0,.84-.14l-.05,0-.1-.09c-.24-.06-.34-.24-.2-.4s.7-.12.55.07.5.38.5.42-.09.26-.16.44A2,2,0,0,1,188.32,43.38Z"/><path class="cls-1" d="M259.4,38.17c-.23.09-.3-.12-.16-.47s1.36-.2,1.29,0-.46.59-.71.5h-.42Z"/><path class="cls-1" d="M199.08,38.54c-.11-.15.21-.32.69-.37s1.77.23,1.49.4-1.17-.13-1.27-.14S199.18,38.69,199.08,38.54Z"/><path class="cls-1" d="M140.77,39.81a1.7,1.7,0,0,1,0-.61,1.07,1.07,0,0,1,.62.3C141.65,39.73,140.8,40.11,140.77,39.81Z"/><path class="cls-1" d="M200.51,42.41c.24,0,.25.15,0,.45s-1.24.77-1.34.66a1.68,1.68,0,0,1-.28-.63l.07-.06a.4.4,0,0,1,.34,0l.34.23A2.42,2.42,0,0,1,200.51,42.41Z"/><path class="cls-1" d="M132.8,44.9c0,.06-.2,0-.41-.15s-.95-.17-.78-.34-.22-.65-.1-.72l.13,0h.11a6.77,6.77,0,0,1,.72.3C132.74,44.08,132.82,44.85,132.8,44.9Z"/><path class="cls-1" d="M81.49,45.38c-.31,0-.23-.15.19-.27s1.55.1,1.36.3H82.9c-.37,0-.79-.24-1.07-.14Z"/><path class="cls-1" d="M86.3,46c.08-.06.28,0,.44.18a5.18,5.18,0,0,1,.72.83c.05.15-.2.45-.69.23L86.5,47l-.19-.2A.91.91,0,0,1,86.3,46Z"/><path class="cls-1" d="M93,47.08c.33.25.5.52.37.6a1.77,1.77,0,0,1-1,.14c-.31-.08-.92-.51-.7-.78l.44.35s.29-.08.44-.14Z"/><path class="cls-1" d="M107.74,47.69c.4.15.73.4.73.57s-.11.65-.24.7-.52.08-.57,0l0-.08.09-.22c.18-.28.13-.52-.1-.54s-.75-.11-.73-.19l0,0c.13-.09.3-.24.41-.22Z"/><path class="cls-1" d="M45.91,52.92c-.24-.08-.38-.19-.31-.25a.37.37,0,0,1,.43.06c.1.14.69-.18.59-.22s-.25-.18-.12-.24.41,0,.34.25-.12.95-.2,1S46.14,53,45.91,52.92Z"/><path class="cls-1" d="M224.18,41.94c-.17.22-.41.3-.54.17s-.06-.42.47-.34l.51-.18.34-.11c.6.15.88.55.63.89l-.52-.39a1.23,1.23,0,0,0-.75-.06Z"/><path class="cls-1" d="M1.26,41.14a2,2,0,0,1-1,.21l0-.06c0-.06,0-.18,0-.19.5-.13.82-.32.78-.83,0-.2.56-.19.87.06l.1.08c0,.16,0,.25-.17.21l-.13,0c-.24-.05-.39,0-.44.23Z"/><path class="cls-1" d="M132.21,45.75a.57.57,0,0,1,.58-.18c.24,0,.91.34,1,.54s.08.85,0,.83a1.38,1.38,0,0,1-.52-.45C133.07,46.31,132.14,45.89,132.21,45.75Z"/><path class="cls-1" d="M99.36,46.76c0,.31-.15.46-.37.34s-.69-.52-.47-.55.78-.17.81-.28l0,0-.16-.17c-.2-.17-.29-.39-.2-.48l.12-.06.29-.13C99.58,45.6,99.36,46.45,99.36,46.76Z"/><path class="cls-1" d="M87.37,45.94a.4.4,0,0,1,.47-.37c.24,0,.94.31,1,.53s-.46.44-.75-.08l-.72-.08Z"/><path class="cls-1" d="M198.31,0a1,1,0,0,1,1,.67l-.6-.18-.5-.15a3,3,0,0,1-.54.57l-.11,0,0,0a.32.32,0,0,1-.25-.2c0-.11.21-.44.45-.62L198,.09Z"/><path class="cls-1" d="M158.52,45.49c-.29-.07-.35-.32-.14-.55s.31-1,.43-1H159a2.6,2.6,0,0,1,.1.92l.36.33.07.06C159.57,45.28,158.81,45.57,158.52,45.49Z"/><path class="cls-1" d="M135,39.41a.42.42,0,0,1,.54,0c.12.11,0,.8-.32,1.27l-.54-.05c-.07,0-.2-.07-.2-.11s0-.28.08-.28c.61-.08.78-.31.46-.76Z"/><path class="cls-1" d="M90.39,46.46c.09-.16.42,0,.74.4l-.61.35-.09,0c.12.32,0,.41-.35.2s-.67-.93-.48-.75l.12,0,.17.08c.21,0,.41,0,.44-.18l0-.13Z"/><path class="cls-1" d="M34.36,52.65c.63-.23,1-.18.9.1v.37c0,.24,0,.34-.14.22s-.42-.35-.52-.32a.82.82,0,0,1-.49,0h0Z"/><path class="cls-1" d="M187.52,38.6a.49.49,0,0,1-.74-.24l-.07-.23-.07-.21c-.08-.3,0-.5.07-.44s.36.22.48.27S187.81,38.41,187.52,38.6Z"/><path class="cls-1" d="M150.75,42.77c-.16,0-.15-.17,0-.31s.52-.22.43.18l.7-.07s.07.16,0,.2l-.17.14A6.8,6.8,0,0,1,150.75,42.77Z"/><path class="cls-1" d="M154.86,43c.42,0,.59,0,.39.15s-.54.36-.39.42.45.23.24.23-.82-.14-.88-.31-.08-.71.23-.57l.21,0Z"/><path class="cls-1" d="M122.73,45.16a.65.65,0,0,1-.39,0v0c0-.1,0-.26,0-.28l.57-.22a3.21,3.21,0,0,1,.67-1h.1a.28.28,0,0,1,.19.22c0,.21.16.47-.38.47h-.19A3.84,3.84,0,0,1,122.73,45.16Z"/><path class="cls-1" d="M93,48.69c-.14,0-.06-.23.16-.46s.89-.73.91-.55A10,10,0,0,1,93.84,49l-.69-.24Z"/><path class="cls-1" d="M73,49.13c-.34,0-.46-.18-.27-.4h0l.42.15c.26-.24.51-.46.56-.49a.48.48,0,0,1,.4.06l0,.11,0,.16C74.15,49,73.29,49.13,73,49.13Z"/><path class="cls-1" d="M50.05,48.7c0-.16.21-.23.48-.15s.77.54.6.89l-.38-.08-.22,0A.83.83,0,0,1,50.05,48.7Z"/><path class="cls-1" d="M248.69,37.62a.43.43,0,0,1-.27.06c-.11,0-.48.1-.51.22a1.16,1.16,0,0,1-.27.49l-.06,0-.36-.09c-.38-.13-.49-.2-.24-.15s.65-.62,1-.73l.34,0,.14,0C248.65,37.43,248.72,37.59,248.69,37.62Z"/><path class="cls-1" d="M191.76,42.77s-.19,0-.38-.12-.68-.13-.64.14-.74.28-.63-.14l.12-.36c.07-.19.73-.25,1-.1.07,0,.12.1.19.15l.13.11C191.73,42.57,191.79,42.74,191.76,42.77Z"/><path class="cls-1" d="M89.3,43.7c-.32.14-.48.22-.35.18s.42-.3.26-.4-.35-.41-.17-.51S89.63,43.56,89.3,43.7Z"/><path class="cls-1" d="M180.73,38.92c.31,0,.42,0,.24,0s-1-.28-1.06-.19-.44.26-.54.08l0,0,.18-.2a2.4,2.4,0,0,1,.84-.43l.19,0c.07,0,.13.24.13.37Z"/><path class="cls-1" d="M176.62,38.27c-.23-.2-.17-.17.11.06s.92.88.73.88S176.85,38.48,176.62,38.27Z"/><path class="cls-1" d="M232.21,38.22a.44.44,0,0,1-.54.05c-.12-.12-.41-.63-.28-.82s.66.41.82.46l.14,0,.18,0C232.7,37.77,232.38,38.08,232.21,38.22Z"/><path class="cls-1" d="M98.52,44.91c-.32.16-.41,0-.22-.45l.67.06.15,0c.25-.25.49-.41.52-.36a1.2,1.2,0,0,1,.15.3C99.79,44.53,98.83,44.75,98.52,44.91Z"/><path class="cls-1" d="M7,31.46a.32.32,0,0,1,0,.5c-.16.13-.69.32-.83.14a3.56,3.56,0,0,1-.43-.68s.18,0,.29.06S6.81,31.32,7,31.46Z"/><path class="cls-1" d="M104,45.84c-.2-.17-.19-.39,0-.49s1,0,.84,0-.59.15-.55.19a3.6,3.6,0,0,1,.35.38c.1.13.35.55.27.54A6.86,6.86,0,0,1,104,45.84Z"/><path class="cls-1" d="M144.87,42.65a1.38,1.38,0,0,1-.93.82l-.21,0-.12,0a.22.22,0,0,1,0-.36l.13,0,.12,0c.21,0,.27-.16.13-.34l0-.15,0-.11a.33.33,0,0,1,.41-.14l.1.09Z"/><path class="cls-1" d="M248.59,41.56c.29.25,0,.35-.72.22l-.47-.11-.13,0c-.12-.1-.17-.23-.11-.28A2.59,2.59,0,0,1,248.59,41.56Z"/><path class="cls-1" d="M111.05,46.74c-.08-.12.16-.39.53-.59l.14-.25c.11-.21.2-.29.44-.25a.78.78,0,0,1,.39.18s-.07.19-.15.25l-.09.06a.88.88,0,0,0-.47.35C111.71,46.67,111.13,46.86,111.05,46.74Z"/><path class="cls-1" d="M161.44,43c-.31-.17-.36-.35-.11-.4l.12-.08c.41-.3.81-.36,1.11-.11.06.06.06.26,0,.28a3.14,3.14,0,0,1-.93.29Z"/><path class="cls-1" d="M90.53,49.63c-.16-.06.18-.3.74-.52l-.06-.51s.14-.1.21-.09.28.09.29.14c0,.22.08.57,0,.62l-.3.14A1,1,0,0,1,90.53,49.63Z"/><path class="cls-1" d="M88.25,48.75c-.18,0-.2.15-.06.26v.07a.59.59,0,0,1-.25.3s-.25-.09-.26-.15l0-.22a1.94,1.94,0,0,1,.73-1l.25.09a.25.25,0,0,1,.11.27.91.91,0,0,1-.35.32Z"/><path class="cls-1" d="M102,47.15c.12.09,0,.23-.25.31a3,3,0,0,1-1.26.13c-.14-.1,0-.57.07-.56s.12.14.17.28.53-.08.6-.17A.87.87,0,0,1,102,47.15Z"/><path class="cls-1" d="M142.25,46.72a.92.92,0,0,1-.77,0c-.27-.13-.43-.38.34-.24l.68-.08a.69.69,0,0,1,.09.28s-.11.06-.18.07Z"/><path class="cls-1" d="M126.76,46.43c-.14-.41,0-.73.27-.73s1,0,1,0a.39.39,0,0,1-.24.11c-.13,0-.57.28-.57.54v.24c0,.12.54.18.06.33-.06,0-.27-.12-.32-.21Z"/><path class="cls-1" d="M81.73,45.83c0-.09.13-.17.33-.17s.66.08.65.17h0l-.28,0a.67.67,0,0,0,0,.59l0,.13,0,.12c0,.14-.25.21-.47.16v-.33A2.12,2.12,0,0,1,81.73,45.83Z"/><path class="cls-1" d="M102.84,45.75a.66.66,0,0,1-.45.59l-.11.08a.42.42,0,0,1-.65-.1l-.09-.1a.28.28,0,0,1,.27-.31l.14,0c.38.08.44,0,.44-.31v-.06c0-.08.22-.11.4-.07v0Z"/><path class="cls-1" d="M244.75,41.9c-.21-.06-.19-.18,0-.28a2.62,2.62,0,0,1,1.26-.2,7.62,7.62,0,0,1,.68.44,1.12,1.12,0,0,1-.49-.09C246,41.68,245,42,244.75,41.9Z"/><path class="cls-1" d="M9.89,37.92c-.42-.12-.65-.33-.51-.45a1.24,1.24,0,0,1,1-.21C10.6,37.39,10.32,38.05,9.89,37.92Z"/><path class="cls-1" d="M126.27,42.82c.19,0,.22.16,0,.35s-.54.53-.5.34S126.08,42.82,126.27,42.82Z"/><path class="cls-1" d="M178.9,42.93a.32.32,0,0,0,.28-.08,1.09,1.09,0,0,1,.47-.21l0,0a4.49,4.49,0,0,1,.19.59l0,.12a.35.35,0,0,1-.31.26l-.1,0a7.37,7.37,0,0,1-.83-.46l-.06,0C178.61,43,178.82,42.91,178.9,42.93Z"/><path class="cls-1" d="M105.79,42.19c0-.14.26-.25.57-.25l.06.46,0,.19c.29.27.33.43.1.36A1.81,1.81,0,0,1,105.79,42.19Z"/><path class="cls-1" d="M220.48,41.19c.23,0,.31.15.19.23a3.23,3.23,0,0,1-1-.13c-.18,0-.59-.23-.51-.39S220.25,41.15,220.48,41.19Z"/><path class="cls-1" d="M42,50.05l-.56.13v0c0-.07,0-.18,0-.21A3.25,3.25,0,0,1,42,49.7c.19-.05,1.06.47,1,.64v.12a.34.34,0,0,1-.42.14l-.09-.09c-.14-.13-.21-.33-.37-.4Z"/><path class="cls-1" d="M157.94,39.87c-.33.17-.5.12-.37-.11s.38-.9.49-.91S158.28,39.69,157.94,39.87Z"/><path class="cls-1" d="M245.21,38.31a.31.31,0,0,0-.38,0l-.11,0-.2,0c-.4,0-.58-.08-.4-.14s.46-.23.41-.27-.11-.21,0-.28l.05,0,.48.14c.56.19.94.4.84.48A1,1,0,0,1,245.21,38.31Z"/><path class="cls-1" d="M189.94,38.24a.68.68,0,0,1,.95-.25c.34.2.16.77-.07.49l-.28-.08Z"/><path class="cls-1" d="M72.51,49.31a1.39,1.39,0,0,1,0,.23l-.06,0a1.19,1.19,0,0,1-1-.41.56.56,0,0,1,.51-.63c.08,0,.3.21.28.23l-.26.32A1,1,0,0,1,72.51,49.31Z"/><path class="cls-1" d="M221.8,34.44c.18,0,.17.29,0,.68l-.19.29a.38.38,0,0,1-.33.09h-.08a1.33,1.33,0,0,1-.06-.55c0-.18.09-.67.33-.56l.18,0Z"/><path class="cls-1" d="M245.13,33.27c.4.12.42.27.05.33s-.93-.62-1-.67-.31-.21-.23-.26S244.73,33.15,245.13,33.27Z"/><path class="cls-1" d="M.88,30.14c.49.22.77.47.61.54s-.53.1-.59,0l-.11-.07c-.13-.07-.33-.06-.48-.12S0,30.3,0,30.22c0-.3.33-.24.49-.19Z"/><path class="cls-1" d="M233.87,42.59c-.17-.06-.17-.24,0-.42s.67-.62.68-.56a.65.65,0,0,1-.29.46c-.18.11.12.68-.06.62l-.17-.06Z"/><path class="cls-1" d="M106.84,45.74c-.12-.16,0-.25.2-.19s.1,1.18-.12,1.07l0-.1a4.52,4.52,0,0,1,0-.64Z"/><path class="cls-1" d="M45.39,50.44c0,.34-.43.52-.93.39L44,50.7a.32.32,0,0,1-.17-.24c0-.26.15-.15.31-.06a1,1,0,0,0,.49.08Z"/><path class="cls-1" d="M115.6,41.47c.14.13.05.08-.21-.12s-1.13-.19-1.14-.24.12-.24.34-.29h.21l.21,0C115.16,40.92,115.46,41.35,115.6,41.47Z"/><path class="cls-1" d="M186.67,41.8c-.09.34-.2.49-.24.35a1.18,1.18,0,0,1,.36-.88l-.16-.17-.37-.37C186.63,40.67,186.77,41.46,186.67,41.8Z"/><path class="cls-1" d="M260.48,40.52c.48.2.86.49.86.63s0,.52-.11.48a2.28,2.28,0,0,1-.31-.34,1.79,1.79,0,0,0-.84-.46l-.17,0c-.07,0-.14-.19-.12-.27a.34.34,0,0,1,.27-.15Z"/><path class="cls-1" d="M136.38,46.14c-.11-.29,0-.43.12-.29a.84.84,0,0,1,.19.8c-.12.15-.49.25-.35,0l0-.25Z"/><path class="cls-1" d="M129.81,46.13c0,.08-.2.14-.48.14s-.83-.07-.73-.14A3.07,3.07,0,0,1,129.81,46.13Z"/><path class="cls-1" d="M121.31,46.11a.73.73,0,0,1-.73.59l-.2-.1c-.28-.14-.23-.36.1-.45l.13,0c.19,0,.32,0,.3-.22l0-.13,0-.06a.47.47,0,0,1,.4.08v.06Z"/><path class="cls-1" d="M3.19,38.82c.07.37.15.49.16.28s-.62-.44-.64-.56l0-.09s.14-.05.22-.07.35.4.63,0l0,0c.23.06.35.24.27.41H3.83Z"/><path class="cls-1" d="M144.24,46.22c0,.65,0,.91,0,.58s-.28-1.14-.24-1.27l.1-.1a.6.6,0,0,1,.32.09c.1.08.24.26.21.29Z"/><path class="cls-1" d="M102,48.78c-.26-.11-.26-.14,0-.07s1-.11,1.12,0l0,0a1.61,1.61,0,0,1-.52.42c-.19.06-.53.12-.58-.25Z"/><path class="cls-1" d="M139.15,44.14c-.2-.07-.11-.31.2-.51l.27.32.15.18c.16.12.18.3,0,.4S139.34,44.22,139.15,44.14Z"/><path class="cls-1" d="M83.45,48.26c.17.06,0,.23-.43.39l-.27.07c-.31.09-.29.23-.14.4s.31.21,0,.26c-.09,0-.3-.07-.3-.12,0-.22-.11-.57,0-.63l.3-.14A1,1,0,0,1,83.45,48.26Z"/><path class="cls-1" d="M241.67,32.59a.33.33,0,0,1,.07.43c-.09.12-.49-.05-.55,0s-.27.18-.34.08-.17-.45-.06-.55A1.33,1.33,0,0,1,241.67,32.59Z"/><path class="cls-1" d="M18.71,15.36c.25-.07.31,0,.14,0s-.42.47-.37.51.11.2,0,.26-.33.11-.41,0S18.47,15.42,18.71,15.36Z"/><path class="cls-1" d="M97.63,47.31c.3.09.49.26.42.36a.44.44,0,0,1-.64-.12l-.44.1c-.12,0-.33.11-.36.08l-.12-.13a.3.3,0,0,1,.16-.43v0c.21.25.47,0,.69.07Z"/><path class="cls-1" d="M157.92,42.88c-.21-.11,0-.28.39-.38l.33.09.14,0C158.85,43,158.12,43,157.92,42.88Z"/><path class="cls-1" d="M195.94,35.14l-.14-.23a.3.3,0,0,1,.28-.41c.29,0,.85-.16.78,0l-.05.17,0,.13a2.24,2.24,0,0,1-.08.33.31.31,0,0,1-.27.06C196.3,35.16,196,35.17,195.94,35.14Z"/><path class="cls-1" d="M82,37.67c-.14-.27.13-.6.61-.73l.43-.09a.39.39,0,0,1,.32.11.25.25,0,0,1-.09.27c-.23.08-.53.05-.46.38a1.1,1.1,0,0,1-.45.1Z"/><path class="cls-1" d="M77.66,37.45c-.44-.14-.5-.28-.13-.31l.31-.08.35-.09c.41-.06.59.2.39.57l-.51,0Z"/></g></g></svg>