<?xml version="1.0" encoding="utf-8"?>
<!-- Generator: Adobe Illustrator 24.1.0, SVG Export Plug-In . SVG Version: 6.00 Build 0)  -->
<svg version="1.1" id="Capa_1" xmlns="http://www.w3.org/2000/svg" xmlns:xlink="http://www.w3.org/1999/xlink" x="0px" y="0px"
	 viewBox="0 0 31 50" style="enable-background:new 0 0 31 50;" xml:space="preserve">
<g>
	<path d="M24.3,5c1,0,1.7,0.8,1.8,1.8v36.5c0,1-0.8,1.7-1.8,1.8H6.8c-1,0-1.7-0.8-1.8-1.8V6.8C5,5.8,5.8,5,6.8,5H24.3 M24.3,0H6.8
		C3,0,0,3,0,6.8v36.5C0,47,3,50,6.8,50l0,0h17.5c3.7,0,6.8-3,6.8-6.8l0,0V6.8C31,3,28,0,24.3,0z"/>
	<circle cx="15.5" cy="38.5" r="3.5"/>
</g>
</svg>
