<?xml version="1.0" encoding="utf-8"?>
<!-- Generator: Adobe Illustrator 24.1.0, SVG Export Plug-In . SVG Version: 6.00 Build 0)  -->
<svg version="1.1" id="Layer_1" xmlns="http://www.w3.org/2000/svg" xmlns:xlink="http://www.w3.org/1999/xlink" x="0px" y="0px"
	 viewBox="0 0 128 128" style="enable-background:new 0 0 128 128;" xml:space="preserve">
<style type="text/css">
	.st0{fill:#333333;}
</style>
<g>
	<path class="st0" d="M122.9,100c0.1-1.7,0.1-6.8-3.2-11.9c-3-4.5-7-6.5-8.7-7.2c-4-1.3-8.7-2.6-14.1-3.3c-2.4-0.3-4.6-0.5-6.7-0.6
		c-2.8,0.2-6.8,0.8-11.2,2.7c-8.6,3.8-13.2,10.3-15,13.2c-2.1-3.6-6.7-10.1-15-13.8c-2.2-1-4.3-1.7-6.2-2.1
		c-3.3-0.6-8.7-1.2-15.1,0.1c-7.3,1.4-12.6,4.5-15.5,6.5c-1.2,0.7-2.9,2-4.4,3.7c0,0-0.9,1.1-1.7,2.5c-2.5,4.6-2.5,12.7-2.5,13.7
		c0.2,6.7,0.4,13.4,0.6,20.1c-0.1,1.8,1.3,3.3,3,3.4c0.1,0,0.2,0,0.3,0l56.6-0.6l56.6,0.6c1.8,0.1,3.2-1.3,3.3-3.1
		c0-0.1,0-0.2,0-0.3C123.5,115.7,123.2,107.8,122.9,100z"/>
	<path class="st0" d="M60.8,69c1,0.1,6,0.1,7.3-0.1c14.6-1.9,22.7-27.5,22.7-41.1c0-14.8-12-26.8-26.8-26.8s-26.8,12-26.8,26.8
		C37.2,41.7,45.6,68.1,60.8,69z"/>
</g>
</svg>
