<svg id="Capa_1" data-name="Capa 1" xmlns="http://www.w3.org/2000/svg" viewBox="0 0 100 100"><defs><style>.cls-1{fill:#fc6;}</style></defs><path class="cls-1" d="M99.55,57.68l-2.94-9L99,39.62a9.28,9.28,0,0,0-3-9.42l-7.34-5.94-2.94-9A9.29,9.29,0,0,0,78,9L68.59,7.88,61.25,2.05A9.42,9.42,0,0,0,51.31.93L42.83,5.08l-9.37-1a9,9,0,0,0-8.93,4.37l-4.86,8.08L11.2,20.67A9.16,9.16,0,0,0,6,29.19l.23,9.42L1.37,46.69a8.94,8.94,0,0,0,.23,9.87L6.91,64.3l.22,9.42a9.16,9.16,0,0,0,5.65,8.18l8.7,3.7,5.31,7.74a9.18,9.18,0,0,0,9.15,3.82l9.38-1.57,8.7,3.7a9.36,9.36,0,0,0,9.83-1.68l7-6.29,9.38-1.57A9,9,0,0,0,87.57,83l2.37-9.09,7-6.39A9.6,9.6,0,0,0,99.55,57.68Z" transform="translate(0)"/></svg>