<svg id="LOGO_NEGATIVO" data-name="LOGO NEGATIVO" xmlns="http://www.w3.org/2000/svg" viewBox="0 0 100 100"><defs><style>.cls-1{fill:#fc3;}.cls-2{font-size:12.95px;font-family:BloggerSans-Bold, Blogger Sans;font-weight:700;}.cls-2,.cls-8{fill:#fff;}.cls-3{letter-spacing:0.02em;}.cls-4{letter-spacing:0em;}.cls-5{letter-spacing:0.01em;}.cls-6{letter-spacing:0.01em;}.cls-7{letter-spacing:0em;}</style></defs><circle class="cls-1" cx="50" cy="50" r="50"/><text class="cls-2" transform="translate(19.51 81.38) scale(1.27 1)">al<tspan class="cls-3" x="10.23" y="0">e</tspan><tspan class="cls-4" x="16.74" y="0">xd</tspan><tspan class="cls-5" x="29.8" y="0">e</tspan><tspan class="cls-6" x="36.25" y="0">v</tspan><tspan class="cls-7" x="42.44" y="0">s</tspan></text><path class="cls-8" d="M20.87,45.58,40.05,66.21a3.07,3.07,0,0,0,4.39.13,3.2,3.2,0,0,0,.13-4.47L27.4,43.41,44.57,25a3.19,3.19,0,0,0-.13-4.46,3.07,3.07,0,0,0-4.39.13L20.87,41.24A3.2,3.2,0,0,0,20.87,45.58Z" transform="translate(0 0)"/><path class="cls-8" d="M79.2,41.24,60,20.62a3.07,3.07,0,0,0-4.39-.13A3.19,3.19,0,0,0,55.5,25L72.67,43.41,55.5,61.87a3.2,3.2,0,0,0,.13,4.47A3.07,3.07,0,0,0,60,66.21L79.2,45.58A3.2,3.2,0,0,0,79.2,41.24Z" transform="translate(0 0)"/></svg>